<?xml version="1.0" encoding="UTF-8"?>
<svg version="1.1" xmlns="http://www.w3.org/2000/svg" width="400" height="300">
<path d="M0 0 C132 0 264 0 400 0 C400 99 400 198 400 300 C268 300 136 300 0 300 C0 201 0 102 0 0 Z " fill="#ECF4DF" transform="translate(0,0)"/>
<path d="M0 0 C2.82806025 2.45098555 2.86100986 3.47159652 3.2109375 7.30859375 C3.14814489 12.10573254 1.28424222 14.91681614 -1.5 18.6875 C-7.58115512 27.13460453 -10.11311828 36.48209465 -8.8203125 46.94677734 C-7.0804037 53.64860302 -2.89003727 59.64317985 0.89453125 65.36669922 C5.86101843 73.18689352 7.19933111 79.4007151 5.875 88.625 C5.09203846 91.55400168 3.97408784 93.95912507 2.4375 96.5625 C2.08131592 97.21726318 1.72513184 97.87202637 1.3581543 98.54663086 C0.23012307 100.59365342 -0.94101972 102.60990055 -2.125 104.625 C-2.51494141 105.30336914 -2.90488281 105.98173828 -3.30664062 106.68066406 C-14.58249397 126.26848559 -14.58249397 126.26848559 -20.1875 129.5 C-20.83847656 129.88929688 -21.48945313 130.27859375 -22.16015625 130.6796875 C-25.44060144 132.25795337 -28.50488144 132.74966276 -32.12402344 132.78613281 C-32.89872986 132.79574036 -33.67343628 132.8053479 -34.47161865 132.81524658 C-35.30082825 132.81949646 -36.13003784 132.82374634 -36.984375 132.828125 C-37.84758362 132.83382507 -38.71079224 132.83952515 -39.60015869 132.84539795 C-41.42580953 132.85483294 -43.25147729 132.86137596 -45.07714844 132.86523438 C-47.85121911 132.874917 -50.62454128 132.90594483 -53.3984375 132.9375 C-55.17707896 132.94403308 -56.95572569 132.94928235 -58.734375 132.953125 C-59.55548767 132.9654718 -60.37660034 132.9778186 -61.22259521 132.99053955 C-68.38836235 132.96322498 -75.10260854 131.39425421 -80.59716797 126.42333984 C-84.30055394 122.06425691 -86.91398428 116.91484007 -89.6875 111.9375 C-90.65719727 110.2369043 -90.65719727 110.2369043 -91.64648438 108.50195312 C-93.50295358 105.22527554 -95.3244524 101.93269726 -97.125 98.625 C-97.88961548 97.22181519 -97.88961548 97.22181519 -98.66967773 95.7902832 C-102.35562398 88.76537328 -104.15180293 82.55221814 -102.125 74.625 C-99.49999989 67.94729375 -95.78414044 61.77684224 -92.125 55.625 C-90.86171196 53.48608768 -89.61312987 51.34127009 -88.375 49.1875 C-87.88515625 48.38441406 -87.3953125 47.58132812 -86.890625 46.75390625 C-85.92852864 44.67481139 -85.92852864 44.67481139 -86.56640625 42.64453125 C-88.84060686 39.69776004 -91.75954088 37.80728307 -94.8125 35.75 C-96.08488239 34.86550548 -97.35573379 33.97880426 -98.625 33.08984375 C-99.53572266 32.45344971 -99.53572266 32.45344971 -100.46484375 31.80419922 C-110.04982381 24.99604427 -110.04982381 24.99604427 -112.125 19.625 C-112.85696909 15.24812363 -113.1560406 11.37493129 -110.84765625 7.45703125 C-107.59873276 3.60439581 -105.66531001 1.76110498 -100.5 1.3046875 C-95.56582178 1.38233869 -92.27316461 3.23907982 -88.125 5.75 C-87.36952881 6.18868408 -86.61405762 6.62736816 -85.83569336 7.0793457 C-84.16982764 8.04924826 -82.50847849 9.02693851 -80.85107422 10.01123047 C-77.91443168 11.74965132 -74.9610379 13.45683733 -72.00390625 15.16015625 C-67.93706975 17.50953641 -63.8713141 19.86054874 -59.81640625 22.23046875 C-58.87812988 22.77880371 -57.93985352 23.32713867 -56.97314453 23.89208984 C-53.0863074 26.25697669 -49.34237296 28.82558725 -45.61303711 31.4309082 C-42.62389223 32.86549829 -41.23268565 32.60525801 -38.125 31.625 C-37.89425781 30.635 -37.66351563 29.645 -37.42578125 28.625 C-34.59550155 16.9611751 -31.13329135 8.91427578 -21.125 1.625 C-14.66329301 -2.15448899 -6.93051254 -3.04942552 0 0 Z " fill="#444542" transform="translate(248.125,100.375)"/>
<path d="M0 0 C-1.07568421 3.44218946 -2.57522452 5.73700606 -4.875 8.4375 C-11.45020144 17.04327835 -12.43702222 27.72797704 -12.53125 38.234375 C-11.16581169 47.91292301 -5.88061099 55.93427132 -0.71484375 64.03125 C2.53104037 69.36814842 3.822528 72.74107599 3 79 C1.52438653 83.17744094 -0.62890288 86.97119337 -2.78857422 90.82958984 C-3.65525866 92.3823558 -4.50677841 93.9436247 -5.34814453 95.51025391 C-6.80512867 98.21282829 -8.30316893 100.88885559 -9.8125 103.5625 C-10.27301758 104.4194043 -10.73353516 105.27630859 -11.20800781 106.15917969 C-14.25074992 111.39037941 -17.27656434 114.75537532 -22.88842773 117.17895508 C-28.93746186 118.77510273 -35.05688842 118.69742574 -41.26855469 118.59692383 C-43.62815922 118.56245385 -45.98403743 118.57634917 -48.34375 118.59570312 C-63.85309424 118.58853108 -63.85309424 118.58853108 -69 114 C-70.98826839 111.74567102 -72.46917926 109.36624613 -73.9375 106.75 C-74.34863037 106.05197266 -74.75976074 105.35394531 -75.18334961 104.63476562 C-76.04023708 103.17152343 -76.88757008 101.70264699 -77.72558594 100.22851562 C-78.9867782 98.02312042 -80.28853771 95.84672691 -81.6015625 93.671875 C-82.4235857 92.28226054 -83.24395912 90.89166854 -84.0625 89.5 C-84.44462646 88.86674805 -84.82675293 88.23349609 -85.22045898 87.58105469 C-87.82765392 83.02070546 -88.81712458 79.2756787 -89 74 C-88.34 73.01 -87.68 72.02 -87 71 C-80.83623011 71.47304252 -76.35449974 72.89200711 -70.88671875 75.7109375 C-70.15048782 76.0797403 -69.4142569 76.44854309 -68.65571594 76.82852173 C-67.11257134 77.6045968 -65.5723234 78.38645634 -64.03491211 79.17382812 C-61.68306694 80.3772684 -59.32207593 81.56100931 -56.95898438 82.7421875 C-55.45515647 83.50147095 -53.95188099 84.26184974 -52.44921875 85.0234375 C-51.39452644 85.55328751 -51.39452644 85.55328751 -50.31852722 86.09384155 C-47.13111517 87.73414115 -44.30817479 89.20752797 -42 92 C-42.66 93.32 -43.32 94.64 -44 96 C-50.30432499 95.57830602 -55.20453176 92.47227333 -60.625 89.5 C-62.49008193 88.48570202 -64.35719521 87.47512813 -66.2265625 86.46875 C-67.04721191 86.01951172 -67.86786133 85.57027344 -68.71337891 85.10742188 C-70.82241179 84.08600685 -72.71180023 83.46486239 -75 83 C-73.36866728 88.20638101 -71.7336592 93.24581009 -69 98 C-68.34 98.33 -67.68 98.66 -67 99 C-66.505 97.515 -66.505 97.515 -66 96 C-65.10796875 96.42152344 -64.2159375 96.84304687 -63.296875 97.27734375 C-62.12640625 97.82519531 -60.9559375 98.37304688 -59.75 98.9375 C-58.58984375 99.48277344 -57.4296875 100.02804688 -56.234375 100.58984375 C-51.2037519 102.78314682 -46.51766948 103.76939614 -41 103 C-37.23196612 100.90664785 -36.18347027 99.45468719 -34.5625 95.4375 C-32.64121934 91.21068254 -31.06013515 90.94548143 -27 89 C-24.80958166 85.67660665 -24.03567242 83.26308408 -23.5 79.3125 C-22.9723679 75.81693731 -22.59078082 75.15898402 -20 73 C-18.74502043 69.2350613 -18.47935556 66.96991382 -19 63 C-23.22533086 54.89594745 -32.23690776 51.16899611 -39.94970703 47.10693359 C-41.86375778 46.07355587 -43.72922413 44.98943207 -45.58984375 43.86328125 C-51.67982989 40.20091845 -57.3603269 37.39684191 -64.0625 35.125 C-71.71675606 32.48617047 -77.28270966 28.48382915 -83.42236328 23.29785156 C-86.09030295 21.10305626 -88.89523603 19.09504181 -91.6875 17.0625 C-94.8339077 14.76624749 -96.83101587 13.2534762 -99 10 C-98.45945946 5.45945946 -98.45945946 5.45945946 -97 4 C-91.68122885 4.37181275 -88.1125342 5.7341074 -83.5703125 8.46484375 C-82.98197128 8.8140538 -82.39363007 9.16326385 -81.78746033 9.52305603 C-79.89336829 10.65055525 -78.00935705 11.79382045 -76.125 12.9375 C-74.82157184 13.71681223 -73.51744987 14.49496517 -72.21264648 15.27197266 C-69.64231355 16.80460251 -67.07554662 18.34290963 -64.51220703 19.88720703 C-60.04525028 22.57749393 -55.55627319 25.22981341 -51.0625 27.875 C-50.41490723 28.26034912 -49.76731445 28.64569824 -49.10009766 29.04272461 C-41.10306019 34.06955498 -41.10306019 34.06955498 -32 35 C-27.31251374 33.26825943 -26.21212471 30.2470172 -24.1484375 25.92578125 C-22.96176447 22.90259043 -22.24101235 19.98554306 -21.5625 16.8125 C-20.05823717 10.30238473 -17.60738727 6.41212522 -12.04296875 2.69140625 C-7.9522881 0.43097277 -4.7511053 -0.47511053 0 0 Z " fill="#B0E577" transform="translate(243,107)"/>
<path d="M0 0 C4.23255996 1.98572584 8.2957483 4.25904146 12.359375 6.56640625 C13.62418701 7.27095947 13.62418701 7.27095947 14.91455078 7.98974609 C17.59719497 9.49287146 20.26185984 11.02362684 22.921875 12.56640625 C23.75460938 13.03989502 24.58734375 13.51338379 25.4453125 14.0012207 C31.03129078 17.32832953 35.72839162 21.09566837 39.359375 26.56640625 C40.06705907 30.74174224 39.80508398 32.67498829 37.921875 36.44140625 C36.359375 38.56640625 36.359375 38.56640625 35.359375 39.56640625 C35.06365273 40.95717932 34.79771811 42.35434235 34.546875 43.75390625 C33.60876548 48.08576489 32.2830302 51.14155302 29.359375 54.56640625 C28.51375 54.87578125 27.668125 55.18515625 26.796875 55.50390625 C23.12240237 57.10559945 22.84922758 59.96592919 21.359375 63.56640625 C18.4831115 66.77138558 16.95978068 67.48499531 12.671875 68.06640625 C7.48662539 67.80225202 3.03110082 65.67890464 -1.640625 63.56640625 C-3.01474279 62.98099778 -4.38962759 62.39738293 -5.765625 61.81640625 C-6.714375 61.40390625 -7.663125 60.99140625 -8.640625 60.56640625 C-8.970625 61.22640625 -9.300625 61.88640625 -9.640625 62.56640625 C-12.640625 61.56640625 -12.640625 61.56640625 -14.02734375 59.45703125 C-14.45660156 58.585625 -14.88585937 57.71421875 -15.328125 56.81640625 C-15.76511719 55.9553125 -16.20210937 55.09421875 -16.65234375 54.20703125 C-17.68189938 51.45612373 -17.83422889 49.4756972 -17.640625 46.56640625 C-10.79306185 47.0999826 -5.48931932 50.69155407 0.37109375 53.97265625 C4.71791124 56.34993005 8.31945172 58.17368496 13.359375 58.56640625 C13.359375 57.24640625 13.359375 55.92640625 13.359375 54.56640625 C3.65051415 49.35862983 -6.09597726 44.23815808 -16.015625 39.44140625 C-17.19958862 38.85661499 -17.19958862 38.85661499 -18.4074707 38.26000977 C-22.27418327 36.41555064 -25.24619207 35.02366752 -29.640625 35.56640625 C-29.97793342 37.0029787 -30.31032091 38.44070718 -30.640625 39.87890625 C-30.82625 40.67941406 -31.011875 41.47992188 -31.203125 42.3046875 C-31.73558323 44.67336563 -31.73558323 44.67336563 -31.640625 47.56640625 C-30.980625 47.89640625 -30.320625 48.22640625 -29.640625 48.56640625 C-29.33125 49.51515625 -29.021875 50.46390625 -28.703125 51.44140625 C-27.69267933 54.41330527 -27.01065039 55.62729456 -24.640625 57.56640625 C-25.300625 58.88640625 -25.960625 60.20640625 -26.640625 61.56640625 C-27.300625 61.56640625 -27.960625 61.56640625 -28.640625 61.56640625 C-29.300625 60.57640625 -29.960625 59.58640625 -30.640625 58.56640625 C-31.630625 59.06140625 -31.630625 59.06140625 -32.640625 59.56640625 C-38.02553736 50.52744621 -42.14138458 42.3557096 -39.640625 31.56640625 C-37.26459593 25.66611768 -34.1440939 20.15131602 -30.89770508 14.69287109 C-29.71214671 12.68739171 -28.59526307 10.65470012 -27.48046875 8.609375 C-25.49522067 5.32591798 -23.94582703 4.35300194 -20.640625 2.56640625 C-20.310625 1.57640625 -19.980625 0.58640625 -19.640625 -0.43359375 C-13.74013022 -4.44699335 -6.17621102 -2.43204876 0 0 Z " fill="#424340" transform="translate(185.640625,143.43359375)"/>
<path d="M0 0 C6.16376989 0.47304252 10.64550026 1.89200711 16.11328125 4.7109375 C16.84951218 5.0797403 17.5857431 5.44854309 18.34428406 5.82852173 C19.88742866 6.6045968 21.4276766 7.38645634 22.96508789 8.17382812 C25.31693306 9.3772684 27.67792407 10.56100931 30.04101562 11.7421875 C31.54484353 12.50147095 33.04811901 13.26184974 34.55078125 14.0234375 C35.60547356 14.55328751 35.60547356 14.55328751 36.68147278 15.09384155 C39.86888483 16.73414115 42.69182521 18.20752797 45 21 C44.34 22.32 43.68 23.64 43 25 C36.69567501 24.57830602 31.79546824 21.47227333 26.375 18.5 C24.50991807 17.48570202 22.64280479 16.47512813 20.7734375 15.46875 C19.95278809 15.01951172 19.13213867 14.57027344 18.28662109 14.10742188 C16.17758821 13.08600685 14.28819977 12.46486239 12 12 C13.63133272 17.20638101 15.2663408 22.24581009 18 27 C18.66 27.33 19.32 27.66 20 28 C20.33 27.01 20.66 26.02 21 25 C22.33804688 25.63228516 22.33804688 25.63228516 23.703125 26.27734375 C24.87359375 26.82519531 26.0440625 27.37304688 27.25 27.9375 C28.41015625 28.48277344 29.5703125 29.02804688 30.765625 29.58984375 C35.78420534 31.77789629 40.49419898 32.79283535 46 32 C48.97987157 30.12891785 50.98707195 28.01394868 53.375 25.4375 C56.48534646 22.54932115 59.05238511 21.47068006 63 20 C62.35075649 23.24621756 61.09860052 26.09839 59.765625 29.1171875 C58.58630788 32.01734491 57.80235744 34.97572967 57 38 C62.1192175 39.22998898 62.1192175 39.22998898 67 38 C68.08885464 35.32186171 68.08885464 35.32186171 69 32 C70.25435444 29.29195573 71.61733217 26.64452002 73 24 C73.66 24 74.32 24 75 24 C74.7215625 25.3303125 74.7215625 25.3303125 74.4375 26.6875 C73.79356078 29.8824991 73.79356078 29.8824991 74.6875 32.4375 C75.07852095 35.64387181 74.26398596 37.61382852 72.51586914 40.30102539 C68.40319084 44.91048397 63.05677284 46.75975415 57.03295898 47.46337891 C53.26397017 47.65822395 49.50420466 47.65796534 45.73144531 47.59692383 C43.37184078 47.56245385 41.01596257 47.57634917 38.65625 47.59570312 C23.14690576 47.58853108 23.14690576 47.58853108 18 43 C16.01173161 40.74567102 14.53082074 38.36624613 13.0625 35.75 C12.44580444 34.70295898 12.44580444 34.70295898 11.81665039 33.63476562 C10.95976292 32.17152343 10.11242992 30.70264699 9.27441406 29.22851562 C8.0132218 27.02312042 6.71146229 24.84672691 5.3984375 22.671875 C4.5764143 21.28226054 3.75604088 19.89166854 2.9375 18.5 C2.55537354 17.86674805 2.17324707 17.23349609 1.77954102 16.58105469 C-0.82765392 12.02070546 -1.81712458 8.2756787 -2 3 C-1.34 2.01 -0.68 1.02 0 0 Z " fill="#AFE376" transform="translate(156,178)"/>
<path d="M0 0 C10.35946625 0 18.82326427 5.65192592 27.68261719 10.45410156 C29.56059091 11.4717453 31.44081998 12.48523763 33.32324219 13.49462891 C35.16120129 14.48215555 36.99288293 15.48147513 38.81738281 16.49365234 C43.36272309 18.94107671 46.67876383 20.69786704 52 20 C52 18.02 52 16.04 52 14 C51.34 14 50.68 14 50 14 C49.505 12.02 49.505 12.02 49 10 C50.875 9.375 50.875 9.375 53 9 C55 11 55 11 55 14 C55.66 14 56.32 14 57 14 C58.1845131 17.55353929 58.26641894 20.27013478 58 24 C57.51917969 24.47824219 57.03835937 24.95648438 56.54296875 25.44921875 C54.61679028 27.38515002 54.47282571 28.6430777 54.0625 31.3125 C53.20406485 35.63282118 51.90917308 38.59211154 49 42 C48.154375 42.309375 47.30875 42.61875 46.4375 42.9375 C42.76302737 44.5391932 42.48985258 47.39952294 41 51 C38.1237365 54.20497933 36.60040568 54.91858906 32.3125 55.5 C27.12725039 55.23584577 22.67172582 53.11249839 18 51 C16.62588221 50.41459153 15.25099741 49.83097668 13.875 49.25 C12.451875 48.63125 12.451875 48.63125 11 48 C10.67 48.66 10.34 49.32 10 50 C7 49 7 49 5.61328125 46.890625 C5.18402344 46.01921875 4.75476563 45.1478125 4.3125 44.25 C3.87550781 43.38890625 3.43851563 42.5278125 2.98828125 41.640625 C1.95872562 38.88971748 1.80639611 36.90929095 2 34 C8.84756315 34.53357635 14.15130568 38.12514782 20.01171875 41.40625 C24.35853624 43.7835238 27.96007672 45.60727871 33 46 C33 44.68 33 43.36 33 42 C18.5799981 34.34416205 18.5799981 34.34416205 4 27 C5.32 26.34 6.64 25.68 8 25 C8 25.66 8 26.32 8 27 C8.53625 27.103125 9.0725 27.20625 9.625 27.3125 C12 28 12 28 14.8125 29.5 C18.26416726 31.12431401 21.22340818 31.62234082 25 32 C25 31.34 25 30.68 25 30 C23.68 29.67 22.36 29.34 21 29 C20.67 27.68 20.34 26.36 20 25 C20.54938232 25.27263672 21.09876465 25.54527344 21.66479492 25.82617188 C24.16746257 27.06101474 26.6772779 28.28059233 29.1875 29.5 C30.05181641 29.92925781 30.91613281 30.35851562 31.80664062 30.80078125 C32.64775391 31.20683594 33.48886719 31.61289063 34.35546875 32.03125 C35.12528076 32.40830078 35.89509277 32.78535156 36.68823242 33.17382812 C39.2618097 34.09356469 41.28738106 34.15105071 44 34 C44 32.68 44 31.36 44 30 C40.25182833 27.95496407 36.50112255 25.91461746 32.75 23.875 C31.70585937 23.30523437 30.66171875 22.73546875 29.5859375 22.1484375 C22.46263756 18.27899062 15.26860629 14.58805539 8 11 C5.9995335 10.00093354 3.99941051 9.00117812 2 8 C2.33 7.01 2.66 6.02 3 5 C3.66 5 4.32 5 5 5 C4.67 3.68 4.34 2.36 4 1 C3.01 1.33 2.02 1.66 1 2 C0.67 1.34 0.34 0.68 0 0 Z " fill="#40423F" transform="translate(166,156)"/>
<path d="M0 0 C10.40631156 3.80963236 19.59666858 9.2110741 29 15 C29.94875 15.57234375 30.8975 16.1446875 31.875 16.734375 C36.63946373 19.728261 41.19155713 23.00721268 44 28 C44.375 31.9375 44.375 31.9375 44 35 C42.5393715 32.35261084 42 31.10551666 42 28 C41.34 28 40.68 28 40 28 C39.34 26.68 38.68 25.36 38 24 C36.68 24 35.36 24 34 24 C34.495 25.98 34.495 25.98 35 28 C35.66 28 36.32 28 37 28 C37 29.98 37 31.96 37 34 C32.37434972 35.10921206 30.03884275 35.00759016 25.875 32.71875 C24.92761963 32.20940918 23.98023926 31.70006836 23.00415039 31.17529297 C22.01278076 30.62244629 21.02141113 30.06959961 20 29.5 C17.93652649 28.38741123 15.87272521 27.27543013 13.80859375 26.1640625 C12.8119873 25.62040039 11.81538086 25.07673828 10.78857422 24.51660156 C-1.08091029 17.90311108 -1.08091029 17.90311108 -14 14 C-13.88590407 12.54077307 -13.75834456 11.08259402 -13.625 9.625 C-13.55539063 8.81289062 -13.48578125 8.00078125 -13.4140625 7.1640625 C-13 5 -13 5 -11 3 C-9.7315625 3.433125 -9.7315625 3.433125 -8.4375 3.875 C-6.10102316 4.63966515 -3.74490028 5.3462344 -1.375 6 C1.32076257 6.79874447 3.56302887 7.63529617 6 9 C6 8.67 6 8.34 6 8 C5.38125 7.79375 4.7625 7.5875 4.125 7.375 C1.16373399 5.4588867 0.98039516 3.29448105 0 0 Z " fill="#424C35" transform="translate(181,142)"/>
<path d="M0 0 C2.31 0.33 4.62 0.66 7 1 C7 1.66 7 2.32 7 3 C7.8971875 3.2165625 7.8971875 3.2165625 8.8125 3.4375 C10.56150404 3.8872439 12.28677023 4.42892341 14 5 C14 5.66 14 6.32 14 7 C14.57363281 7.11859375 15.14726562 7.2371875 15.73828125 7.359375 C19.61160699 8.45648281 22.88679111 10.46698004 26 13 C27.1875 15.625 27.1875 15.625 27 18 C26 19.8125 26 19.8125 24 21 C20.3125 21.1875 20.3125 21.1875 17 21 C17 20.34 17 19.68 17 19 C16.01 19.66 15.02 20.32 14 21 C14.309375 21.61875 14.61875 22.2375 14.9375 22.875 C16.63201436 26.26402871 17.10164326 27.3278558 16 31 C9.375 32.125 9.375 32.125 6 31 C6 31.99 6 32.98 6 34 C5.01 34.495 5.01 34.495 4 35 C7.31114834 36.12880057 10.58978257 37.21302675 14 38 C14.33 36.68 14.66 35.36 15 34 C15.99 34.33 16.98 34.66 18 35 C18.495 34.01 18.495 34.01 19 33 C19.66 33 20.32 33 21 33 C20.505 29.535 20.505 29.535 20 26 C21.65 25.67 23.3 25.34 25 25 C25.495 23.515 25.495 23.515 26 22 C26.96679688 21.80083984 26.96679688 21.80083984 27.953125 21.59765625 C28.96632813 21.30181641 28.96632813 21.30181641 30 21 C31.1375213 18.91965706 31.1375213 18.91965706 31.75 16.4375 C31.99234375 15.61121094 32.2346875 14.78492188 32.484375 13.93359375 C32.65453125 13.29550781 32.8246875 12.65742188 33 12 C33.33 12 33.66 12 34 12 C34.64638395 17.17107158 33.21648387 20.13805826 30.43359375 24.32421875 C28.58316583 26.48725302 26.61280666 26.96862895 24 28 C22.96898053 30.31979381 21.97063483 32.65429915 21 35 C18.1237365 38.20497933 16.60040568 38.91858906 12.3125 39.5 C7.12725039 39.23584577 2.67172582 37.11249839 -2 35 C-3.37411779 34.41459153 -4.74900259 33.83097668 -6.125 33.25 C-7.548125 32.63125 -7.548125 32.63125 -9 32 C-9.33 32.66 -9.66 33.32 -10 34 C-13 33 -13 33 -14.38671875 30.890625 C-14.81597656 30.01921875 -15.24523437 29.1478125 -15.6875 28.25 C-16.12449219 27.38890625 -16.56148437 26.5278125 -17.01171875 25.640625 C-18.04127438 22.88971748 -18.19360389 20.90929095 -18 18 C-11.15243685 18.53357635 -5.84869432 22.12514782 0.01171875 25.40625 C4.35853624 27.7835238 7.96007672 29.60727871 13 30 C13 28.68 13 27.36 13 26 C-1.4200019 18.34416205 -1.4200019 18.34416205 -16 11 C-14.68 10.34 -13.36 9.68 -12 9 C-12 9.66 -12 10.32 -12 11 C-11.195625 11.1546875 -11.195625 11.1546875 -10.375 11.3125 C-8 12 -8 12 -5.1875 13.5 C-1.73583274 15.12431401 1.22340818 15.62234082 5 16 C5 15.34 5 14.68 5 14 C3.68 13.67 2.36 13.34 1 13 C0.67 11.68 0.34 10.36 0 9 C0.54938232 9.27263672 1.09876465 9.54527344 1.66479492 9.82617188 C4.16746257 11.06101474 6.6772779 12.28059233 9.1875 13.5 C10.05181641 13.92925781 10.91613281 14.35851562 11.80664062 14.80078125 C12.64775391 15.20683594 13.48886719 15.61289063 14.35546875 16.03125 C15.12528076 16.40830078 15.89509277 16.78535156 16.68823242 17.17382812 C19.2618097 18.09356469 21.28738106 18.15105071 24 18 C24 16.68 24 15.36 24 14 C16.08 9.71 8.16 5.42 0 1 C0 0.67 0 0.34 0 0 Z " fill="#434D37" transform="translate(186,172)"/>
<path d="M0 0 C3.5 0.125 3.5 0.125 4.5 1.125 C4.75 4.5 4.75 4.5 4.5 8.125 C3.52227598 9.14679046 2.5195542 10.14494427 1.5 11.125 C0.36318082 13.25007864 0.36318082 13.25007864 -0.5625 15.5625 C-1.78799739 18.47121067 -3.0600078 21.31541521 -4.5 24.125 C-5.16 24.125 -5.82 24.125 -6.5 24.125 C-6.7475 24.95 -6.995 25.775 -7.25 26.625 C-11.08302583 37.35747232 -11.08302583 37.35747232 -15.5 39.75 C-18.6953031 40.14941289 -19.89191182 39.93059951 -22.5 38.125 C-22.83056194 33.38694558 -22.1908233 31.01174477 -19.5 27.125 C-19.03980469 26.35671875 -18.57960937 25.5884375 -18.10546875 24.796875 C-16.50522184 22.13369036 -14.82342149 19.5389284 -13.125 16.9375 C-10.23820374 12.42993889 -7.74611707 7.85360338 -5.4453125 3.0234375 C-3.85472655 -0.17087974 -3.93344062 0.14048002 0 0 Z " fill="#D0F2AA" transform="translate(235.5,177.875)"/>
<path d="M0 0 C15.52475231 1.25169483 32.20716828 14.40457557 45.24609375 22.26171875 C44.75109375 24.73671875 44.75109375 24.73671875 44.24609375 27.26171875 C38.38034388 26.76537868 34.11698401 25.01371038 28.93359375 22.296875 C28.16104248 21.90350449 27.38849121 21.51013397 26.5925293 21.10484314 C24.13870514 19.85414949 21.69198727 18.59034252 19.24609375 17.32421875 C16.79954564 16.06306422 14.35155224 14.80503764 11.8996582 13.55430603 C10.37928971 12.77827636 8.86199211 11.99618974 7.34838867 11.20704651 C3.03920976 9.00191415 -1.05424453 7.43470935 -5.75390625 6.26171875 C-4.9699683 2.34202899 -4.32374585 0.41090918 0 0 Z " fill="#B0DF7E" transform="translate(165.75390625,163.73828125)"/>
<path d="M0 0 C3.97592805 0.39291524 6.96674858 1.74276842 10.4453125 3.578125 C11.12037842 3.92512451 11.79544434 4.27212402 12.4909668 4.62963867 C18.48483601 7.76909101 24.32063847 11.17881535 30.1328125 14.640625 C31.4314624 15.4135791 31.4314624 15.4135791 32.75634766 16.20214844 C33.56765137 16.69360352 34.37895508 17.18505859 35.21484375 17.69140625 C35.93518799 18.12751221 36.65553223 18.56361816 37.39770508 19.01293945 C39.31167963 20.32221957 40.8549247 21.52832594 42.3203125 23.328125 C42.0078125 26.015625 42.0078125 26.015625 41.3203125 28.328125 C37.5680394 27.74235348 34.77607629 26.6810502 31.4765625 24.81640625 C30.56600098 24.30835449 29.65543945 23.80030273 28.71728516 23.27685547 C27.28328369 22.46692139 27.28328369 22.46692139 25.8203125 21.640625 C10.26950887 12.75646573 10.26950887 12.75646573 -6.6796875 7.328125 C-4.16787648 0.51035222 -4.16787648 0.51035222 0 0 Z " fill="#B0E27A" transform="translate(173.6796875,148.671875)"/>
<path d="M0 0 C2.31 0.66 4.62 1.32 7 2 C6.01 2.66 5.02 3.32 4 4 C-6.7220973 11.50766977 -10.45356754 18.8163465 -13.25390625 31.42578125 C-14 34 -14 34 -16 36 C-19.84177074 35.69670231 -22.09427672 34.47524576 -25 32 C-23.35 31.34 -21.7 30.68 -20 30 C-19.99613281 29.09121094 -19.99613281 29.09121094 -19.9921875 28.1640625 C-19.657811 20.91923826 -17.66835269 15.59814908 -13 10 C-10.76978244 8.20193532 -8.52023053 6.71120767 -6.05859375 5.25 C-3.67249174 3.8011335 -1.84619015 2.08699756 0 0 Z " fill="#DEE4D3" transform="translate(225,98)"/>
<path d="M0 0 C4.98012761 1.50912958 8.24259942 4.55661849 12 8 C10.48968084 13.26122171 8.09625809 17.67232586 5.375 22.375 C4.95476562 23.11105469 4.53453125 23.84710938 4.1015625 24.60546875 C3.07247236 26.4063765 2.03689244 28.20357318 1 30 C0.38125 29.814375 -0.2375 29.62875 -0.875 29.4375 C-3.04160178 28.76313824 -3.04160178 28.76313824 -5 30 C-5 29.34 -5 28.68 -5 28 C-5.66 28 -6.32 28 -7 28 C-7.69475905 22.92439918 -5.2853602 19.84811139 -2.5 15.875 C0.89246428 11.36687536 0.89246428 11.36687536 2 6 C2 4.68 2 3.36 2 2 C1.34 2 0.68 2 0 2 C0 1.34 0 0.68 0 0 Z " fill="#E0E5D3" transform="translate(151,135)"/>
<path d="M0 0 C4.55555556 0.55555556 4.55555556 0.55555556 6 2 C7.34133791 22.31732419 7.34133791 22.31732419 4 29 C0.125 28.125 0.125 28.125 -1 27 C-2.01943016 18.88231536 -2.79586458 10.16098423 -2 2 C-1.34 1.34 -0.68 0.68 0 0 Z " fill="#454643" transform="translate(199,71)"/>
<path d="M0 0 C1.2065625 0.0309375 1.2065625 0.0309375 2.4375 0.0625 C3.39837136 1.95704824 4.35608969 3.85319581 5.3125 5.75 C5.84617188 6.80574219 6.37984375 7.86148438 6.9296875 8.94921875 C10.86347765 17.07157821 10.86347765 17.07157821 9.4375 22.0625 C7.2421875 22.015625 7.2421875 22.015625 4.4375 21.0625 C2.44722286 18.85990626 1.03315597 16.38131026 -0.4375 13.8125 C-0.85257813 13.14347656 -1.26765625 12.47445312 -1.6953125 11.78515625 C-4.61027909 6.8394296 -4.61027909 6.8394296 -4.3828125 3.140625 C-3.17364712 0.07740603 -3.17364712 0.07740603 0 0 Z " fill="#474943" transform="translate(182.5625,81.9375)"/>
<path d="M0 0 C2.5625 0.1875 2.5625 0.1875 4.5625 2.1875 C4.37872699 7.6367693 1.96718573 11.20941587 -1 15.5625 C-1.63711914 16.52349609 -1.63711914 16.52349609 -2.28710938 17.50390625 C-3.32808742 19.0712215 -4.38154634 20.63023501 -5.4375 22.1875 C-7.0875 21.8575 -8.7375 21.5275 -10.4375 21.1875 C-9.84675318 16.38029775 -8.3959358 12.2676237 -6.4375 7.875 C-6.16421875 7.24271484 -5.8909375 6.61042969 -5.609375 5.95898438 C-3.10806725 0.2390821 -3.10806725 0.2390821 0 0 Z " fill="#474944" transform="translate(219.4375,81.8125)"/>
<path d="M0 0 C2.31 0.33 4.62 0.66 7 1 C7 1.66 7 2.32 7 3 C8.65 3.33 10.3 3.66 12 4 C12 4.66 12 5.32 12 6 C12.825 5.896875 13.65 5.79375 14.5 5.6875 C19.25096921 6.11169368 22.17879519 8.28442298 26 11 C24.37660195 12.70884005 22.70680947 14.37446717 21 16 C20.34 16 19.68 16 19 16 C19 15.34 19 14.68 19 14 C18.278125 13.9175 17.55625 13.835 16.8125 13.75 C13.3807541 12.83486776 11.77774839 11.22219871 9 9 C5.71867296 7.2230352 2.37182698 5.59752579 -1 4 C-0.67 2.68 -0.34 1.36 0 0 Z " fill="#424340" transform="translate(192,151)"/>
<path d="M0 0 C6.20951767 0.32681672 10.62726592 1.92782493 16 5 C15.34 5.66 14.68 6.32 14 7 C12.02 6.34 10.04 5.68 8 5 C8 5.66 8 6.32 8 7 C5.33333333 5.66666667 2.66666667 4.33333333 0 3 C0.19335938 3.56847656 0.38671875 4.13695312 0.5859375 4.72265625 C2.18136423 9.45364938 3.66900586 14.18794425 5 19 C5.66 19 6.32 19 7 19 C7.33 20.65 7.66 22.3 8 24 C8.66 24 9.32 24 10 24 C10.33 25.65 10.66 27.3 11 29 C11.99 29 12.98 29 14 29 C14.48198463 30.24891614 14.96045677 31.49918808 15.4375 32.75 C15.70433594 33.44609375 15.97117188 34.1421875 16.24609375 34.859375 C16.96146693 36.89059003 17.51365652 38.9035291 18 41 C15.12538002 38.30581486 13.06028214 35.72325377 11.125 32.296875 C10.61453125 31.39839844 10.1040625 30.49992187 9.578125 29.57421875 C9.05734375 28.64222656 8.5365625 27.71023437 8 26.75 C7.47921875 25.83347656 6.9584375 24.91695312 6.421875 23.97265625 C4.92681989 21.32610667 3.45629773 18.66804784 2 16 C1.37025269 14.85325806 1.37025269 14.85325806 0.7277832 13.68334961 C-1.77444501 8.94802661 -2.3940901 6.25464731 -1 1 C-0.67 0.67 -0.34 0.34 0 0 Z " fill="#B0D982" transform="translate(156,178)"/>
<path d="M0 0 C3.875 1.75 3.875 1.75 5 4 C5.62868126 10.68688245 4.35273274 14.10848812 0.5 19.5 C0.07074219 20.13164063 -0.35851562 20.76328125 -0.80078125 21.4140625 C-1.85076317 22.95403599 -2.92312994 24.47870738 -4 26 C-4.66 25.67 -5.32 25.34 -6 25 C-5.625 22.5625 -5.625 22.5625 -5 20 C-4.34 19.67 -3.68 19.34 -3 19 C0.40496455 13.82949827 -0.02986201 10.82082794 -1 5 C-0.67 4.34 -0.34 3.68 0 3 C-0.99 2.67 -1.98 2.34 -3 2 C-2.01 2 -1.02 2 0 2 C0 1.34 0 0.68 0 0 Z " fill="#454644" transform="translate(246,100)"/>
<path d="M0 0 C1.23556641 0.01740234 1.23556641 0.01740234 2.49609375 0.03515625 C3.32238281 0.04417969 4.14867187 0.05320312 5 0.0625 C5.63808594 0.07410156 6.27617187 0.08570312 6.93359375 0.09765625 C8.15778538 4.03561534 7.41679647 6.25877862 5.93359375 10.09765625 C5.60359375 9.43765625 5.27359375 8.77765625 4.93359375 8.09765625 C-1.72774065 9.13077987 -6.58354204 11.18345891 -12.06640625 15.09765625 C-12.06640625 13.44765625 -12.06640625 11.79765625 -12.06640625 10.09765625 C-11.32390625 9.80890625 -10.58140625 9.52015625 -9.81640625 9.22265625 C-7.14403813 8.19562712 -7.14403813 8.19562712 -5.06640625 6.97265625 C-2.62352002 5.90389352 -0.70465364 5.95108695 1.93359375 6.09765625 C1.26491061 2.98433377 1.26491061 2.98433377 -1.12890625 1.91015625 C-1.76828125 1.64203125 -2.40765625 1.37390625 -3.06640625 1.09765625 C-2.06640625 0.09765625 -2.06640625 0.09765625 0 0 Z " fill="#3E4437" transform="translate(238.06640625,98.90234375)"/>
<path d="M0 0 C1.6428795 3.28575899 0.0279949 6.53781389 -0.875 9.9375 C-1.06191406 10.66646484 -1.24882812 11.39542969 -1.44140625 12.14648438 C-2.21295306 15.13144031 -3.02482505 18.07447514 -4 21 C-4.66 21 -5.32 21 -6 21 C-6 22.65 -6 24.3 -6 26 C-7.65 26.33 -9.3 26.66 -11 27 C-11.33 27.99 -11.66 28.98 -12 30 C-21.41002278 30.18451025 -21.41002278 30.18451025 -26 29 C-25.67 27.68 -25.34 26.36 -25 25 C-24.29875 25.33 -23.5975 25.66 -22.875 26 C-19.0584406 27.32749892 -15.82068755 27.66781976 -11.9765625 26.2578125 C-6.46779983 22.75223626 -4.74979506 14.5367113 -3.3125 8.5625 C-3.10238281 7.57378906 -2.89226562 6.58507812 -2.67578125 5.56640625 C-2 3 -2 3 0 0 Z " fill="#B2DE85" transform="translate(225,115)"/>
<path d="M0 0 C3.49552647 1.11221297 6.74442336 2.31608105 10 4 C10.99 4.33 11.98 4.66 13 5 C13.8971875 5.99 13.8971875 5.99 14.8125 7 C17.65116903 9.59535454 19.1618465 9.92618936 23 10 C25.94432427 9.4287132 28.47395374 8.63930485 31 7 C32.37189827 3.97017694 32.37189827 3.97017694 33 1 C33.99 0.67 34.98 0.34 36 0 C35.46744565 4.52671196 33.78440128 7.4200555 31 11 C27.59508564 13.087787 24.8465025 13.4063 20.84765625 12.87890625 C13.40762059 10.58259895 5.34470216 5.61042747 0 0 Z " fill="#42532F" transform="translate(184,130)"/>
<path d="M0 0 C2.77471599 1.26287074 5.54460444 2.53483762 8.3125 3.8125 C9.09818359 4.16892578 9.88386719 4.52535156 10.69335938 4.89257812 C11.45068359 5.24384766 12.20800781 5.59511719 12.98828125 5.95703125 C14.03302612 6.43619995 14.03302612 6.43619995 15.09887695 6.92504883 C17.09631284 8.05445813 18.46143359 9.30989216 20 11 C19.34 12.32 18.68 13.64 18 15 C13.43545749 14.45660208 10.0271824 13.20536179 6 11 C6.33 10.34 6.66 9.68 7 9 C9.64 9.66 12.28 10.32 15 11 C15 10.34 15 9.68 15 9 C13.88625 8.71125 12.7725 8.4225 11.625 8.125 C8 7 8 7 6 5 C4.01643517 4.28591666 2.01684563 3.61382258 0 3 C0 2.01 0 1.02 0 0 Z " fill="#ADD680" transform="translate(181,188)"/>
<path d="M0 0 C3.83225427 -0.08912219 7.26562152 0.12132271 11 1 C11.33 2.32 11.66 3.64 12 5 C13.2065625 5.185625 13.2065625 5.185625 14.4375 5.375 C15.283125 5.58125 16.12875 5.7875 17 6 C17.33 6.66 17.66 7.32 18 8 C11.68153992 10.10615336 4.73124497 5.67718019 -1 3 C-0.67 2.01 -0.34 1.02 0 0 Z " fill="#403F44" transform="translate(175,180)"/>
<path d="M0 0 C0.66 0.33 1.32 0.66 2 1 C1.59122512 4.4064573 1.18122204 7.51512728 -0.0234375 10.73828125 C-1.16906438 14.56467504 -1.29429464 18.10920351 -1.25 22.0625 C-1.25773438 22.75666016 -1.26546875 23.45082031 -1.2734375 24.16601562 C-1.25781581 28.27842443 -0.5793271 31.2457521 1 35 C0.67 35.99 0.34 36.98 0 38 C-5.25577168 29.34205469 -5.46263478 19.63057208 -3.09375 9.921875 C-2.1846792 6.57321446 -1.13217316 3.28026955 0 0 Z " fill="#485837" transform="translate(234,120)"/>
<path d="M0 0 C0.89203125 0.42152344 1.7840625 0.84304687 2.703125 1.27734375 C3.87359375 1.82519531 5.0440625 2.37304688 6.25 2.9375 C7.41015625 3.48277344 8.5703125 4.02804688 9.765625 4.58984375 C14.77063615 6.77198025 19.50855371 7.81880412 25 7 C27.8900216 5.25590249 27.8900216 5.25590249 30 3 C30.66 2.34 31.32 1.68 32 1 C31.875 3.8125 31.875 3.8125 31 7 C26.70547678 10.06751659 23.17883065 10.44645092 18 10 C15.28736089 9.44221656 12.67000036 8.74947378 10 8 C10 7.34 10 6.68 10 6 C6.37 5.01 2.74 4.02 -1 3 C-0.67 2.01 -0.34 1.02 0 0 Z " fill="#AFD883" transform="translate(177,203)"/>
<path d="M0 0 C-1.10313116 3.53001971 -2.74049133 6.06627069 -5 8.9375 C-7.50678052 12.15963008 -8.99754222 14.9901689 -10 19 C-10.66 19 -11.32 19 -12 19 C-11.52309796 17.37433394 -11.04340334 15.74948689 -10.5625 14.125 C-10.29566406 13.22007813 -10.02882812 12.31515625 -9.75390625 11.3828125 C-9 9 -9 9 -8 7 C-7.34 7 -6.68 7 -6 7 C-5.67 5.68 -5.34 4.36 -5 3 C-6.65 3 -8.3 3 -10 3 C-10 3.66 -10 4.32 -10 5 C-11.32 4.67 -12.64 4.34 -14 4 C-9.22642128 1.28608722 -5.65611463 -0.56561146 0 0 Z " fill="#AFD982" transform="translate(243,107)"/>
<path d="M0 0 C0.99 1.32 1.98 2.64 3 4 C3.66 3.67 4.32 3.34 5 3 C4.56179109 7.55737263 4.14958831 10.57653445 1 14 C-1.97 13.505 -1.97 13.505 -5 13 C-3.25 7.25 -3.25 7.25 -1 5 C-0.35232207 2.42938689 -0.35232207 2.42938689 0 0 Z " fill="#B4E27F" transform="translate(240,181)"/>
<path d="M0 0 C-0.33 0.99 -0.66 1.98 -1 3 C-2.98567708 2.96744792 -4.97135417 2.93489583 -6.95703125 2.90234375 C-9.20305461 2.91736783 -9.20305461 2.91736783 -12 4 C-12.66 2.02 -13.32 0.04 -14 -2 C-8.99069255 -3.66976915 -4.85579187 -1.69388089 0 0 Z " fill="#424044" transform="translate(186,199)"/>
<path d="M0 0 C0.99 0.33 1.98 0.66 3 1 C3.33 2.65 3.66 4.3 4 6 C4.66 6 5.32 6 6 6 C6.268125 6.598125 6.53625 7.19625 6.8125 7.8125 C7.87296728 10.0299713 7.87296728 10.0299713 9.5625 11.5 C12.54378858 14.61090982 12.1112549 18.654588 12.0625 22.75 C12.05347656 23.73484375 12.04445312 24.7196875 12.03515625 25.734375 C12.02355469 26.48203125 12.01195312 27.2296875 12 28 C11.67 28 11.34 28 11 28 C10.93941406 26.7109375 10.87882813 25.421875 10.81640625 24.09375 C10.18850547 18.44153556 7.83261635 14.31059223 4.9375 9.5 C4.00782749 7.90700045 3.079371 6.31329038 2.15234375 4.71875 C1.5334729 3.68137695 1.5334729 3.68137695 0.90209961 2.62304688 C0 1 0 1 0 0 Z " fill="#3E4C31" transform="translate(235,159)"/>
<path d="M0 0 C2.4375 0.375 2.4375 0.375 5 1 C5.33 1.66 5.66 2.32 6 3 C8.30965848 4.05352843 10.6429774 5.05719096 13 6 C12.67 7.32 12.34 8.64 12 10 C3.68989547 7.85714286 3.68989547 7.85714286 0.9375 4.4375 C0 2 0 2 0 0 Z " fill="#B0E873" transform="translate(183,155)"/>
<path d="M0 0 C4.22009837 0.5275123 7.37381585 2.12285595 11.03515625 4.16015625 C13.25688055 5.2620244 13.25688055 5.2620244 17 5 C17 4.34 17 3.68 17 3 C18.32 3.66 19.64 4.32 21 5 C20.67 6.65 20.34 8.3 20 10 C15.13127946 9.40440894 11.40671159 7.27522585 7.1875 4.9375 C6.49462891 4.56044922 5.80175781 4.18339844 5.08789062 3.79492188 C3.38871015 2.86916148 1.69390575 1.93537688 0 1 C0 0.67 0 0.34 0 0 Z " fill="#B1DA87" transform="translate(195,167)"/>
<path d="M0 0 C0.33 0.99 0.66 1.98 1 3 C3.39068734 4.10636395 3.39068734 4.10636395 6 5 C6.99 5.66 7.98 6.32 9 7 C9 7.99 9 8.98 9 10 C6.69 9.67 4.38 9.34 2 9 C2 8.34 2 7.68 2 7 C-0.475 6.01 -0.475 6.01 -3 5 C-2.67 4.01 -2.34 3.02 -2 2 C-1.34 2 -0.68 2 0 2 C0 1.34 0 0.68 0 0 Z " fill="#AEE770" transform="translate(182,170)"/>
<path d="M0 0 C1 3 1 3 1 6 C1.31421071 8.00309329 1.6451046 10.00371336 2 12 C-0.3125 12.6875 -0.3125 12.6875 -3 13 C-3.99 12.01 -4.98 11.02 -6 10 C-4.02 6.7 -2.04 3.4 0 0 Z " fill="#E8ECD9" transform="translate(223,88)"/>
<path d="M0 0 C4 4.625 4 4.625 4 8 C3.01 8 2.02 8 1 8 C0.67 8.66 0.34 9.32 0 10 C-1.32 9.01 -2.64 8.02 -4 7 C-3.67 5.35 -3.34 3.7 -3 2 C-2.34 2 -1.68 2 -1 2 C-0.67 1.34 -0.34 0.68 0 0 Z " fill="#DEE3D0" transform="translate(163,220)"/>
<path d="M0 0 C0.94875 0.04125 1.8975 0.0825 2.875 0.125 C3.205 0.785 3.535 1.445 3.875 2.125 C2.225 2.455 0.575 2.785 -1.125 3.125 C1.185 4.775 3.495 6.425 5.875 8.125 C5.545 8.785 5.215 9.445 4.875 10.125 C1.245 8.805 -2.385 7.485 -6.125 6.125 C-4.64015152 0.18560606 -4.64015152 0.18560606 0 0 Z " fill="#AAD083" transform="translate(166.125,163.875)"/>
<path d="M0 0 C1.98 0.66 3.96 1.32 6 2 C4.68 2.99 3.36 3.98 2 5 C2.33 6.32 2.66 7.64 3 9 C0 10 0 10 -2.48046875 9.00390625 C-3.37378906 8.52824219 -4.26710937 8.05257812 -5.1875 7.5625 C-6.08855469 7.08941406 -6.98960937 6.61632812 -7.91796875 6.12890625 C-8.60503906 5.75636719 -9.29210937 5.38382813 -10 5 C-7.45297384 3.72648692 -6.5717055 4.19808075 -3.875 4.9375 C-2.78832031 5.22947266 -2.78832031 5.22947266 -1.6796875 5.52734375 C-1.12539062 5.68332031 -0.57109375 5.83929688 0 6 C0 4.02 0 2.04 0 0 Z " fill="#48533B" transform="translate(178,159)"/>
<path d="M0 0 C5.26122171 1.51031916 9.67232586 3.90374191 14.375 6.625 C15.47908203 7.25535156 15.47908203 7.25535156 16.60546875 7.8984375 C18.4063765 8.92752764 20.20357318 9.96310756 22 11 C18.08428299 12.305239 16.96107003 11.32239848 13.3125 9.5625 C12.31863281 9.08941406 11.32476562 8.61632812 10.30078125 8.12890625 C9.54152344 7.75636719 8.78226563 7.38382813 8 7 C8 6.34 8 5.68 8 5 C6.865625 4.731875 5.73125 4.46375 4.5625 4.1875 C3.386875 3.795625 2.21125 3.40375 1 3 C0.67 2.01 0.34 1.02 0 0 Z " fill="#AED681" transform="translate(180,151)"/>
<path d="M0 0 C5.64788053 -0.3457886 9.07569129 0.43935947 14 3 C14.33 3.66 14.66 4.32 15 5 C11.15377548 6.47931712 8.70821193 5.58923368 5 4 C2.125 1.875 2.125 1.875 0 0 Z " fill="#AFEA6E" transform="translate(164,167)"/>
<path d="M0 0 C1.6428795 3.28575899 0.0279949 6.53781389 -0.875 9.9375 C-1.06191406 10.66646484 -1.24882812 11.39542969 -1.44140625 12.14648438 C-2.21295306 15.13144031 -3.02482505 18.07447514 -4 21 C-4.66 21 -5.32 21 -6 21 C-6.33 21.99 -6.66 22.98 -7 24 C-7.66 23.67 -8.32 23.34 -9 23 C-8.401875 21.9275 -7.80375 20.855 -7.1875 19.75 C-4.88860108 15.20906539 -3.7893042 10.59086223 -2.7109375 5.63671875 C-2 3 -2 3 0 0 Z " fill="#ABD280" transform="translate(225,115)"/>
<path d="M0 0 C0.99 0 1.98 0 3 0 C3 1.32 3 2.64 3 4 C4.98 4 6.96 4 9 4 C8.0625 6.0625 8.0625 6.0625 6 8 C2.92889402 8.05989746 0.00988272 7.58052245 -3 7 C-2.690625 6.401875 -2.38125 5.80375 -2.0625 5.1875 C-0.89790296 2.91043228 -0.89790296 2.91043228 0 0 Z " fill="#3F403D" transform="translate(150,103)"/>
<path d="M0 0 C0.66 0 1.32 0 2 0 C1.34733531 2.00461299 0.67795528 4.00379834 0 6 C-0.268125 6.86625 -0.53625 7.7325 -0.8125 8.625 C-2.31755726 11.63511452 -4.28490951 13.07085676 -7 15 C-7 14.34 -7 13.68 -7 13 C-7.66 12.67 -8.32 12.34 -9 12 C-8.2575 11.319375 -7.515 10.63875 -6.75 9.9375 C-3.75618047 6.96926868 -1.96562715 3.71285128 0 0 Z " fill="#E3E8D7" transform="translate(239,215)"/>
<path d="M0 0 C2.2058918 3.3088377 4.16317295 6.73177285 6.125 10.1875 C6.49753906 10.84169922 6.87007812 11.49589844 7.25390625 12.16992188 C8.17024716 13.77939244 9.08525436 15.38962222 10 17 C9.34 17.33 8.68 17.66 8 18 C7.731875 17.195625 7.46375 16.39125 7.1875 15.5625 C6.795625 14.716875 6.40375 13.87125 6 13 C5.01 12.67 4.02 12.34 3 12 C2.67 10.02 2.34 8.04 2 6 C1.01 5.67 0.02 5.34 -1 5 C-0.67 3.35 -0.34 1.7 0 0 Z " fill="#475536" transform="translate(154,186)"/>
<path d="M0 0 C2.31 0.33 4.62 0.66 7 1 C6.50168276 4.68754757 5.89932357 6.60490662 3 9 C2.01 8.34 1.02 7.68 0 7 C0.66 5.68 1.32 4.36 2 3 C1.34 3 0.68 3 0 3 C0 2.01 0 1.02 0 0 Z " fill="#AEE86F" transform="translate(152,116)"/>
<path d="M0 0 C3 2 3 2 3.6875 5.125 C3.790625 6.07375 3.89375 7.0225 4 8 C2.02 8.99 2.02 8.99 0 10 C0 8.35 0 6.7 0 5 C-0.66 5 -1.32 5 -2 5 C-2.33 3.68 -2.66 2.36 -3 1 C-2.01 0.67 -1.02 0.34 0 0 Z " fill="#423F46" transform="translate(218,165)"/>
<path d="M0 0 C2.4375 0.375 2.4375 0.375 5 1 C5.33 1.66 5.66 2.32 6 3 C7.64363134 3.72159424 9.31050386 4.39351421 11 5 C11 5.66 11 6.32 11 7 C13.97 7.495 13.97 7.495 17 8 C16.67 8.99 16.34 9.98 16 11 C14.41416752 10.23432134 12.83143506 9.46222035 11.25 8.6875 C10.36828125 8.25824219 9.4865625 7.82898438 8.578125 7.38671875 C6.16460499 6.08853753 4.06560412 4.80016434 2 3 C2 2.34 2 1.68 2 1 C1.34 0.67 0.68 0.34 0 0 Z " fill="#414D32" transform="translate(162,116)"/>
<path d="M0 0 C2.64 0 5.28 0 8 0 C6.38731308 2.71224618 4.75098126 5.37352812 3 8 C4.32 8.33 5.64 8.66 7 9 C5.35 9 3.7 9 2 9 C1.34 7.68 0.68 6.36 0 5 C0.66 4.01 1.32 3.02 2 2 C1.34 1.34 0.68 0.68 0 0 Z " fill="#4C4D49" transform="translate(144,102)"/>
<path d="M0 0 C0.515625 0.268125 1.03125 0.53625 1.5625 0.8125 C4.66401415 2.32349407 7.82262806 3.65572726 11 5 C11 5.66 11 6.32 11 7 C11.66 7.33 12.32 7.66 13 8 C8.97007218 7.44687265 4.97977076 6.8441938 1 6 C0.67 4.02 0.34 2.04 0 0 Z " fill="#B0E974" transform="translate(185,192)"/>
<path d="M0 0 C2.12508244 3.18762365 2.5020163 5.26512223 3 9 C1.35 9.33 -0.3 9.66 -2 10 C-2.99 8.02 -3.98 6.04 -5 4 C-2.525 4.495 -2.525 4.495 0 5 C0 3.35 0 1.7 0 0 Z " fill="#4F514C" transform="translate(190,94)"/>
<path d="M0 0 C3.49552647 1.11221297 6.74442336 2.31608105 10 4 C10.99 4.33 11.98 4.66 13 5 C14.33333333 6.33333333 15.66666667 7.66666667 17 9 C19.13309192 10.23512079 19.13309192 10.23512079 21 11 C20.01 11.33 19.02 11.66 18 12 C15.38750181 10.67021488 12.97476636 9.30085359 10.5 7.75 C9.82324219 7.34136719 9.14648438 6.93273437 8.44921875 6.51171875 C5.27531353 4.56480648 2.57159024 2.7183705 0 0 Z " fill="#465633" transform="translate(184,130)"/>
<path d="M0 0 C3.84951112 0.69861498 7.52165032 1.69037658 11.25 2.875 C12.30703125 3.20242187 13.3640625 3.52984375 14.453125 3.8671875 C15.71382812 4.42792969 15.71382812 4.42792969 17 5 C17.33 5.99 17.66 6.98 18 8 C11.5811453 6.26375242 5.86215164 4.14819255 0 1 C0 0.67 0 0.34 0 0 Z " fill="#ABD27F" transform="translate(168,136)"/>
<path d="M0 0 C1.32 0.66 2.64 1.32 4 2 C3.25 6.75 3.25 6.75 1 9 C-2.625 9.125 -2.625 9.125 -6 9 C-6.33 7.68 -6.66 6.36 -7 5 C-4.36 5.33 -1.72 5.66 1 6 C0.67 4.02 0.34 2.04 0 0 Z " fill="#3C492E" transform="translate(209,184)"/>
<path d="M0 0 C0.66 0.33 1.32 0.66 2 1 C1.25749403 5.08378283 0.17076699 9.01939223 -1 13 C-1.33 13 -1.66 13 -2 13 C-2.48828125 10.98177083 -2.9765625 8.96354167 -3.46484375 6.9453125 C-3.94846992 4.9414343 -3.94846992 4.9414343 -5 3 C-3.35 3 -1.7 3 0 3 C0 2.01 0 1.02 0 0 Z " fill="#DDE4D4" transform="translate(253,97)"/>
<path d="M0 0 C0.66 0 1.32 0 2 0 C1.814375 0.9075 1.62875 1.815 1.4375 2.75 C1.04265379 5.68314324 1.05308428 7.2644657 2 10 C-0.97 9.505 -0.97 9.505 -4 9 C-2.68 6.03 -1.36 3.06 0 0 Z " fill="#B7E97F" transform="translate(229,202)"/>
<path d="M0 0 C1.625 2.5 1.625 2.5 3 5 C1.35 5.33 -0.3 5.66 -2 6 C-2 5.34 -2 4.68 -2 4 C-3.32 3.67 -4.64 3.34 -6 3 C-6 2.34 -6 1.68 -6 1 C-3.92446352 0.4465236 -2.15634036 0 0 0 Z " fill="#413F45" transform="translate(169,174)"/>
<path d="M0 0 C1.375 2.0625 1.375 2.0625 2 4 C-4.52307692 3.38461538 -4.52307692 3.38461538 -6.9375 1.4375 C-7.288125 0.963125 -7.63875 0.48875 -8 0 C-5.04063954 -1.47968023 -3.13239866 -0.84835797 0 0 Z " fill="#3F4736" transform="translate(188,163)"/>
<path d="M0 0 C3 0.25 3 0.25 5 2.25 C2.13822943 3.68088528 0.06624227 2.84991697 -3 2.25 C-3.33 3.9 -3.66 5.55 -4 7.25 C-4.99 7.25 -5.98 7.25 -7 7.25 C-4.46606335 0.37217195 -4.46606335 0.37217195 0 0 Z " fill="#B0D489" transform="translate(174,148.75)"/>
<path d="M0 0 C3.625 -0.1875 3.625 -0.1875 7 0 C7.33 0.66 7.66 1.32 8 2 C7.0925 1.87625 6.185 1.7525 5.25 1.625 C4.1775 1.74875 3.105 1.8725 2 2 C-0.28239171 4.92321965 -0.28239171 4.92321965 -2 8 C-2.66 8 -3.32 8 -4 8 C-2.87548273 5.0280615 -1.77706209 2.66559313 0 0 Z " fill="#C7F39A" transform="translate(232,178)"/>
<path d="M0 0 C1 3 1 3 0.25 5.125 C-1 7 -1 7 -4 8 C-5.39439664 8.06665376 -6.79169875 8.08538199 -8.1875 8.0625 C-10.0746875 8.0315625 -10.0746875 8.0315625 -12 8 C-12 7.67 -12 7.34 -12 7 C-10.7625 6.773125 -9.525 6.54625 -8.25 6.3125 C-4.07965475 5.2994906 -2.32446864 3.68040867 0 0 Z " fill="#A9CF7F" transform="translate(208,204)"/>
<path d="M0 0 C0.66 0 1.32 0 2 0 C0.63016497 3.16115776 0.0109362 3.9927092 -3 6 C-5.33199388 6.07905064 -7.66832622 6.08798769 -10 6 C-10 5.67 -10 5.34 -10 5 C-8.35 5 -6.7 5 -5 5 C-4.67 3.68 -4.34 2.36 -4 1 C-3.01 1.33 -2.02 1.66 -1 2 C-0.67 1.34 -0.34 0.68 0 0 Z " fill="#3C492C" transform="translate(205,205)"/>
<path d="M0 0 C3.63 1.65 7.26 3.3 11 5 C10.67 5.66 10.34 6.32 10 7 C6.83976631 6.29772585 3.88719595 5.48261414 1 4 C0.67 2.68 0.34 1.36 0 0 Z " fill="#444F36" transform="translate(186,181)"/>
<path d="M0 0 C7.75 1.875 7.75 1.875 10 3 C10.33 3.66 10.66 4.32 11 5 C11.99 5.33 12.98 5.66 14 6 C14 6.66 14 7.32 14 8 C8.76481294 6.56032356 4.36973991 4.18303389 0 1 C0 0.67 0 0.34 0 0 Z " fill="#B3DC84" transform="translate(186,143)"/>
<path d="M0 0 C0.66 0 1.32 0 2 0 C1.44271087 3.34373475 0.64826111 6.03312999 -1 9 C-1.66 9 -2.32 9 -3 9 C-2.25 2.25 -2.25 2.25 0 0 Z " fill="#E5E9DB" transform="translate(197,68)"/>
<path d="M0 0 C4.97306516 0.49730652 8.63799813 1.55302334 13 4 C10.10765685 4.82638376 8.11257569 5 5 5 C4.34 4.01 3.68 3.02 3 2 C2.01 1.34 1.02 0.68 0 0 Z " fill="#444F35" transform="translate(160,170)"/>
<path d="M0 0 C3.93673644 1.31224548 6.22719294 2.91910327 9 6 C4.25 7.125 4.25 7.125 2 6 C2 4.68 2 3.36 2 2 C1.34 2 0.68 2 0 2 C0 1.34 0 0.68 0 0 Z " fill="#DADDD0" transform="translate(151,135)"/>
<path d="M0 0 C2.125 0.9375 2.125 0.9375 4 2 C3.67 3.32 3.34 4.64 3 6 C0.525 5.01 0.525 5.01 -2 4 C-2 3.01 -2 2.02 -2 1 C-1.34 0.67 -0.68 0.34 0 0 Z " fill="#E5EAD7" transform="translate(194,122)"/>
<path d="M0 0 C0.99 0.99 1.98 1.98 3 3 C2.67 3.99 2.34 4.98 2 6 C1.01 6.33 0.02 6.66 -1 7 C-1.66 5.35 -2.32 3.7 -3 2 C-2.01 1.34 -1.02 0.68 0 0 Z " fill="#DBDED1" transform="translate(156,208)"/>
<path d="M0 0 C0 0.99 0 1.98 0 3 C-5.34883721 8 -5.34883721 8 -8 8 C-7.875 6.1875 -7.875 6.1875 -7 4 C-4 2.3125 -4 2.3125 -1 1 C-0.67 0.67 -0.34 0.34 0 0 Z " fill="#B2D68C" transform="translate(217,195)"/>
<path d="M0 0 C1.32 0.99 2.64 1.98 4 3 C3.34 4.65 2.68 6.3 2 8 C0.68 7.34 -0.64 6.68 -2 6 C-1.34 4.02 -0.68 2.04 0 0 Z " fill="#ABDD78" transform="translate(218,192)"/>
<path d="M0 0 C0.66 0.66 1.32 1.32 2 2 C0.35 2.33 -1.3 2.66 -3 3 C-3 3.66 -3 4.32 -3 5 C-5.97 4.505 -5.97 4.505 -9 4 C-6.06279492 2.47700477 -3.0831351 1.19899698 0 0 Z " fill="#3B452E" transform="translate(212,138)"/>
<path d="M0 0 C2.69725519 1.88807863 4.13216429 3.19824644 6 6 C4.02 6.33 2.04 6.66 0 7 C0 4.69 0 2.38 0 0 Z " fill="#3D3E3D" transform="translate(245,188)"/>
<path d="M0 0 C2.97 0.495 2.97 0.495 6 1 C6.33 2.32 6.66 3.64 7 5 C4.625 4.75 4.625 4.75 2 4 C0.6875 1.9375 0.6875 1.9375 0 0 Z " fill="#AEE96E" transform="translate(202,166)"/>
<path d="M0 0 C0.88492145 2.47778006 1.11637742 3.66056586 0.25 6.1875 C-1 8 -1 8 -4 9 C-2.94124926 5.59687262 -1.99097846 2.98646769 0 0 Z " fill="#455531" transform="translate(244,189)"/>
<path d="M0 0 C1.1875 1.6875 1.1875 1.6875 2 4 C0.75 6.75 0.75 6.75 -1 9 C-1.66 9 -2.32 9 -3 9 C-3.33 9.66 -3.66 10.32 -4 11 C-3.42655063 8.13275314 -3.1385485 7.1385485 -1 5 C-0.35232207 2.42938689 -0.35232207 2.42938689 0 0 Z " fill="#BBE884" transform="translate(240,181)"/>
<path d="M0 0 C1.65 0.33 3.3 0.66 5 1 C5 1.66 5 2.32 5 3 C6.32 3.33 7.64 3.66 9 4 C4.82412255 5.39195915 2.86525224 3.82323219 -1 2 C-0.67 1.34 -0.34 0.68 0 0 Z " fill="#444E37" transform="translate(162,177)"/>
<path d="M0 0 C2.31 0.33 4.62 0.66 7 1 C7 1.66 7 2.32 7 3 C4.69 3.33 2.38 3.66 0 4 C0 4.66 0 5.32 0 6 C-0.66 5.67 -1.32 5.34 -2 5 C-1.34 3.35 -0.68 1.7 0 0 Z " fill="#485240" transform="translate(209,175)"/>
<path d="M0 0 C3.93673644 1.31224548 6.22719294 2.91910327 9 6 C5.21213403 5.4739075 2.82847776 4.61896089 0 2 C0 1.34 0 0.68 0 0 Z " fill="#B0D787" transform="translate(165,120)"/>
<path d="M0 0 C0.99 0 1.98 0 3 0 C3.33 1.98 3.66 3.96 4 6 C2.02 5.34 0.04 4.68 -2 4 C-1.34 2.68 -0.68 1.36 0 0 Z " fill="#3E3F3E" transform="translate(187,94)"/>
<path d="M0 0 C0.99 0 1.98 0 3 0 C3.625 1.875 3.625 1.875 4 4 C3.34 4.66 2.68 5.32 2 6 C1.01 5.01 0.02 4.02 -1 3 C-0.67 2.01 -0.34 1.02 0 0 Z " fill="#4F4F4E" transform="translate(167,222)"/>
<path d="M0 0 C2 2 2 2 2.125 4.625 C2.08375 5.40875 2.0425 6.1925 2 7 C1.01 7 0.02 7 -1 7 C-1.04254356 5.00045254 -1.04080783 2.99958364 -1 1 C-0.67 0.67 -0.34 0.34 0 0 Z " fill="#C6F299" transform="translate(214,209)"/>
<path d="M0 0 C0.99 0.33 1.98 0.66 3 1 C2.67 2.65 2.34 4.3 2 6 C0.35 6 -1.3 6 -3 6 C-1.68 5.34 -0.36 4.68 1 4 C0.67 2.68 0.34 1.36 0 0 Z " fill="#AACD84" transform="translate(208,185)"/>
<path d="M0 0 C0.33 0.99 0.66 1.98 1 3 C-0.98 3.66 -2.96 4.32 -5 5 C-5.33 4.01 -5.66 3.02 -6 2 C-4.02 1.34 -2.04 0.68 0 0 Z " fill="#454545" transform="translate(198,169)"/>
<path d="M0 0 C0.598125 0.763125 1.19625 1.52625 1.8125 2.3125 C3.46959332 4.3483575 5.10297674 6.1978279 7 8 C3 8 3 8 1.25 6.8125 C-0.38540232 4.44116664 -0.22858693 2.81923877 0 0 Z " fill="#444F35" transform="translate(143,115)"/>
<path d="M0 0 C1.125 3.75 1.125 3.75 0 6 C-1.32 5.67 -2.64 5.34 -4 5 C-3 2 -3 2 0 0 Z " fill="#56594B" transform="translate(203,94)"/>
<path d="M0 0 C2.475 0.495 2.475 0.495 5 1 C5 2.98 5 4.96 5 7 C4.34 7 3.68 7 3 7 C2.690625 6.21625 2.38125 5.4325 2.0625 4.625 C1.07124962 2.07669872 1.07124962 2.07669872 0 0 Z " fill="#4A593A" transform="translate(213,169)"/>
<path d="M0 0 C1.32 0 2.64 0 4 0 C4.33 0.66 4.66 1.32 5 2 C7.01669827 3.13350534 7.01669827 3.13350534 9 4 C9 4.66 9 5.32 9 6 C5.06326356 4.68775452 2.77280706 3.08089673 0 0 Z " fill="#B1D783" transform="translate(204,153)"/>
<path d="M0 0 C1.32 0.99 2.64 1.98 4 3 C3.67 4.32 3.34 5.64 3 7 C1.5 5.75 1.5 5.75 0 4 C0 2.68 0 1.36 0 0 Z " fill="#D8DDCD" transform="translate(143,128)"/>
<path d="M0 0 C1.98 0 3.96 0 6 0 C5.34 1.65 4.68 3.3 4 5 C2.68 3.35 1.36 1.7 0 0 Z " fill="#ACC989" transform="translate(237,107)"/>
</svg>
