<?xml version="1.0" encoding="UTF-8"?>
<svg version="1.1" xmlns="http://www.w3.org/2000/svg" width="736" height="552">
<path d="M0 0 C242.88 0 485.76 0 736 0 C736 182.16 736 364.32 736 552 C493.12 552 250.24 552 0 552 C0 369.84 0 187.68 0 0 Z " fill="#E7E7E7" transform="translate(0,0)"/>
<path d="M0 0 C7.05880258 6.19488943 13.02237361 12.39695161 17.3046875 20.796875 C17.3046875 21.456875 17.3046875 22.116875 17.3046875 22.796875 C17.9646875 22.796875 18.6246875 22.796875 19.3046875 22.796875 C19.55863281 23.498125 19.81257812 24.199375 20.07421875 24.921875 C20.41839844 25.870625 20.76257813 26.819375 21.1171875 27.796875 C21.48070312 28.80363281 21.84421875 29.81039062 22.21875 30.84765625 C23.10226179 33.24712172 24.03628903 35.61355752 24.9921875 37.984375 C30.92290012 54.06820976 27.33959601 74.81624543 21.07421875 90.1484375 C12.48018843 108.66108264 -0.27378855 124.61341814 -13.6953125 139.796875 C-14.14632324 140.30718262 -14.59733398 140.81749023 -15.06201172 141.34326172 C-25.22638239 152.77393886 -35.94205203 163.98759487 -47.6953125 173.796875 C-48.62085938 174.59996094 -49.54640625 175.40304687 -50.5 176.23046875 C-81.21185956 202.796875 -81.21185956 202.796875 -88.6953125 202.796875 C-88.6953125 203.456875 -88.6953125 204.116875 -88.6953125 204.796875 C-96.05071254 208.30242736 -102.63732831 210.30268369 -110.73828125 208.2890625 C-114.92712309 206.73499325 -117.50207325 204.65697608 -119.6953125 200.796875 C-120.2578125 197.359375 -120.2578125 197.359375 -119.6953125 193.796875 C-116.43997152 189.36533418 -112.82206043 186.10152971 -108.3828125 182.859375 C-107.22113232 181.98900946 -106.06097053 181.11661359 -104.90234375 180.2421875 C-104.34756348 179.82356445 -103.7927832 179.40494141 -103.22119141 178.97363281 C-100.60923512 176.95929213 -98.16642475 174.77024854 -95.71484375 172.56640625 C-93.28855337 170.44046903 -90.77574166 168.43830789 -88.2578125 166.421875 C-83.91167658 162.8921403 -79.92602446 159.17850154 -76.05859375 155.1328125 C-74.1462051 153.24255066 -72.21294703 151.49907111 -70.17578125 149.75 C-65.01479574 145.26861335 -60.12449898 140.51956599 -55.26513672 135.71679688 C-54.20950763 134.67791338 -53.1485192 133.6444504 -52.08251953 132.61621094 C-50.52455195 131.11285057 -48.98354556 129.59382758 -47.4453125 128.0703125 C-46.53265625 127.17747559 -45.62 126.28463867 -44.6796875 125.36474609 C-42.46179991 122.95958985 -42.46179991 122.95958985 -42.3984375 119.96728516 C-42.49640625 119.2510498 -42.594375 118.53481445 -42.6953125 117.796875 C-45.67730493 117.32056477 -47.82325915 117.19887254 -50.38006592 118.95217896 C-52.25800031 120.68138758 -54.02488671 122.4793687 -55.78125 124.33203125 C-56.44186432 125.00350693 -57.10247864 125.6749826 -57.78311157 126.36680603 C-59.89344091 128.51728453 -61.982255 130.68728475 -64.0703125 132.859375 C-66.15530492 135.00212278 -68.24456184 137.14059465 -70.33609009 139.27696228 C-71.63427653 140.60580421 -72.92803521 141.93899258 -74.21640015 143.27735901 C-77.9440975 147.12570889 -81.80094321 150.72399741 -85.88027954 154.19847107 C-87.67983868 155.78324803 -89.34822729 157.44213732 -91.0078125 159.171875 C-94.70110901 162.93232235 -98.76020999 166.16833153 -102.86328125 169.46875 C-105.59317075 171.71290744 -108.21277579 174.03737798 -110.8203125 176.421875 C-124.92345395 189.22249702 -124.92345395 189.22249702 -136.09375 189.07421875 C-140.21141833 188.6352481 -143.39709825 187.28767422 -146.6953125 184.796875 C-150.20890417 180.38236239 -151.83881753 176.85065171 -151.8203125 171.234375 C-151.82289063 170.44933594 -151.82546875 169.66429687 -151.828125 168.85546875 C-151.6953125 166.796875 -151.6953125 166.796875 -150.6953125 164.796875 C-150.0353125 164.796875 -149.3753125 164.796875 -148.6953125 164.796875 C-148.43685547 164.20068359 -148.17839844 163.60449219 -147.91210938 162.99023438 C-146.59162708 160.60997496 -145.3273889 159.41370501 -143.2265625 157.703125 C-137.9098924 153.20218948 -133.08278448 148.25446853 -128.1953125 143.296875 C-118.17796221 133.13580376 -118.17796221 133.13580376 -113.76953125 129.3671875 C-108.21971058 124.61340738 -103.14944679 119.35693664 -98.0078125 114.171875 C-96.97875297 113.13778459 -95.94945743 112.10392898 -94.91992188 111.0703125 C-93.02758855 109.16989643 -91.1369004 107.267899 -89.24731445 105.36474609 C-87.49913495 103.60569586 -85.74792242 101.84965618 -83.99414062 100.09619141 C-81.92248558 98.02409633 -79.87288658 95.947369 -77.8828125 93.796875 C-76.97595703 92.8378125 -76.97595703 92.8378125 -76.05078125 91.859375 C-74.38955592 89.33163156 -74.43263279 87.76361056 -74.6953125 84.796875 C-78.75972647 84.28041204 -80.29225597 84.49244975 -83.61633301 87.00309753 C-84.65871941 88.03118756 -85.68474832 89.07602555 -86.69726562 90.13354492 C-87.26396469 90.70097412 -87.83066376 91.26840332 -88.41453552 91.85302734 C-90.28298645 93.73074894 -92.12938679 95.62870893 -93.9765625 97.52734375 C-95.27501673 98.83953824 -96.57488418 100.15033568 -97.87609863 101.45979309 C-101.29990201 104.91216801 -104.7057603 108.3817129 -108.10772705 111.85559082 C-112.23132892 116.06057243 -116.3737601 120.24698525 -120.51540375 124.43418598 C-123.74088358 127.69530681 -126.96281088 130.95966086 -130.1739502 134.23490906 C-130.76865616 134.83956497 -131.36336212 135.44422089 -131.97608948 136.06719971 C-133.07664164 137.18618518 -134.1752071 138.30713019 -135.27122498 139.43055725 C-138.58206745 142.79010193 -142.0487014 145.80528267 -145.6953125 148.796875 C-146.901875 150.0034375 -146.901875 150.0034375 -148.1328125 151.234375 C-157.82279125 160.92435375 -157.82279125 160.92435375 -164.8828125 161.109375 C-170.43520292 161.05123479 -173.27397833 160.13543345 -177.6953125 156.796875 C-181.92143563 152.45653233 -183.5159225 148.30833502 -183.9453125 142.296875 C-183.69555785 138.80030985 -182.96498267 136.0504048 -181.6953125 132.796875 C-181.0353125 132.796875 -180.3753125 132.796875 -179.6953125 132.796875 C-179.355 131.9925 -179.355 131.9925 -179.0078125 131.171875 C-177.23961161 127.97227339 -175.15861047 125.50650277 -172.6953125 122.796875 C-172.0353125 122.796875 -171.3753125 122.796875 -170.6953125 122.796875 C-170.35113281 121.95962891 -170.35113281 121.95962891 -170 121.10546875 C-168.34155729 118.17091892 -166.24639728 116.19547147 -163.8203125 113.859375 C-161.18578705 111.31528848 -158.75324199 108.87119379 -156.5 105.98046875 C-155.90445312 105.25988281 -155.30890625 104.53929687 -154.6953125 103.796875 C-154.0353125 103.796875 -153.3753125 103.796875 -152.6953125 103.796875 C-152.4381546 103.21440002 -152.1809967 102.63192505 -151.91604614 102.03179932 C-150.58581499 99.59640649 -149.13029389 97.99105233 -147.16357422 96.03808594 C-146.44297821 95.31764099 -145.7223822 94.59719604 -144.97994995 93.85491943 C-144.20281647 93.08810852 -143.42568298 92.32129761 -142.625 91.53125 C-141.82877228 90.73785217 -141.03254456 89.94445435 -140.21218872 89.12701416 C-137.66955302 86.59556797 -135.12004902 84.07116697 -132.5703125 81.546875 C-130.84459497 79.83118883 -129.11932895 78.11504838 -127.39453125 76.3984375 C-123.16668218 72.19263252 -118.93317381 67.99258993 -114.6953125 63.796875 C-113.7723085 64.4179438 -113.7723085 64.4179438 -112.83065796 65.05155945 C-112.02206329 65.59359512 -111.21346863 66.1356308 -110.38037109 66.6940918 C-109.1789296 67.5007856 -109.1789296 67.5007856 -107.95321655 68.32377625 C-105.48246304 69.93574196 -102.97553762 71.32472725 -100.3203125 72.609375 C-99.50820313 73.00769531 -98.69609375 73.40601563 -97.859375 73.81640625 C-91.2936686 76.79112161 -83.73580531 76.84642428 -76.79296875 75.04296875 C-68.15139717 71.72928341 -62.086652 66.49709402 -57.8828125 58.234375 C-55.55328242 51.24578476 -55.46834869 43.00275842 -58.1328125 36.109375 C-63.17908887 26.52319601 -71.65243387 19.98306056 -80.09765625 13.55859375 C-83.67201546 10.83928874 -87.1317288 7.99759857 -90.5703125 5.109375 C-91.55773437 4.28050781 -92.54515625 3.45164063 -93.5625 2.59765625 C-94.26632812 2.00339844 -94.97015625 1.40914062 -95.6953125 0.796875 C-70.64970316 -25.26112277 -26.46175462 -21.62960812 0 0 Z " fill="#D25F60" transform="translate(466.6953125,187.203125)"/>
<path d="M0 0 C2.78045907 2.26009383 5.50866838 4.57276264 8.234375 6.8984375 C10.06161008 8.38513085 11.89466784 9.8647058 13.734375 11.3359375 C14.5284375 11.97402344 15.3225 12.61210937 16.140625 13.26953125 C17.78605345 14.54965002 19.49976687 15.74203208 21.234375 16.8984375 C21.234375 17.5584375 21.234375 18.2184375 21.234375 18.8984375 C21.79382813 19.13949219 22.35328125 19.38054687 22.9296875 19.62890625 C25.71591354 21.16369178 27.77701915 23.04933044 30.109375 25.2109375 C32.9392793 27.81929833 35.7549754 30.35401771 38.796875 32.7109375 C41.1858656 34.85490343 42.00070366 35.74387436 42.234375 38.8984375 C42.894375 38.8984375 43.554375 38.8984375 44.234375 38.8984375 C46.63497488 44.44982472 47.27221788 49.96101076 46.234375 55.8984375 C42.99584582 62.84798643 38.1538773 67.6643223 31.234375 70.8984375 C25.21440504 72.90509415 19.0360357 73.05434279 13.12890625 70.6171875 C4.16140308 65.51278725 -3.98252523 59.33907731 -10.5703125 51.3828125 C-14.37172483 47.08085833 -18.51634329 43.10960681 -22.61206055 39.08959961 C-23.24668213 38.4631958 -23.88130371 37.83679199 -24.53515625 37.19140625 C-25.39524292 36.34872192 -25.39524292 36.34872192 -26.27270508 35.48901367 C-27.765625 33.8984375 -27.765625 33.8984375 -29.765625 30.8984375 C-33.07535498 28.6525493 -35.83064909 28.54648934 -39.765625 28.8984375 C-42.18737298 30.37424153 -42.18737298 30.37424153 -44.328125 32.5859375 C-45.60816406 33.81183594 -45.60816406 33.81183594 -46.9140625 35.0625 C-47.86533818 36.00705289 -48.81581333 36.95241246 -49.765625 37.8984375 C-50.86159085 38.96914762 -51.95796071 40.03944432 -53.0546875 41.109375 C-59.51410263 47.45447243 -65.68539017 53.94522219 -71.4453125 60.9375 C-71.98414063 61.58460938 -72.52296875 62.23171875 -73.078125 62.8984375 C-73.54863281 63.4759375 -74.01914062 64.0534375 -74.50390625 64.6484375 C-75.765625 65.8984375 -75.765625 65.8984375 -77.765625 65.8984375 C-78.03246094 66.49527344 -78.29929687 67.09210938 -78.57421875 67.70703125 C-79.79049432 69.94418074 -80.96919759 71.24263817 -82.828125 72.9609375 C-86.7968801 76.80541008 -90.22096876 81.0058532 -93.6796875 85.30859375 C-95.34190532 87.37235857 -97.03495854 89.3926651 -98.765625 91.3984375 C-100.92613106 93.80378008 -100.92613106 93.80378008 -101.765625 96.8984375 C-102.425625 96.8984375 -103.085625 96.8984375 -103.765625 96.8984375 C-104.84087694 99.55072562 -105.86018651 102.18212204 -106.765625 104.8984375 C-107.425625 104.8984375 -108.085625 104.8984375 -108.765625 104.8984375 C-113.07323312 99.50095263 -115.66465928 93.05283612 -118.078125 86.6484375 C-118.33239258 85.97554688 -118.58666016 85.30265625 -118.84863281 84.609375 C-124.85475286 68.070073 -124.13198578 45.9404624 -116.765625 29.8984375 C-107.50806354 11.0504072 -92.60486723 -3.48699531 -72.765625 -10.8515625 C-48.82818178 -18.87370134 -20.44670678 -15.53718679 0 0 Z " fill="#D16061" transform="translate(357.765625,185.1015625)"/>
<path d="M0 0 C2.23828125 1.55859375 2.23828125 1.55859375 4.3125 3.4375 C5.00988281 4.05496094 5.70726562 4.67242187 6.42578125 5.30859375 C8 7 8 7 8 9 C8.99 9.33 9.98 9.66 11 10 C15.01544845 13.68987155 18.5014533 17.82819346 22 22 C20.54782324 23.50596108 19.08807139 25.00462104 17.625 26.5 C16.81289063 27.3353125 16.00078125 28.170625 15.1640625 29.03125 C13 31 13 31 11 31 C11 31.66 11 32.32 11 33 C9.125 35.125 9.125 35.125 7 37 C6.34 37 5.68 37 5 37 C4.79060791 37.53608887 4.58121582 38.07217773 4.36547852 38.62451172 C2.4699875 41.92204928 -0.14763885 44.37324428 -2.84765625 47.0078125 C-3.41955185 47.57450653 -3.99144745 48.14120056 -4.58067322 48.72506714 C-6.40325225 50.52987272 -8.23239074 52.32783318 -10.0625 54.125 C-11.89528621 55.93017315 -13.72659529 57.73678389 -15.55503845 59.5463562 C-16.69192031 60.67097536 -17.83146458 61.79291063 -18.97389221 62.91189575 C-21.84743614 65.68030188 -21.84743614 65.68030188 -24 69 C-24.66 69 -25.32 69 -26 69 C-26 69.66 -26 70.32 -26 71 C-26.66 71 -27.32 71 -28 71 C-28.26192139 71.58193115 -28.52384277 72.1638623 -28.79370117 72.76342773 C-30.94084126 76.7443932 -34.22460495 79.79209828 -37.3125 83.0625 C-37.97701172 83.78244141 -38.64152344 84.50238281 -39.32617188 85.24414062 C-47.21126892 93.64399178 -47.21126892 93.64399178 -52.9375 94.375 C-57.69734658 93.79216164 -61.06332907 91.62444729 -65 89 C-65.6875 85.875 -65.6875 85.875 -66 83 C-66.66 83 -67.32 83 -68 83 C-68.10883596 80.62374823 -68.18766696 78.25256024 -68.25 75.875 C-68.28351563 75.20984375 -68.31703125 74.5446875 -68.3515625 73.859375 C-68.45343308 68.66397541 -67.18412583 66.02030496 -64 62 C-63.32582031 61.12859375 -62.65164063 60.2571875 -61.95703125 59.359375 C-57.46108401 53.88889639 -52.83949323 48.58120562 -48.06640625 43.3515625 C-45.68941955 40.64656062 -43.55382541 37.83121455 -41.484375 34.88671875 C-39.51420025 32.38252295 -37.26312245 30.24468002 -35 28 C-33.96376456 26.96014136 -32.9284055 25.91940888 -31.89379883 24.87792969 C-28.85480622 21.82122337 -25.81283525 18.76750074 -22.76977539 15.71484375 C-21.45866895 14.39866754 -20.14845542 13.0816013 -18.83911133 11.76367188 C-16.94325097 9.85573296 -15.04422383 7.95099731 -13.14453125 6.046875 C-12.55807327 5.45525574 -11.9716153 4.86363647 -11.36738586 4.25408936 C-5.49800587 -1.61610512 -5.49800587 -1.61610512 0 0 Z " fill="#D16061" transform="translate(325,223)"/>
<path d="M0 0 C1.65 0 3.3 0 5 0 C4.278125 0.556875 3.55625 1.11375 2.8125 1.6875 C0.0246239 3.97975368 -2.46689119 6.43283259 -5 9 C-3.5003462 10.22958903 -2.00024033 11.45862667 -0.5 12.6875 C0.99466797 13.91533203 0.99466797 13.91533203 2.51953125 15.16796875 C4.99807903 17.19508478 7.49904598 19.19114693 10.01171875 21.17578125 C32.83967551 39.28228238 32.83967551 39.28228238 34.375 52.140625 C34.75840162 62.44454349 32.0403579 69.64860539 25.0703125 77.20703125 C17.93495026 83.38652421 9.76669886 85.43210544 0.55078125 85.33984375 C-9.17119784 84.4093573 -16.81349574 79.29726509 -24 73 C-28.96563921 77.16480663 -33.64481223 81.49706631 -38.21875 86.0859375 C-39.21110657 87.07685898 -39.21110657 87.07685898 -40.22351074 88.08779907 C-41.61296345 89.47657561 -43.00117156 90.86659838 -44.38818359 92.2578125 C-46.49075281 94.36572929 -48.59859604 96.468265 -50.70703125 98.5703125 C-52.0654248 99.9293671 -53.42350798 101.288732 -54.78125 102.6484375 C-55.71124817 103.57539932 -55.71124817 103.57539932 -56.66003418 104.52108765 C-60.40726091 108.2880825 -63.96419274 112.1713025 -67.42422485 116.20404053 C-70.23253944 119.40476317 -73.29347585 122.33553766 -76.34375 125.3046875 C-79.01324685 127.89136573 -79.01324685 127.89136573 -81 131 C-81.66 131 -82.32 131 -83 131 C-83.3403125 131.804375 -83.3403125 131.804375 -83.6875 132.625 C-85.43382056 135.78500863 -87.6402849 138.2676983 -90 141 C-90.33 139.68 -90.66 138.36 -91 137 C-90.34 137 -89.68 137 -89 137 C-89 136.34 -89 135.68 -89 135 C-91.62314702 135.50445135 -93.39605255 136.22502986 -95.75 137.5625 C-99.84900305 139.37552058 -102.55868083 139.22972341 -107 139 C-107 138.67 -107 138.34 -107 138 C-105.576875 137.7834375 -105.576875 137.7834375 -104.125 137.5625 C-94.69666067 134.84424894 -87.03272252 124.26949934 -81 117 C-80.67 116.34 -80.34 115.68 -80 115 C-79.34 115 -78.68 115 -78 115 C-78 114.34 -78 113.68 -78 113 C-77.34 113 -76.68 113 -76 113 C-75.78770752 112.46101074 -75.57541504 111.92202148 -75.35668945 111.36669922 C-73.49837278 108.12492815 -70.94584601 105.71989641 -68.29296875 103.1328125 C-67.73055984 102.57560516 -67.16815094 102.01839783 -66.58869934 101.44430542 C-64.79299721 99.66637236 -62.99076062 97.89526387 -61.1875 96.125 C-59.39579525 94.36106052 -57.60562465 92.59563291 -55.81843567 90.82711792 C-54.70820734 89.7289847 -53.595318 88.63353272 -52.47929382 87.54129028 C-49.90644517 85.00115107 -47.50521798 82.43991815 -45.2434082 79.61669922 C-44.5030835 78.75318848 -43.76275879 77.88967773 -43 77 C-42.34 77 -41.68 77 -41 77 C-41 76.34 -41 75.68 -41 75 C-39.3203125 73.37890625 -39.3203125 73.37890625 -37.125 71.5625 C-34.53806278 69.41599116 -32.88815626 67.83223438 -31 65 C-34.26061427 61.65256464 -37.49923973 58.33037231 -41.125 55.375 C-44.72607226 52.40020118 -47.98373512 49.24574404 -50.9375 45.625 C-52.91796837 43.71689395 -52.91796837 43.71689395 -55.71606445 44.01831055 C-60.18076441 45.35297403 -62.42619144 47.7767727 -65.60546875 51.08203125 C-66.2113533 51.69261887 -66.81723785 52.30320648 -67.44148254 52.93229675 C-69.36883286 54.88093655 -71.27785335 56.84652443 -73.1875 58.8125 C-74.4826215 60.12413637 -75.77883476 61.43469568 -77.07617188 62.74414062 C-83.2349523 68.79962222 -83.2349523 68.79962222 -88.76293945 75.4050293 C-89.17116943 75.93136963 -89.57939941 76.45770996 -90 77 C-90.66 77 -91.32 77 -92 77 C-92.23847656 77.55945313 -92.47695313 78.11890625 -92.72265625 78.6953125 C-94.28591515 81.51587137 -96.21581151 83.53600635 -98.4375 85.875 C-102.45110415 90.21481871 -106.22833986 94.6604841 -109.875 99.3125 C-110.32673584 99.88661621 -110.77847168 100.46073242 -111.24389648 101.05224609 C-112.51535132 102.68768419 -113.75873047 104.34159911 -115 106 C-115.75023437 106.96550781 -116.50046875 107.93101562 -117.2734375 108.92578125 C-119.33618595 112.59859353 -119.66227218 115.75976749 -119.75 119.875 C-119.77964844 120.56335938 -119.80929687 121.25171875 -119.83984375 121.9609375 C-119.90980536 123.64001626 -119.95725211 125.32000812 -120 127 C-119.34 127 -118.68 127 -118 127 C-117.87625 128.423125 -117.87625 128.423125 -117.75 129.875 C-117.34925077 133.10461791 -117.34925077 133.10461791 -114.9375 134.375 C-114.298125 134.58125 -113.65875 134.7875 -113 135 C-113.99 135.99 -113.99 135.99 -115 137 C-115 136.34 -115 135.68 -115 135 C-115.99 134.67 -116.98 134.34 -118 134 C-122.32861303 127.28150484 -123.76934905 120.88155356 -123 113 C-123.99 113 -124.98 113 -126 113 C-125.25 106.375 -125.25 106.375 -123 103 C-122.34 103 -121.68 103 -121 103 C-120.9071875 102.19949219 -120.9071875 102.19949219 -120.8125 101.3828125 C-119.64060882 97.94601626 -117.35976232 95.55974298 -115 92.875 C-114.50306641 92.29951416 -114.00613281 91.72402832 -113.49414062 91.13110352 C-109.0673079 86.02338311 -104.56052552 80.98856119 -100 76 C-99.18273437 75.10152344 -98.36546875 74.20304687 -97.5234375 73.27734375 C-87.60200045 62.40473648 -77.63252819 51.56067282 -67.25 41.125 C-66.76088135 40.63128906 -66.2717627 40.13757813 -65.76782227 39.62890625 C-60.28610221 34.1714803 -60.28610221 34.1714803 -56.1875 33.625 C-49.70511344 34.38763371 -46.28788313 38.66204368 -42.32421875 43.3828125 C-37.38322072 48.94662541 -31.98297302 54.09367552 -26.69140625 59.32177734 C-25.20800763 60.79361367 -23.7394693 62.2803958 -22.2734375 63.76953125 C-19.08409347 66.89859558 -15.66832873 69.46141019 -12 72 C-11.3090625 72.49242187 -10.618125 72.98484375 -9.90625 73.4921875 C-3.79254578 77.4129326 1.84208516 78.08924791 9 77 C11.30397402 76.1729324 13.28340922 75.22995447 15.37890625 73.97265625 C17 73 17 73 20 72 C21.00916033 70.23408113 21.00916033 70.23408113 22 68 C22.70125 67.154375 23.4025 66.30875 24.125 65.4375 C27.53649943 59.18308438 26.47375401 51.81611232 25 45 C24.34 45 23.68 45 23 45 C22.505 44.195625 22.01 43.39125 21.5 42.5625 C17.47782353 36.20535216 11.01111932 31.28654955 4.875 27.0625 C3.92625 26.381875 2.9775 25.70125 2 25 C2 24.34 2 23.68 2 23 C1.43796875 22.74476563 0.8759375 22.48953125 0.296875 22.2265625 C-2.29386482 20.84307219 -4.45107845 19.20061417 -6.75 17.375 C-7.54921875 16.74335938 -8.3484375 16.11171875 -9.171875 15.4609375 C-9.77515625 14.97882813 -10.3784375 14.49671875 -11 14 C-10.01 13.34 -9.02 12.68 -8 12 C-7.26393501 8.43230448 -7.26393501 8.43230448 -7 5 C-6.01 4.67 -5.02 4.34 -4 4 C-3.67 3.01 -3.34 2.02 -3 1 C-2.01 1 -1.02 1 0 1 C0 0.67 0 0.34 0 0 Z " fill="#EDE2E0" transform="translate(377,179)"/>
<path d="M0 0 C1.31733627 0.39106934 1.31733627 0.39106934 2.6612854 0.79003906 C3.3644104 3.03222656 3.3644104 3.03222656 3.6612854 5.79003906 C2.3331604 7.92285156 2.3331604 7.92285156 0.4112854 9.91503906 C-0.21262085 10.57761719 -0.8365271 11.24019531 -1.4793396 11.92285156 C-2.09293335 12.53902344 -2.7065271 13.15519531 -3.3387146 13.79003906 C-4.13535522 14.65242188 -4.13535522 14.65242188 -4.9480896 15.53222656 C-6.3387146 16.79003906 -6.3387146 16.79003906 -8.3387146 16.79003906 C-8.54415894 17.32072998 -8.74960327 17.8514209 -8.96127319 18.39819336 C-10.91237008 21.78615795 -13.61728159 24.33344911 -16.3777771 27.05957031 C-17.27730606 27.95841194 -17.27730606 27.95841194 -18.19500732 28.87541199 C-19.4653175 30.14270444 -20.7380539 31.40756889 -22.01303101 32.67016602 C-23.9411005 34.58013724 -25.86120492 36.49782942 -27.78012085 38.41699219 C-33.18136052 43.8021735 -38.57769087 49.11533716 -44.38900757 54.06079102 C-48.81869408 57.98960013 -52.92274968 62.27348867 -57.0887146 66.47753906 C-58.02988283 67.42373941 -58.97128787 68.36970429 -59.91293335 69.31542969 C-61.63773207 71.04888952 -63.36149463 72.78338148 -65.08383179 74.51928711 C-65.82794312 75.26863525 -66.57205444 76.0179834 -67.3387146 76.79003906 C-68.05446655 77.54776611 -68.77021851 78.30549316 -69.50765991 79.08618164 C-71.3387146 80.79003906 -71.3387146 80.79003906 -73.3387146 80.79003906 C-73.73542191 89.04742829 -72.98075347 93.82698076 -68.3387146 100.79003906 C-61.75367122 104.83086114 -54.85685326 104.07157824 -47.3387146 103.79003906 C-47.3387146 104.45003906 -47.3387146 105.11003906 -47.3387146 105.79003906 C-49.8602167 105.87176842 -52.37901377 105.93087279 -54.9012146 105.97753906 C-55.60568726 106.00267578 -56.31015991 106.0278125 -57.03598022 106.05371094 C-62.21874775 106.1253621 -65.70135642 105.11176504 -70.3387146 102.79003906 C-70.3387146 102.13003906 -70.3387146 101.47003906 -70.3387146 100.79003906 C-71.3287146 100.79003906 -72.3187146 100.79003906 -73.3387146 100.79003906 C-75.49629733 95.54048739 -75.57913671 90.98193622 -75.4637146 85.41503906 C-75.45469116 84.58359375 -75.44566772 83.75214844 -75.43637085 82.89550781 C-75.4129768 80.86022569 -75.37711185 78.82509342 -75.3387146 76.79003906 C-75.9987146 76.46003906 -76.6587146 76.13003906 -77.3387146 75.79003906 C-77.3387146 72.79003906 -77.3387146 72.79003906 -76.0184021 71.43066406 C-75.12508179 70.74230469 -75.12508179 70.74230469 -74.2137146 70.04003906 C-71.65662398 67.96464488 -69.48270072 65.90422314 -67.4012146 63.35253906 C-65.39324142 60.91609537 -63.331909 58.85550641 -60.90756226 56.83691406 C-55.60049879 52.24945499 -50.75384668 47.22181603 -45.86088181 42.20397949 C-42.94736998 39.22099053 -40.01649618 36.25510523 -37.0887146 33.28613281 C-33.38145376 29.52480604 -29.67963993 25.7585408 -25.99594116 21.97412109 C-22.99981155 18.89698341 -19.98696689 15.83713737 -16.96211624 12.78823853 C-15.81632964 11.62701814 -14.67686156 10.45952757 -13.54395676 9.28573608 C-11.96448859 7.65086086 -10.36459761 6.03897171 -8.75814819 4.43066406 C-7.85406219 3.50801758 -6.9499762 2.58537109 -6.01849365 1.63476562 C-3.3387146 -0.20996094 -3.3387146 -0.20996094 0 0 Z " fill="#EDDDDA" transform="translate(389.3387145996094,271.2099609375)"/>
<path d="M0 0 C2.70166016 0.38891602 2.70166016 0.38891602 3.70166016 1.38891602 C4.15673828 3.52612305 4.15673828 3.52612305 3.70166016 6.38891602 C1.88558041 8.93236337 -0.33455398 11.0292081 -2.57958984 13.19360352 C-3.2264978 13.83580841 -3.87340576 14.47801331 -4.53991699 15.13967896 C-6.61463748 17.19305394 -8.70630429 19.22820079 -10.79833984 21.26391602 C-12.17703301 22.62609595 -13.55464978 23.98936624 -14.93115234 25.35375977 C-20.66025777 31.0071845 -26.41033656 36.56670835 -32.504776 41.82852173 C-35.14015388 44.12129129 -37.68145669 46.50622666 -40.23583984 48.88891602 C-44.32085363 52.6653727 -48.49988063 56.2149888 -52.93896484 59.56860352 C-56.88824906 62.61556783 -60.68263686 65.84927132 -64.50146484 69.05688477 C-66.34068748 70.59042654 -68.20511136 72.09432347 -70.09521484 73.56469727 C-72.37219149 75.20020236 -72.37219149 75.20020236 -73.29833984 77.38891602 C-73.36784526 78.92915598 -73.38286342 80.47226589 -73.36083984 82.01391602 C-73.35181641 82.83118164 -73.34279297 83.64844727 -73.33349609 84.49047852 C-73.32189453 85.11696289 -73.31029297 85.74344727 -73.29833984 86.38891602 C-74.28833984 86.38891602 -75.27833984 86.38891602 -76.29833984 86.38891602 C-76.17265625 84.79950195 -76.17265625 84.79950195 -76.04443359 83.17797852 C-75.94127152 81.78997976 -75.83842321 80.40195766 -75.73583984 79.01391602 C-75.67976563 78.31524414 -75.62369141 77.61657227 -75.56591797 76.89672852 C-75.1833408 73.02362736 -75.1833408 73.02362736 -76.29833984 69.38891602 C-73.71165577 65.96553686 -71.14852994 63.29326138 -67.73583984 60.70141602 C-62.91639422 56.93955125 -58.4077641 52.92346014 -53.91162109 48.78344727 C-50.97011743 46.08816812 -47.9677614 43.47143712 -44.95068359 40.86157227 C-43.55385399 39.61664375 -42.22910796 38.29154645 -40.92333984 36.95141602 C-39.29833984 35.38891602 -39.29833984 35.38891602 -37.29833984 35.38891602 C-36.96833984 34.39891602 -36.63833984 33.40891602 -36.29833984 32.38891602 C-34.89453125 31.01953125 -34.89453125 31.01953125 -33.02490234 29.51000977 C-29.2097198 26.27739522 -25.72587918 22.83138688 -22.25927734 19.23657227 C-21.17344332 18.11993517 -20.08750432 17.00340016 -19.00146484 15.88696289 C-17.32426649 14.16013014 -15.65228982 12.42929881 -13.99267578 10.68554688 C-12.36609659 8.98030057 -10.72106652 7.29482471 -9.07177734 5.61157227 C-8.58099701 5.08668716 -8.09021667 4.56180206 -7.58456421 4.02101135 C-5.03178524 1.44841881 -3.6493832 0.43030847 0 0 Z " fill="#ECE2E0" transform="translate(421.29833984375,303.611083984375)"/>
<path d="M0 0 C0.33 0.99 0.66 1.98 1 3 C2.94603274 3.59070014 2.94603274 3.59070014 5 4 C5.66 4.66 6.32 5.32 7 6 C7.66 6.33 8.32 6.66 9 7 C9 6.34 9 5.68 9 5 C8.01 4.67 7.02 4.34 6 4 C6.33 2.68 6.66 1.36 7 0 C9.8546576 2.80530847 12.70277231 5.61707696 15.54492188 8.43505859 C16.51318538 9.39324956 17.48323426 10.34963982 18.45507812 11.30419922 C19.8497097 12.6746382 21.23746521 14.05206367 22.625 15.4296875 C23.46289062 16.25710449 24.30078125 17.08452148 25.1640625 17.93701172 C27 20 27 20 27 22 C26.01 22 25.02 22 24 22 C23.67 23.32 23.34 24.64 23 26 C20.7375908 24.8687954 19.89014916 23.77051389 18.3125 21.8125 C15.66377715 18.65341348 12.83318205 16.03089527 9.6640625 13.40625 C6.51187933 10.74243324 3.66887607 7.8199126 1.0625 4.625 C-0.93236181 2.73837001 -0.93236181 2.73837001 -3.8125 2.8125 C-8.2973709 4.48333426 -10.87690417 7.46110739 -14 11 C-14.33 10.01 -14.66 9.02 -15 8 C-14.34 8 -13.68 8 -13 8 C-12.34 6.35 -11.68 4.7 -11 3 C-10.34 3 -9.68 3 -9 3 C-9 2.34 -9 1.68 -9 1 C-5.8035914 -0.06546953 -3.34252724 -0.07427838 0 0 Z " fill="#EDD9D6" transform="translate(325,220)"/>
<path d="M0 0 C11.83138247 -0.30368025 22.75988587 1.56602706 33.6796875 6.15234375 C29.91300152 7.53285245 27.23179577 6.74802534 23.4296875 5.71484375 C22.35203125 5.42738281 21.274375 5.13992187 20.1640625 4.84375 C19.34421875 4.61558594 18.524375 4.38742188 17.6796875 4.15234375 C17.6796875 3.49234375 17.6796875 2.83234375 17.6796875 2.15234375 C-3.68678463 2.07825878 -3.68678463 2.07825878 -23.3203125 9.15234375 C-24.80940437 9.82294505 -26.30937158 10.47003876 -27.8203125 11.08984375 C-33.18965627 13.43558696 -37.00381131 16.26486831 -40.3203125 21.15234375 C-41.3103125 19.83234375 -42.3003125 18.51234375 -43.3203125 17.15234375 C-30.74082241 6.7859121 -16.35376919 0.75034941 0 0 Z " fill="#C57275" transform="translate(414.3203125,169.84765625)"/>
<path d="M0 0 C0.99 0.33 1.98 0.66 3 1 C2.67 1.66 2.34 2.32 2 3 C2.66 3 3.32 3 4 3 C4.2295711 6.36704285 4.33943529 8.41370268 2.625 11.375 C2.08875 11.91125 1.5525 12.4475 1 13 C0.34 13 -0.32 13 -1 13 C-1.39670731 21.25738923 -0.64203887 26.03694169 4 33 C10.58504338 37.04082207 17.48186134 36.28153917 25 36 C25 36.66 25 37.32 25 38 C22.4784979 38.08172936 19.95970083 38.14083373 17.4375 38.1875 C16.73302734 38.21263672 16.02855469 38.23777344 15.30273438 38.26367188 C10.11996685 38.33532304 6.63735818 37.32172598 2 35 C2 34.34 2 33.68 2 33 C1.01 33 0.02 33 -1 33 C-3.15758273 27.75044832 -3.24042211 23.19189716 -3.125 17.625 C-3.11597656 16.79355469 -3.10695313 15.96210938 -3.09765625 15.10546875 C-3.0742622 13.07018663 -3.03839725 11.03505436 -3 9 C-3.66 8.67 -4.32 8.34 -5 8 C-5 5 -5 5 -2.5 2.3125 C-1.675 1.549375 -0.85 0.78625 0 0 Z " fill="#EAE5E4" transform="translate(317,339)"/>
<path d="M0 0 C0.66 0.99 1.32 1.98 2 3 C-14.60193431 20.25016602 -14.60193431 20.25016602 -23 24 C-20 18 -20 18 -17 17 C-17 15.68 -17 14.36 -17 13 C-18.99983534 13.79117904 -18.99983534 13.79117904 -21 15 C-21.33 15.99 -21.66 16.98 -22 18 C-24.875 20.25 -24.875 20.25 -28 22 C-28.99 21.67 -29.98 21.34 -31 21 C-26.20555618 16.66731614 -21.40728951 12.33890639 -16.5625 8.0625 C-15.94503906 7.51722656 -15.32757813 6.97195313 -14.69140625 6.41015625 C-13 5 -13 5 -10 3 C-10.25 5.375 -10.25 5.375 -11 8 C-12.31647119 8.69937532 -13.65022151 9.36729133 -15 10 C-15.80528889 12.05000871 -15.80528889 12.05000871 -16 14 C-15.401875 13.67 -14.80375 13.34 -14.1875 13 C-12 12 -12 12 -9 12 C-9 10.68 -9 9.36 -9 8 C-7.35 7.67 -5.7 7.34 -4 7 C-4 5.68 -4 4.36 -4 3 C-2 1.25 -2 1.25 0 0 Z " fill="#F0D6D4" transform="translate(391,338)"/>
<path d="M0 0 C0.99 0.66 1.98 1.32 3 2 C3.1875 4.625 3.1875 4.625 3 7 C2.401875 7.268125 1.80375 7.53625 1.1875 7.8125 C-1.04327908 8.8893979 -1.04327908 8.8893979 -2.625 10.625 C-3.07875 11.07875 -3.5325 11.5325 -4 12 C-4.66 12 -5.32 12 -6 12 C-6 13.32 -6 14.64 -6 16 C-7.32 16 -8.64 16 -10 16 C-10 16.99 -10 17.98 -10 19 C-10.66 19 -11.32 19 -12 19 C-12 19.66 -12 20.32 -12 21 C-13.65 21 -15.3 21 -17 21 C-15.07517084 14.33712984 -15.07517084 14.33712984 -12 12 C-11.01 11.67 -10.02 11.34 -9 11 C-8.30741771 9.00882592 -7.64252365 7.0078864 -7 5 C-5.03018393 2.49296136 -2.89104992 1.29598789 0 0 Z " fill="#E6E6E5" transform="translate(351,308)"/>
<path d="M0 0 C0.66 1.32 1.32 2.64 2 4 C1.01 4.495 1.01 4.495 0 5 C0.144375 5.70125 0.28875 6.4025 0.4375 7.125 C-0.16350706 11.07447495 -1.99365597 12.35137644 -5.04296875 14.7734375 C-7.63860438 16.40024306 -9.96224307 16.85181674 -13 17 C-13.8125 15.3125 -13.8125 15.3125 -14 13 C-11.5625 10.25 -11.5625 10.25 -9 8 C-9.66 7.67 -10.32 7.34 -11 7 C-7.7129243 3.18699218 -4.60272162 1.77027754 0 0 Z " fill="#E9DAD7" transform="translate(371,290)"/>
<path d="M0 0 C-0.33 1.65 -0.66 3.3 -1 5 C-7.12717817 7.08881074 -11.91331747 8.15517006 -18.4375 8.1875 C-19.73558594 8.20167969 -21.03367187 8.21585937 -22.37109375 8.23046875 C-25.75472799 8.01557702 -27.98105663 7.47166218 -31 6 C-31 5.34 -31 4.68 -31 4 C-31.99 4 -32.98 4 -34 4 C-34 3.01 -34 2.02 -34 1 C-29.25 2.875 -29.25 2.875 -27 4 C-24.62876754 4.23029956 -22.25258057 4.41119942 -19.875 4.5625 C-18.59367187 4.64628906 -17.31234375 4.73007812 -15.9921875 4.81640625 C-14.51105469 4.90728516 -14.51105469 4.90728516 -13 5 C-13 4.34 -13 3.68 -13 3 C-11.40084119 2.30093058 -9.79544955 1.61610532 -8.1875 0.9375 C-7.29417969 0.55464844 -6.40085937 0.17179688 -5.48046875 -0.22265625 C-3 -1 -3 -1 0 0 Z " fill="#E6E6E5" transform="translate(399,254)"/>
<path d="M0 0 C0.66 0.33 1.32 0.66 2 1 C1.01 2.485 1.01 2.485 0 4 C-0.56425657 9.47838469 -0.56425657 9.47838469 1.5 14.3125 C1.995 14.869375 2.49 15.42625 3 16 C3 16.99 3 17.98 3 19 C4.32 19 5.64 19 7 19 C7 19.66 7 20.32 7 21 C10.66196125 22.83098063 14.98504866 22.27230743 19 22 C21.83378132 21.1025173 21.83378132 21.1025173 24 20 C24.99 20 25.98 20 27 20 C27 19.34 27 18.68 27 18 C27.66 18 28.32 18 29 18 C27.8483054 21.45508381 27.01153326 22.10703624 24 24 C17.96359139 25.85834235 11.42667714 25.99335991 5.625 23.375 C0.95756687 20.72540665 -1.32020519 17.03938442 -3 12 C-3.203125 9.84375 -3.203125 9.84375 -3.25 7.5 C-3.27578125 6.7265625 -3.3015625 5.953125 -3.328125 5.15625 C-2.9256922 2.51169162 -2.03104151 1.66759198 0 0 Z " fill="#C87A79" transform="translate(318,351)"/>
<path d="M0 0 C2.475 0.495 2.475 0.495 5 1 C3.06756875 7.68918509 0.82431885 9.53314354 -5 13 C-8.55231423 15.52975984 -8.55231423 15.52975984 -11 19 C-11.99 19 -12.98 19 -14 19 C-14.33 18.01 -14.66 17.02 -15 16 C-14.34 16 -13.68 16 -13 16 C-12.79375 15.195625 -12.5875 14.39125 -12.375 13.5625 C-11.92125 12.716875 -11.4675 11.87125 -11 11 C-7.875 10.1875 -7.875 10.1875 -5 10 C-4.67 8.35 -4.34 6.7 -4 5 C-3.34 5 -2.68 5 -2 5 C-1.34 3.35 -0.68 1.7 0 0 Z " fill="#E7E8E6" transform="translate(316,278)"/>
<path d="M0 0 C0.33 0.99 0.66 1.98 1 3 C0.01 3.66 -0.98 4.32 -2 5 C-2.165 5.680625 -2.33 6.36125 -2.5 7.0625 C-2.665 7.701875 -2.83 8.34125 -3 9 C-3.99 9.33 -4.98 9.66 -6 10 C-7.39712274 11.95597184 -8.73779907 13.95436401 -10 16 C-9.34 16 -8.68 16 -8 16 C-8 15.34 -8 14.68 -8 14 C-6.35 13.67 -4.7 13.34 -3 13 C-4.53643852 16.68069887 -6.78150945 18.98775204 -9.625 21.75 C-10.44226563 22.54921875 -11.25953125 23.3484375 -12.1015625 24.171875 C-12.72804688 24.77515625 -13.35453125 25.3784375 -14 26 C-14.33 25.01 -14.66 24.02 -15 23 C-13.59554165 20.7363436 -11.8032087 18.9791315 -10 17 C-11.32 16.34 -12.64 15.68 -14 15 C-9.53648711 9.77674023 -4.9255107 4.79077028 0 0 Z " fill="#F2DBD9" transform="translate(307,223)"/>
<path d="M0 0 C0.33 0.66 0.66 1.32 1 2 C-0.2739589 4.03833424 -1.61061923 6.03852126 -3 8 C-3.66 8 -4.32 8 -5 8 C-5.28875 8.5775 -5.5775 9.155 -5.875 9.75 C-6.24625 10.4925 -6.6175 11.235 -7 12 C-7.2475 12.680625 -7.495 13.36125 -7.75 14.0625 C-9 16 -9 16 -12.0625 17.5 C-13.031875 17.995 -14.00125 18.49 -15 19 C-15.34342449 20.33076989 -15.67619874 21.66431979 -16 23 C-19.0625 25.25 -19.0625 25.25 -22 27 C-22.66 26.67 -23.32 26.34 -24 26 C-22.94211533 24.60066553 -21.8784332 23.20571332 -20.8125 21.8125 C-20.22082031 21.03519531 -19.62914062 20.25789063 -19.01953125 19.45703125 C-16.82468169 16.7867017 -14.47307953 14.41488942 -12 12 C-10.96090763 10.96357325 -9.92320565 9.92575113 -8.88671875 8.88671875 C-5.92447917 5.92447917 -2.96223958 2.96223958 0 0 Z " fill="#CB6D74" transform="translate(302,239)"/>
<path d="M0 0 C2.9375 0.8125 2.9375 0.8125 6 2 C6.33 2.99 6.66 3.98 7 5 C7.99 5.33 8.98 5.66 10 6 C10 6.99 10 7.98 10 9 C14.95 9 19.9 9 25 9 C25.33 8.01 25.66 7.02 26 6 C26.99 6.33 27.98 6.66 29 7 C22.82115454 12.04063708 18.96099564 12.79170122 11 12 C6.15115377 10.37192024 2.74629017 7.28421266 0 3 C0 2.01 0 1.02 0 0 Z " fill="#C9686D" transform="translate(285,336)"/>
<path d="M0 0 C1.32 0.33 2.64 0.66 4 1 C2.38405168 3.04119788 0.7143618 5.04072937 -1 7 C-1.66 7 -2.32 7 -3 7 C-3.25523437 7.58265625 -3.51046875 8.1653125 -3.7734375 8.765625 C-5.11741087 11.21388223 -6.61810296 12.81743248 -8.625 14.75 C-9.25664062 15.36359375 -9.88828125 15.9771875 -10.5390625 16.609375 C-11.02117187 17.06828125 -11.50328125 17.5271875 -12 18 C-12.82638376 15.10765685 -13 13.11257569 -13 10 C-14.98 10.66 -16.96 11.32 -19 12 C-17.02 9.69 -15.04 7.38 -13 5 C-12.01 5.99 -11.02 6.98 -10 8 C-10 8.66 -10 9.32 -10 10 C-8.35 9.67 -6.7 9.34 -5 9 C-5 7.68 -5 6.36 -5 5 C-4.01 5 -3.02 5 -2 5 C-2 4.34 -2 3.68 -2 3 C-1.34 3 -0.68 3 0 3 C0 2.01 0 1.02 0 0 Z " fill="#EED8D3" transform="translate(384,281)"/>
<path d="M0 0 C0.66 1.32 1.32 2.64 2 4 C0.6875 5.5 0.6875 5.5 -1 7 C-1.99 7 -2.98 7 -4 7 C-3.67 7.99 -3.34 8.98 -3 10 C0.465 9.505 0.465 9.505 4 9 C3.04270084 10.12588014 2.08412105 11.2506715 1.125 12.375 C0.59132813 13.00148438 0.05765625 13.62796875 -0.4921875 14.2734375 C-1.61432007 15.55836651 -2.79371975 16.79371975 -4 18 C-4 16.68 -4 15.36 -4 14 C-3.34 14 -2.68 14 -2 14 C-2 13.34 -2 12.68 -2 12 C-4.62314702 12.50445135 -6.39605255 13.22502986 -8.75 14.5625 C-12.84900305 16.37552058 -15.55868083 16.22972341 -20 16 C-20 15.67 -20 15.34 -20 15 C-19.05125 14.855625 -18.1025 14.71125 -17.125 14.5625 C-10.02628149 12.57775625 -4.12478477 5.86576535 0 0 Z " fill="#EDD4D2" transform="translate(290,302)"/>
<path d="M0 0 C1.1196437 3.35893109 1.07992835 4.67714354 0 8 C-1.8125 9.8125 -1.8125 9.8125 -4 11 C-5.32 11 -6.64 11 -8 11 C-8 11.66 -8 12.32 -8 13 C-9.65 13.33 -11.3 13.66 -13 14 C-12.53767151 9.44048455 -11.07947392 7.67903614 -7.625 4.75 C-6.43777344 3.72132813 -6.43777344 3.72132813 -5.2265625 2.671875 C-3 1 -3 1 0 0 Z " fill="#EBDEDC" transform="translate(332,327)"/>
<path d="M0 0 C0 0.66 0 1.32 0 2 C0.66 2 1.32 2 2 2 C2.66 1.34 3.32 0.68 4 0 C4.99 0.33 5.98 0.66 7 1 C6.34 1 5.68 1 5 1 C5 1.66 5 2.32 5 3 C6.65 2.67 8.3 2.34 10 2 C9.896875 2.70125 9.79375 3.4025 9.6875 4.125 C10.14210034 8.30732311 12.16466151 9.95201113 15 13 C14.67 13.66 14.34 14.32 14 15 C13.46632813 14.56429687 12.93265625 14.12859375 12.3828125 13.6796875 C7.51203163 9.78643359 2.55944217 6.38761332 -2.8359375 3.26171875 C-4.59479064 2.23625022 -6.30597542 1.12934972 -8 0 C-2.25 -1.125 -2.25 -1.125 0 0 Z " fill="#ECE8E8" transform="translate(456,176)"/>
<path d="M0 0 C0.95616211 0.00459229 1.91232422 0.00918457 2.89746094 0.01391602 C20.15598769 0.23424384 20.15598769 0.23424384 26.1875 3.25 C26.1875 3.91 26.1875 4.57 26.1875 5.25 C22.95518081 4.8092292 19.74665408 4.35819673 16.54296875 3.73828125 C4.13221274 1.39568875 -6.69511505 1.76467169 -18.8125 5.25 C-20.47573909 5.60003519 -22.14156345 5.93877674 -23.8125 6.25 C-23.8125 5.59 -23.8125 4.93 -23.8125 4.25 C-22.8225 4.25 -21.8325 4.25 -20.8125 4.25 C-20.8125 3.59 -20.8125 2.93 -20.8125 2.25 C-13.80302255 0.587344 -7.19544302 -0.07170062 0 0 Z " fill="#F8DAD8" transform="translate(308.8125,168.75)"/>
<path d="M0 0 C1.65 0 3.3 0 5 0 C4.278125 0.556875 3.55625 1.11375 2.8125 1.6875 C0.0246239 3.97975368 -2.46689119 6.43283259 -5 9 C-4.26394531 9.59167969 -3.52789062 10.18335938 -2.76953125 10.79296875 C-1.79371094 11.58316406 -0.81789063 12.37335938 0.1875 13.1875 C1.15042969 13.96480469 2.11335938 14.74210938 3.10546875 15.54296875 C5.90350421 17.91808927 8.4455467 20.37082777 11 23 C7.625 22.3125 7.625 22.3125 4 21 C2.8125 18.4375 2.8125 18.4375 2 16 C-0.04105639 15.11306697 -0.04105639 15.11306697 -2 15 C-2 14.34 -2 13.68 -2 13 C-4.86724686 13.57344937 -5.8614515 13.8614515 -8 16 C-8.99 15.01 -9.98 14.02 -11 13 C-10.01 12.67 -9.02 12.34 -8 12 C-7.67 9.69 -7.34 7.38 -7 5 C-6.01 4.67 -5.02 4.34 -4 4 C-3.67 3.01 -3.34 2.02 -3 1 C-2.01 1 -1.02 1 0 1 C0 0.67 0 0.34 0 0 Z " fill="#F0D4D2" transform="translate(377,179)"/>
<path d="M0 0 C1.98 1.32 3.96 2.64 6 4 C5.34 4.66 4.68 5.32 4 6 C3.236875 5.938125 2.47375 5.87625 1.6875 5.8125 C-2.20541267 6.08409856 -3.41186484 8.21277752 -6 11 C-7.33333333 11.66666667 -8.66666667 12.33333333 -10 13 C-10.33 13.99 -10.66 14.98 -11 16 C-13.4375 17.75 -13.4375 17.75 -16 19 C-16.66 18.67 -17.32 18.34 -18 18 C-12.06 12.06 -6.12 6.12 0 0 Z " fill="#C96971" transform="translate(352,251)"/>
<path d="M0 0 C0.54785156 0.27585937 1.09570312 0.55171875 1.66015625 0.8359375 C2.43230469 1.22007812 3.20445312 1.60421875 4 2 C4.84433594 2.42539062 5.68867188 2.85078125 6.55859375 3.2890625 C16.80392603 8.04334153 26.25883763 8.36977643 37 5 C35.36732117 8.26535766 33.40707788 8.72956418 30 10 C18.38465993 11.09148357 10.10368106 8.42451729 0 3 C0 2.01 0 1.02 0 0 Z " fill="#C47475" transform="translate(358,256)"/>
<path d="M0 0 C1.32 0 2.64 0 4 0 C4 0.66 4 1.32 4 2 C4.61875 2.061875 5.2375 2.12375 5.875 2.1875 C6.57625 2.455625 7.2775 2.72375 8 3 C8.309375 3.825 8.61875 4.65 8.9375 5.5 C9.288125 6.325 9.63875 7.15 10 8 C12.47608101 8.74524194 12.47608101 8.74524194 15 9 C15.66 9.66 16.32 10.32 17 11 C13.71303767 11.79953138 12.28976808 12.09658936 9 11 C9 10.34 9 9.68 9 9 C8.0925 8.731875 7.185 8.46375 6.25 8.1875 C3.28528037 7.10423706 1.3830246 6.01640543 -1 4 C-0.67 2.68 -0.34 1.36 0 0 Z " fill="#EBE7E2" transform="translate(371,192)"/>
<path d="M0 0 C0.66 0.33 1.32 0.66 2 1 C0.34578516 3.01188291 -1.3197815 5.01013399 -3 7 C-3.495 7.598125 -3.99 8.19625 -4.5 8.8125 C-6 10 -6 10 -8.5625 10.4375 C-11.14453479 10.74903075 -11.14453479 10.74903075 -12.375 12.9375 C-13.26871235 15.035396 -13.26871235 15.035396 -12 17 C-15.96 17.495 -15.96 17.495 -20 18 C-17.81487624 13.85630378 -15.34222521 11.34409335 -11.6875 8.4375 C-10.71554687 7.6640625 -9.74359375 6.890625 -8.7421875 6.09375 C-5.8944247 3.9193898 -3.04133977 1.89056256 0 0 Z " fill="#C86D6E" transform="translate(274,179)"/>
<path d="M0 0 C4.56048012 3.61251516 8.01665146 6.98797445 11 12 C10.67 12.66 10.34 13.32 10 14 C9.34 13.67 8.68 13.34 8 13 C8 12.01 8 11.02 8 10 C7.34 10 6.68 10 6 10 C5.67 10.99 5.34 11.98 5 13 C4.01 13.33 3.02 13.66 2 14 C1.4225 13.0925 0.845 12.185 0.25 11.25 C-1.66785116 8.47977054 -3.54402845 6.28054501 -6 4 C-3.03 4.495 -3.03 4.495 0 5 C0 5.99 0 6.98 0 8 C0.99 8 1.98 8 3 8 C2.67 6.35 2.34 4.7 2 3 C1.34 3 0.68 3 0 3 C0 2.01 0 1.02 0 0 Z " fill="#E6DDDC" transform="translate(398,210)"/>
<path d="M0 0 C1.99954746 -0.04254356 4.00041636 -0.04080783 6 0 C7 1 7 1 7.25390625 3.34057617 C6.94745118 6.55039841 6.23511758 7.35573588 3.9375 9.55078125 C2.99003906 10.47407227 2.99003906 10.47407227 2.0234375 11.41601562 C1.35570312 12.04185547 0.68796875 12.66769531 0 13.3125 C-1.00160156 14.28026367 -1.00160156 14.28026367 -2.0234375 15.26757812 C-3.67161203 16.85688927 -5.33029098 18.43337902 -7 20 C-7.66 19.67 -8.32 19.34 -9 19 C-9 18.34 -9 17.68 -9 17 C-7.68 16.67 -6.36 16.34 -5 16 C-5 15.01 -5 14.02 -5 13 C-4.34 13 -3.68 13 -3 13 C-2.67 11.68 -2.34 10.36 -2 9 C-1.34 9 -0.68 9 0 9 C0 8.34 0 7.68 0 7 C0.99 6.67 1.98 6.34 3 6 C3.73323796 3.98491642 3.73323796 3.98491642 4 2 C2.68 1.34 1.36 0.68 0 0 Z " fill="#EEDFDB" transform="translate(418,304)"/>
<path d="M0 0 C0.66 0.33 1.32 0.66 2 1 C1.57847656 1.55429687 1.15695312 2.10859375 0.72265625 2.6796875 C0.17480469 3.40414063 -0.37304688 4.12859375 -0.9375 4.875 C-1.48277344 5.59429687 -2.02804687 6.31359375 -2.58984375 7.0546875 C-5.28959969 10.77900456 -5.31121429 14.1595294 -5.5625 18.625 C-5.60568359 19.33140625 -5.64886719 20.0378125 -5.69335938 20.765625 C-5.79944751 22.51018537 -5.90022889 24.25506697 -6 26 C-5.34 26 -4.68 26 -4 26 C-3.9175 26.94875 -3.835 27.8975 -3.75 28.875 C-3.34925077 32.10461791 -3.34925077 32.10461791 -0.9375 33.375 C-0.298125 33.58125 0.34125 33.7875 1 34 C0.34 34.66 -0.32 35.32 -1 36 C-1 35.34 -1 34.68 -1 34 C-1.99 33.67 -2.98 33.34 -4 33 C-7.87169242 27.46752799 -9.51523719 22.31526087 -8.4375 15.625 C-7.63085038 11.90739741 -6.4831076 8.50089776 -5 5 C-4.34 5 -3.68 5 -3 5 C-3 4.34 -3 3.68 -3 3 C-2.34 3 -1.68 3 -1 3 C-0.67 2.01 -0.34 1.02 0 0 Z " fill="#F2D6D2" transform="translate(263,280)"/>
<path d="M0 0 C0.99 0.33 1.98 0.66 3 1 C3 1.99 3 2.98 3 4 C3.66 4 4.32 4 5 4 C6.37745568 9.50982274 6.8198497 15.54045091 5 21 C4.34 21 3.68 21 3 21 C2.89042969 20.09636719 2.78085937 19.19273437 2.66796875 18.26171875 C2.50941406 17.08222656 2.35085938 15.90273437 2.1875 14.6875 C1.96126953 12.92986328 1.96126953 12.92986328 1.73046875 11.13671875 C1.00135005 8.00579726 0.50828536 6.90354807 -2 5 C-1.34 4.67 -0.68 4.34 0 4 C0 2.68 0 1.36 0 0 Z " fill="#EAE7E5" transform="translate(403,219)"/>
<path d="M0 0 C0.625 1.875 0.625 1.875 1 4 C0.34 4.66 -0.32 5.32 -1 6 C-1.66 5.67 -2.32 5.34 -3 5 C-3.309375 5.61875 -3.61875 6.2375 -3.9375 6.875 C-4.625 8.25 -5.3125 9.625 -6 11 C-6.7425 10.9175 -7.485 10.835 -8.25 10.75 C-11.78157027 11.07105184 -12.76630364 12.35265617 -15 15 C-15 11 -15 11 -14 9 C-12.44140625 7.9296875 -12.44140625 7.9296875 -10.5625 6.875 C-9.94503906 6.52179688 -9.32757813 6.16859375 -8.69140625 5.8046875 C-7 5 -7 5 -5 5 C-4.87625 4.360625 -4.7525 3.72125 -4.625 3.0625 C-4.41875 2.381875 -4.2125 1.70125 -4 1 C-2 0 -2 0 0 0 Z " fill="#E4E9E6" transform="translate(374,351)"/>
<path d="M0 0 C0.66 0.33 1.32 0.66 2 1 C1.67 1.99 1.34 2.98 1 4 C0.01 4.33 -0.98 4.66 -2 5 C-2.33 5.66 -2.66 6.32 -3 7 C-3.99 7.33 -4.98 7.66 -6 8 C-5.67 8.66 -5.34 9.32 -5 10 C-6.32 10 -7.64 10 -9 10 C-9 10.99 -9 11.98 -9 13 C-10.65 13.33 -12.3 13.66 -14 14 C-14.33 14.99 -14.66 15.98 -15 17 C-15.99 17 -16.98 17 -18 17 C-18 17.66 -18 18.32 -18 19 C-19.32 18.67 -20.64 18.34 -22 18 C-21.0821875 17.28714844 -20.164375 16.57429688 -19.21875 15.83984375 C-12.65842778 10.7261521 -6.15630273 5.60185311 0 0 Z " fill="#F2D7D3" transform="translate(416,362)"/>
<path d="M0 0 C0 1.65 0 3.3 0 5 C-1.65 5.33 -3.3 5.66 -5 6 C-5 7.32 -5 8.64 -5 10 C-5.99 10.33 -6.98 10.66 -8 11 C-8.66 11.66 -9.32 12.32 -10 13 C-10.66 12.67 -11.32 12.34 -12 12 C-11.67 10.35 -11.34 8.7 -11 7 C-9.68 6.67 -8.36 6.34 -7 6 C-6.814375 4.7934375 -6.814375 4.7934375 -6.625 3.5625 C-6.41875 2.716875 -6.2125 1.87125 -6 1 C-3.82510133 -0.08744934 -2.41588781 0 0 0 Z " fill="#E3E8E6" transform="translate(387,340)"/>
<path d="M0 0 C0.33 0 0.66 0 1 0 C1.09796875 0.65226562 1.1959375 1.30453125 1.296875 1.9765625 C2.23686823 7.47066087 3.16016346 11.74504599 7 16 C13.4340838 20.19614161 20.55377737 19.27884606 28 19 C28 19.66 28 20.32 28 21 C25.4784979 21.08172936 22.95970083 21.14083373 20.4375 21.1875 C19.73302734 21.21263672 19.02855469 21.23777344 18.30273438 21.26367188 C13.11996685 21.33532304 9.63735818 20.32172598 5 18 C5 17.34 5 16.68 5 16 C4.01 16 3.02 16 2 16 C-0.27141454 10.60539047 -0.20413361 5.73842251 0 0 Z " fill="#F3D0CF" transform="translate(314,356)"/>
<path d="M0 0 C0.99 0.33 1.98 0.66 3 1 C3.99 1 4.98 1 6 1 C6.99 1.33 7.98 1.66 9 2 C8.48050781 2.44730469 7.96101563 2.89460938 7.42578125 3.35546875 C2.65610201 7.48714557 2.65610201 7.48714557 -1.875 11.875 C-4 14 -4 14 -6 15 C-6.33 13.68 -6.66 12.36 -7 11 C-6.01 10.34 -5.02 9.68 -4 9 C-1.75 7.25 -1.75 7.25 0 5 C0.33498301 2.33165034 0.33498301 2.33165034 0 0 Z " fill="#CA686B" transform="translate(424,346)"/>
<path d="M0 0 C-6.13907026 6.24063576 -12.2883812 12.36531717 -19 18 C-19.66 17.34 -20.32 16.68 -21 16 C-20 14 -20 14 -17.6875 12.6875 C-14.70342921 10.81378113 -13.08938912 8.80986813 -11 6 C-10.34 5.34 -9.68 4.68 -9 4 C-8.67 3.01 -8.34 2.02 -8 1 C-4.95413501 -1.10059655 -3.45012008 -1.01261386 0 0 Z " fill="#C9686D" transform="translate(398,325)"/>
<path d="M0 0 C4.82297422 2.60440608 8.97166683 5.26642292 13 9 C13 9.66 13 10.32 13 11 C13.99 11.33 14.98 11.66 16 12 C15.34 12.66 14.68 13.32 14 14 C7.98692383 11.53309696 3.7076369 7.40425586 -1 3 C-0.67 2.01 -0.34 1.02 0 0 Z " fill="#CB6A6F" transform="translate(366,193)"/>
<path d="M0 0 C2.97 0.495 2.97 0.495 6 1 C6.8125 3.1875 6.8125 3.1875 7 6 C4.5625 8.8125 4.5625 8.8125 2 11 C2 9.35 2 7.7 2 6 C-0.97 5.505 -0.97 5.505 -4 5 C-2.68 3.35 -1.36 1.7 0 0 Z " fill="#F1D8D5" transform="translate(386,271)"/>
<path d="M0 0 C6.47099219 5.28949081 11.08574432 10.59087318 15 18 C15 18.66 15 19.32 15 20 C15.66 20 16.32 20 17 20 C16.67 20.66 16.34 21.32 16 22 C15.34 22 14.68 22 14 22 C13.67 20.02 13.34 18.04 13 16 C12.34 16 11.68 16 11 16 C11 15.34 11 14.68 11 14 C10.4225 13.979375 9.845 13.95875 9.25 13.9375 C6.20835466 12.67014777 5.4204157 10.61897377 3.94921875 7.78125 C2.97568893 5.84169297 2.97568893 5.84169297 1.25 3.6875 C0 2 0 2 0 0 Z " fill="#C57072" transform="translate(469,190)"/>
<path d="M0 0 C0.33 0.99 0.66 1.98 1 3 C-0.88259416 5.15882807 -2.77948801 7.30133183 -4.6875 9.4375 C-5.21794922 10.04916016 -5.74839844 10.66082031 -6.29492188 11.29101562 C-10.35216114 15.79629358 -10.35216114 15.79629358 -13.89453125 16.91015625 C-14.93673828 16.95462891 -14.93673828 16.95462891 -16 17 C-11.01595832 10.96668638 -5.58084697 5.4815829 0 0 Z " fill="#C76E6F" transform="translate(418,316)"/>
<path d="M0 0 C1 2 1 2 1 5 C1.99 5.66 2.98 6.32 4 7 C2.35 8.65 0.7 10.3 -1 12 C-1.33 10.68 -1.66 9.36 -2 8 C-2.86625 8.309375 -3.7325 8.61875 -4.625 8.9375 C-7.76150738 9.92491899 -10.75067413 10.53581059 -14 11 C-13.01 10.34 -12.02 9.68 -11 9 C-9.989375 8.29875 -8.97875 7.5975 -7.9375 6.875 C-5 5 -5 5 -3 5 C-2.690625 4.360625 -2.38125 3.72125 -2.0625 3.0625 C-1 1 -1 1 0 0 Z " fill="#ECD4D2" transform="translate(400,246)"/>
<path d="M0 0 C0 2.66666667 0 5.33333333 0 8 C-0.94875 8.2475 -1.8975 8.495 -2.875 8.75 C-6.09515628 9.63667603 -6.09515628 9.63667603 -7 12 C-8 14 -8 14 -11.125 15.25 C-12.07375 15.4975 -13.0225 15.745 -14 16 C-14 15.34 -14 14.68 -14 14 C-13.34 14 -12.68 14 -12 14 C-12 13.34 -12 12.68 -12 12 C-11.34 12 -10.68 12 -10 12 C-9.75507813 11.42765625 -9.51015625 10.8553125 -9.2578125 10.265625 C-7.78889901 7.61975598 -6.04651756 5.85146861 -3.875 3.75 C-3.15054687 3.04359375 -2.42609375 2.3371875 -1.6796875 1.609375 C-1.12539063 1.07828125 -0.57109375 0.5471875 0 0 Z " fill="#EFD3D4" transform="translate(311,280)"/>
<path d="M0 0 C1.5 1.375 1.5 1.375 3 3 C3 3.66 3 4.32 3 5 C2.1646875 5.3403125 2.1646875 5.3403125 1.3125 5.6875 C-1.63246684 7.35896766 -3.68156544 9.55276352 -6 12 C-6.99 11.01 -7.98 10.02 -9 9 C-6 6 -3 3 0 0 Z " fill="#F1E1E1" transform="translate(345,246)"/>
<path d="M0 0 C4.04982861 4.04982861 4.125 11.62442948 4.125 17.1875 C4.08375 18.115625 4.0425 19.04375 4 20 C2.68 19.34 1.36 18.68 0 18 C0 12.06 0 6.12 0 0 Z " fill="#C56E71" transform="translate(490,224)"/>
<path d="M0 0 C0.33 0 0.66 0 1 0 C1 1.65 1 3.3 1 5 C0.34 5 -0.32 5 -1 5 C-1.04125 5.78375 -1.0825 6.5675 -1.125 7.375 C-2.35648748 12.47687671 -4.86772616 16.79594015 -8 21 C-8.66 21 -9.32 21 -10 21 C-10 21.99 -10 22.98 -10 24 C-10.66 24 -11.32 24 -12 24 C-10.56256053 20.09531367 -8.71155399 16.68364854 -6.5625 13.125 C-4.01660518 8.82880249 -1.79817965 4.65411204 0 0 Z " fill="#F0D3D1" transform="translate(488,274)"/>
<path d="M0 0 C0.33 0.99 0.66 1.98 1 3 C1.66 3 2.32 3 3 3 C2.67 4.32 2.34 5.64 2 7 C1.01 7 0.02 7 -1 7 C-1.33 7.66 -1.66 8.32 -2 9 C-2.66 9 -3.32 9 -4 9 C-4 9.99 -4 10.98 -4 12 C-4.99 12.33 -5.98 12.66 -7 13 C-7.66 12.34 -8.32 11.68 -9 11 C-6.03 7.37 -3.06 3.74 0 0 Z " fill="#EBD5D7" transform="translate(463,314)"/>
<path d="M0 0 C0 5.04169875 -3.78637167 8.32159072 -7 12 C-9.9375 14.5625 -9.9375 14.5625 -12 16 C-12.66 15.34 -13.32 14.68 -14 14 C-9.38 9.38 -4.76 4.76 0 0 Z " fill="#C76569" transform="translate(367,303)"/>
<path d="M0 0 C0.33 0.99 0.66 1.98 1 3 C-0.52994792 4.20442708 -2.05989583 5.40885417 -3.58984375 6.61328125 C-5.27155077 8.05683091 -5.27155077 8.05683091 -6 11 C-8.21593183 12.71054387 -10.46190652 13.75321724 -13 15 C-13.66 14.67 -14.32 14.34 -15 14 C-10.20922972 9.0744893 -5.22325977 4.46351289 0 0 Z " fill="#CB7073" transform="translate(401,333)"/>
<path d="M0 0 C0.66 1.32 1.32 2.64 2 4 C1.01 4.495 1.01 4.495 0 5 C0 6.32 0 7.64 0 9 C-1.32 9 -2.64 9 -4 9 C-4 8.34 -4 7.68 -4 7 C-4.66 6.67 -5.32 6.34 -6 6 C-6 5.01 -6 4.02 -6 3 C-4.02 2.01 -2.04 1.02 0 0 Z " fill="#E4EAE6" transform="translate(371,290)"/>
<path d="M0 0 C0.66 0.33 1.32 0.66 2 1 C-2.62 5.62 -7.24 10.24 -12 15 C-12.33 14.01 -12.66 13.02 -13 12 C-12.34 11.01 -11.68 10.02 -11 9 C-10.34 9 -9.68 9 -9 9 C-9 8.34 -9 7.68 -9 7 C-7.68 6.67 -6.36 6.34 -5 6 C-4.67 4.68 -4.34 3.36 -4 2 C-3.34 2.33 -2.68 2.66 -2 3 C-2 2.34 -2 1.68 -2 1 C-1.34 0.67 -0.68 0.34 0 0 Z " fill="#C56B6E" transform="translate(366,289)"/>
<path d="M0 0 C-0.33 1.32 -0.66 2.64 -1 4 C-0.34 4 0.32 4 1 4 C1 6.31 1 8.62 1 11 C-0.32 11.33 -1.64 11.66 -3 12 C-2.67 9.36 -2.34 6.72 -2 4 C-4.31 4 -6.62 4 -9 4 C-9 3.34 -9 2.68 -9 2 C-5.86501708 0.14223235 -3.62528568 -0.20140476 0 0 Z " fill="#C36868" transform="translate(394,268)"/>
<path d="M0 0 C1.1446875 0.495 1.1446875 0.495 2.3125 1 C8.38481222 2.64672874 14.92356982 2.78299008 21 1 C21 1.66 21 2.32 21 3 C20.01 3 19.02 3 18 3 C18 3.66 18 4.32 18 5 C5.33029613 5.55353075 5.33029613 5.55353075 0 2 C0 1.34 0 0.68 0 0 Z " fill="#F1D5D0" transform="translate(290,345)"/>
<path d="M0 0 C0.66015625 1.76953125 0.66015625 1.76953125 1 4 C-0.49452201 6.80877094 -2.56998416 8.96157611 -5 11 C-8.375 11.9375 -8.375 11.9375 -11 12 C-7.49102731 7.81576108 -3.91939465 3.80411834 0 0 Z " fill="#C5676A" transform="translate(333,336)"/>
<path d="M0 0 C0.99 0.33 1.98 0.66 3 1 C2.75 3.375 2.75 3.375 2 6 C0.1875 7.375 0.1875 7.375 -2 8 C-4.25 7.625 -4.25 7.625 -6 7 C-6 6.01 -6 5.02 -6 4 C-3.5625 2.375 -3.5625 2.375 -1 1 C-0.67 0.67 -0.34 0.34 0 0 Z " fill="#E6E9E5" transform="translate(292,305)"/>
<path d="M0 0 C0.66 1.32 1.32 2.64 2 4 C1.01 4.495 1.01 4.495 0 5 C-0.45375 5.825 -0.9075 6.65 -1.375 7.5 C-3 10 -3 10 -4.9375 10.6875 C-5.618125 10.790625 -6.29875 10.89375 -7 11 C-8.34448813 11.64387413 -9.67958824 12.30809321 -11 13 C-10.62488281 12.56429688 -10.24976563 12.12859375 -9.86328125 11.6796875 C-6.54140223 7.81392401 -3.25357073 3.92342352 0 0 Z " fill="#CA6F73" transform="translate(312,291)"/>
<path d="M0 0 C2.97 0.495 2.97 0.495 6 1 C6 2.65 6 4.3 6 6 C4.68 5.67 3.36 5.34 2 5 C2 5.99 2 6.98 2 8 C0.68 8 -0.64 8 -2 8 C-1.33333333 5.33333333 -0.66666667 2.66666667 0 0 Z " fill="#E6EAE4" transform="translate(382,276)"/>
<path d="M0 0 C1.65 1.65 3.3 3.3 5 5 C3.54782324 6.50596108 2.08807139 8.00462104 0.625 9.5 C-0.18710937 10.3353125 -0.99921875 11.170625 -1.8359375 12.03125 C-4 14 -4 14 -6 14 C-6.33 14.66 -6.66 15.32 -7 16 C-6.67 14.68 -6.34 13.36 -6 12 C-5.34 12 -4.68 12 -4 12 C-4 11.34 -4 10.68 -4 10 C-3.34 10 -2.68 10 -2 10 C-2 9.34 -2 8.68 -2 8 C-1.34 8 -0.68 8 0 8 C-0.185625 7.4225 -0.37125 6.845 -0.5625 6.25 C-1.04023546 3.79307475 -0.75729364 2.35602466 0 0 Z " fill="#C7757B" transform="translate(342,240)"/>
<path d="M0 0 C0.33 0.66 0.66 1.32 1 2 C-0.7634375 2.2784375 -0.7634375 2.2784375 -2.5625 2.5625 C-7.76774863 3.81509994 -10.60832737 7.03598261 -14 11 C-14.33 10.01 -14.66 9.02 -15 8 C-14.34 8 -13.68 8 -13 8 C-12.34 6.35 -11.68 4.7 -11 3 C-10.34 3 -9.68 3 -9 3 C-9 2.34 -9 1.68 -9 1 C-5.8035914 -0.06546953 -3.34252724 -0.07427838 0 0 Z " fill="#F5DEDA" transform="translate(325,220)"/>
<path d="M0 0 C0.66 0 1.32 0 2 0 C0.61959998 4.48630006 -1.14811333 8.68965139 -3.09765625 12.94921875 C-4.09417614 15.12815613 -4.09417614 15.12815613 -5 18 C-5.66 18 -6.32 18 -7 18 C-7 15.69 -7 13.38 -7 11 C-6.01 10.67 -5.02 10.34 -4 10 C-4 9.01 -4 8.02 -4 7 C-3.34 7 -2.68 7 -2 7 C-1.855625 6.21625 -1.71125 5.4325 -1.5625 4.625 C-1 2 -1 2 0 0 Z " fill="#EFDCD9" transform="translate(244,206)"/>
<path d="M0 0 C0.66 0.99 1.32 1.98 2 3 C0.9171875 3.5878125 0.9171875 3.5878125 -0.1875 4.1875 C-3.11112138 5.91524571 -3.11112138 5.91524571 -5.4375 8.5625 C-8.22324013 11.21235037 -10.31545625 12.0574423 -14 13 C-9.55618306 8.41283413 -4.79771501 4.21237287 0 0 Z " fill="#CB7176" transform="translate(380,352)"/>
<path d="M0 0 C0 4.36793679 -2.12058572 6.8289048 -5 10 C-8.1875 12 -8.1875 12 -11 13 C-11.66 12.67 -12.32 12.34 -13 12 C-11.71034824 10.62437146 -10.37310707 9.29233607 -9 8 C-8.34 8 -7.68 8 -7 8 C-6.67 7.01 -6.34 6.02 -6 5 C-4.12382302 3.15500602 -2.07262391 1.6316401 0 0 Z " fill="#F0D9D4" transform="translate(431,349)"/>
<path d="M0 0 C1.32 0.33 2.64 0.66 4 1 C2.84826645 3.46800047 1.95216435 5.04783565 0 7 C-0.69748583 8.31747324 -1.36959957 9.64914193 -2 11 C-3.32 10.34 -4.64 9.68 -6 9 C-4.85540568 7.28310852 -3.68352819 5.5822572 -2.4375 3.9375 C-0.95776051 2.06034213 -0.95776051 2.06034213 0 0 Z " fill="#E6E8E6" transform="translate(293,239)"/>
<path d="M0 0 C1.98567708 0.5859375 3.97135417 1.171875 5.95703125 1.7578125 C5.95703125 2.4178125 5.95703125 3.0778125 5.95703125 3.7578125 C7.27703125 3.4278125 8.59703125 3.0978125 9.95703125 2.7578125 C9.95703125 4.0778125 9.95703125 5.3978125 9.95703125 6.7578125 C8.01780703 6.30683012 6.08069531 5.84675691 4.14453125 5.3828125 C3.06558594 5.12757813 1.98664063 4.87234375 0.875 4.609375 C-2.04296875 3.7578125 -2.04296875 3.7578125 -5.04296875 1.7578125 C-2.04296875 -0.2421875 -2.04296875 -0.2421875 0 0 Z " fill="#F0D5D0" transform="translate(438.04296875,169.2421875)"/>
<path d="M0 0 C0 1.32 0 2.64 0 4 C0.66 4 1.32 4 2 4 C2.33 5.65 2.66 7.3 3 9 C2.01 9 1.02 9 0 9 C0 8.01 0 7.02 0 6 C-2.97 5.505 -2.97 5.505 -6 5 C-5.6875 3.0625 -5.6875 3.0625 -5 1 C-2 0 -2 0 0 0 Z " fill="#E8E6E3" transform="translate(398,209)"/>
<path d="M0 0 C0.66 0.99 1.32 1.98 2 3 C2.66 2.34 3.32 1.68 4 1 C5.36421031 3.72842061 4.87807211 5.60953318 4.5625 8.625 C4.46066406 9.62789062 4.35882813 10.63078125 4.25390625 11.6640625 C4.17011719 12.43492187 4.08632813 13.20578125 4 14 C2.09610151 11.14415227 1.30537823 9.0688238 0.375 5.8125 C-0.01558594 4.46091797 -0.01558594 4.46091797 -0.4140625 3.08203125 C-0.60742188 2.39496094 -0.80078125 1.70789063 -1 1 C-0.67 0.67 -0.34 0.34 0 0 Z " fill="#EBD4D4" transform="translate(489,215)"/>
<path d="M0 0 C0.66 0.33 1.32 0.66 2 1 C2 2.98 2 4.96 2 7 C0.35 7.33 -1.3 7.66 -3 8 C-3.75 6.25 -3.75 6.25 -4 4 C-2.0625 1.75 -2.0625 1.75 0 0 Z " fill="#E9E7E3" transform="translate(404,244)"/>
<path d="M0 0 C0.33 0 0.66 0 1 0 C1.27648714 2.4162572 1.52178337 4.82911377 1.75 7.25 C1.83121094 7.93191406 1.91242188 8.61382812 1.99609375 9.31640625 C2.31423444 12.95734966 2.33866546 14.57600151 0.015625 17.484375 C-0.64953125 17.98453125 -1.3146875 18.4846875 -2 19 C-2.66 18.67 -3.32 18.34 -4 18 C-3.525625 16.88625 -3.05125 15.7725 -2.5625 14.625 C-0.73814745 9.82316641 -0.30291156 5.09727034 0 0 Z " fill="#C7787B" transform="translate(411,231)"/>
<path d="M0 0 C0.33 0.99 0.66 1.98 1 3 C0.01 3.66 -0.98 4.32 -2 5 C-2.165 5.680625 -2.33 6.36125 -2.5 7.0625 C-2.665 7.701875 -2.83 8.34125 -3 9 C-3.99 9.33 -4.98 9.66 -6 10 C-7.66710346 11.49985609 -7.66710346 11.49985609 -9 13 C-9.66 12.34 -10.32 11.68 -11 11 C-7.37 7.37 -3.74 3.74 0 0 Z " fill="#EDD4D0" transform="translate(307,223)"/>
<path d="M0 0 C0.58265625 0.23589844 1.1653125 0.47179687 1.765625 0.71484375 C1.765625 1.37484375 1.765625 2.03484375 1.765625 2.71484375 C0.3425 3.33359375 0.3425 3.33359375 -1.109375 3.96484375 C-4.24154124 5.71885685 -5.09938106 6.42336132 -6.234375 9.71484375 C-6.564375 9.05484375 -6.894375 8.39484375 -7.234375 7.71484375 C-7.894375 7.38484375 -8.554375 7.05484375 -9.234375 6.71484375 C-8.16721428 5.51278911 -7.07999163 4.32852042 -5.984375 3.15234375 C-5.38109375 2.49105469 -4.7778125 1.82976562 -4.15625 1.1484375 C-2.234375 -0.28515625 -2.234375 -0.28515625 0 0 Z " fill="#EDDBD9" transform="translate(317.234375,215.28515625)"/>
<path d="M0 0 C0.66 0.33 1.32 0.66 2 1 C1.690625 1.598125 1.38125 2.19625 1.0625 2.8125 C-0.10209704 5.08956772 -0.10209704 5.08956772 -1 8 C-1.66 8 -2.32 8 -3 8 C-4.07525194 10.65228812 -5.09456151 13.28368454 -6 16 C-6.66 16 -7.32 16 -8 16 C-8.33 15.01 -8.66 14.02 -9 13 C-8.34 13 -7.68 13 -7 13 C-6.67 11.68 -6.34 10.36 -6 9 C-5.34 9 -4.68 9 -4 9 C-3.8453125 8.1646875 -3.8453125 8.1646875 -3.6875 7.3125 C-2.86866423 4.55823422 -1.54146219 2.41272343 0 0 Z " fill="#C47678" transform="translate(257,274)"/>
<path d="M0 0 C1.98 0 3.96 0 6 0 C5.835 1.093125 5.67 2.18625 5.5 3.3125 C4.93281816 6.87525873 4.93281816 6.87525873 5 10 C4.34 10 3.68 10 3 10 C0.96564469 6.27034861 0 4.33094958 0 0 Z " fill="#EAD8D1" transform="translate(481,200)"/>
<path d="M0 0 C0.99 0.33 1.98 0.66 3 1 C-0.96 3.97 -4.92 6.94 -9 10 C-9.99 9.34 -10.98 8.68 -12 8 C-8.19752197 4.773655 -4.44929561 2.22464781 0 0 Z " fill="#C67075" transform="translate(399,374)"/>
<path d="M0 0 C4.56048012 3.61251516 8.01665146 6.98797445 11 12 C10.67 12.66 10.34 13.32 10 14 C9.34 13.67 8.68 13.34 8 13 C8 12.01 8 11.02 8 10 C6.68 9.34 5.36 8.68 4 8 C4 7.34 4 6.68 4 6 C3.34 6 2.68 6 2 6 C2 5.01 2 4.02 2 3 C1.34 3 0.68 3 0 3 C0 2.01 0 1.02 0 0 Z " fill="#F1D3CF" transform="translate(398,210)"/>
<path d="M0 0 C0.33 0.66 0.66 1.32 1 2 C0.484375 2.53625 -0.03125 3.0725 -0.5625 3.625 C-2.32605545 6.00496499 -2.32605545 6.00496499 -1.6875 9.25 C-1.460625 10.1575 -1.23375 11.065 -1 12 C-1.99 12 -2.98 12 -4 12 C-5.67099977 12.31088368 -7.33871537 12.64080332 -9 13 C-8.06398754 11.58235006 -7.1261208 10.16592432 -6.1875 8.75 C-5.66542969 7.96109375 -5.14335937 7.1721875 -4.60546875 6.359375 C-3.12865878 4.18907519 -1.59310127 2.08586232 0 0 Z " fill="#EFD2CF" transform="translate(473,301)"/>
<path d="M0 0 C0.66 0.33 1.32 0.66 2 1 C0.92173635 2.27513763 -0.16285519 3.54492569 -1.25 4.8125 C-1.85328125 5.52019531 -2.4565625 6.22789062 -3.078125 6.95703125 C-4.92370398 8.91889671 -6.79945332 10.45669625 -9 12 C-8.49890042 7.61537866 -7.01704885 5.1999003 -4 2 C-3.34 2 -2.68 2 -2 2 C-1.34 1.34 -0.68 0.68 0 0 Z " fill="#F3DAD6" transform="translate(313,288)"/>
<path d="M0 0 C1.125 3.75 1.125 3.75 0 6 C-2.0625 6.625 -2.0625 6.625 -4 7 C-4 7.99 -4 8.98 -4 10 C-5.98 10.33 -7.96 10.66 -10 11 C-6.79239749 7.19364503 -3.59253891 3.45436433 0 0 Z " fill="#C96D70" transform="translate(333,270)"/>
<path d="M0 0 C0 0.66 0 1.32 0 2 C-2.27069422 2.81289053 -4.54154901 3.62532738 -6.8125 4.4375 C-7.77639648 4.78264648 -7.77639648 4.78264648 -8.75976562 5.13476562 C-11.49928283 6.11417851 -14.23986086 7.07995362 -17 8 C-17 7.01 -17 6.02 -17 5 C-15.865625 4.71125 -14.73125 4.4225 -13.5625 4.125 C-12.386875 3.75375 -11.21125 3.3825 -10 3 C-9.67 2.34 -9.34 1.68 -9 1 C-5.98003217 0.45091494 -3.07380605 0 0 0 Z " fill="#F5D7D3" transform="translate(400,171)"/>
<path d="M0 0 C1.77174819 0.08723378 3.54247377 0.19541655 5.3125 0.3125 C6.29863281 0.37050781 7.28476562 0.42851562 8.30078125 0.48828125 C11.29973047 1.056823 12.09130933 1.71544408 14 4 C14.66 4.33 15.32 4.66 16 5 C16 5.66 16 6.32 16 7 C10.55123997 5.27933894 5.28830549 3.15294651 0 1 C0 0.67 0 0.34 0 0 Z " fill="#F2D2D4" transform="translate(336,174)"/>
<path d="M0 0 C0.66 0 1.32 0 2 0 C0.83424292 3.49727124 0.16676904 4.22262466 -3 6 C-6.234375 6.29296875 -6.234375 6.29296875 -9.75 6.1875 C-10.92046875 6.16042969 -12.0909375 6.13335937 -13.296875 6.10546875 C-14.18890625 6.07066406 -15.0809375 6.03585937 -16 6 C-16 5.67 -16 5.34 -16 5 C-10.6787385 3.91681831 -5.36513131 2.847126 0 2 C0 1.34 0 0.68 0 0 Z " fill="#C36A6C" transform="translate(345,369)"/>
<path d="M0 0 C-1.38188453 3.21043882 -2.92421903 5.04936365 -5.625 7.25 C-6.57246094 8.03117187 -6.57246094 8.03117187 -7.5390625 8.828125 C-8.02117187 9.21484375 -8.50328125 9.6015625 -9 10 C-8.47229401 6.20051686 -7.62859821 3.83079807 -5 1 C-2 0 -2 0 0 0 Z " fill="#C86C70" transform="translate(449,330)"/>
<path d="M0 0 C5.27388024 -0.50227431 7.91015695 0.67105798 12 4 C12.33 4.99 12.66 5.98 13 7 C10.97954558 6.39816251 8.97888961 5.72693904 7 5 C6.67 4.34 6.34 3.68 6 3 C3.67843403 2.59270772 1.3431213 2.25561323 -1 2 C-0.67 1.34 -0.34 0.68 0 0 Z " fill="#F0CFCE" transform="translate(318,213)"/>
<path d="M0 0 C0.99 0.33 1.98 0.66 3 1 C1.3970551 2.29318256 -0.20740142 3.58449156 -1.8125 4.875 C-2.70582031 5.59429687 -3.59914063 6.31359375 -4.51953125 7.0546875 C-7 9 -7 9 -10 11 C-9.74455985 7.55155804 -8.76248498 6.78313846 -6.125 4.375 C-4.12741987 2.8568391 -2.08762379 1.39174919 0 0 Z " fill="#F3D6D6" transform="translate(269,180)"/>
<path d="M0 0 C0.66 0.33 1.32 0.66 2 1 C1.01 2.485 1.01 2.485 0 4 C-0.24150773 6.51584891 -0.24150773 6.51584891 -0.125 9.1875 C-0.10695313 10.08855469 -0.08890625 10.98960937 -0.0703125 11.91796875 C-0.04710937 12.60503906 -0.02390625 13.29210937 0 14 C-0.66 14 -1.32 14 -2 14 C-3.16343227 11.67313547 -3.19895988 10.15278587 -3.25 7.5625 C-3.28867187 6.38880859 -3.28867187 6.38880859 -3.328125 5.19140625 C-2.92823089 2.52068491 -2.05300878 1.68022561 0 0 Z " fill="#C56C71" transform="translate(318,351)"/>
<path d="M0 0 C0.66 0.99 1.32 1.98 2 3 C-1.42388092 6.82669043 -4.00724943 8.72278474 -9 10 C-8.06409496 8.8944811 -7.12620142 7.79064547 -6.1875 6.6875 C-5.66542969 6.07261719 -5.14335937 5.45773437 -4.60546875 4.82421875 C-3.12827531 3.14575321 -1.59960869 1.56117966 0 0 Z " fill="#CB666A" transform="translate(377,293)"/>
<path d="M0 0 C1 3 1 3 0 6 C0.66 6 1.32 6 2 6 C2 7.65 2 9.3 2 11 C0.35 10.67 -1.3 10.34 -3 10 C-2.25 3.375 -2.25 3.375 0 0 Z " fill="#EFE0DF" transform="translate(254,282)"/>
<path d="M0 0 C1.97885999 2.96828999 3.25864997 5.77447054 4.625 9.0625 C5.07101563 10.12597656 5.51703125 11.18945312 5.9765625 12.28515625 C7 15 7 15 7 17 C6.34 17 5.68 17 5 17 C1.21646237 11.63998836 -0.31115613 6.53427864 0 0 Z " fill="#EECFCE" transform="translate(238,266)"/>
<path d="M0 0 C2.97 0.33 5.94 0.66 9 1 C9 1.66 9 2.32 9 3 C12.3 3.33 15.6 3.66 19 4 C19 4.33 19 4.66 19 5 C11.43801103 5.44701413 6.23664375 5.53574091 0 1 C0 0.67 0 0.34 0 0 Z " fill="#CA7A7A" transform="translate(367,252)"/>
<path d="M0 0 C0.33 0.66 0.66 1.32 1 2 C0.25 4.0625 0.25 4.0625 -1 6 C-1.99 6.33 -2.98 6.66 -4 7 C-5.20882096 9.00016466 -5.20882096 9.00016466 -6 11 C-7.32 10.67 -8.64 10.34 -10 10 C-6.7 6.7 -3.4 3.4 0 0 Z " fill="#C46F70" transform="translate(313,228)"/>
<path d="M0 0 C0.78375 0.185625 1.5675 0.37125 2.375 0.5625 C4.97089775 1.25962266 4.97089775 1.25962266 7 0 C7.433125 0.763125 7.86625 1.52625 8.3125 2.3125 C9.73686785 4.58093768 11.03260097 6.2199723 13 8 C12.67 8.66 12.34 9.32 12 10 C10.56047403 8.89847594 9.12345929 7.7936696 7.6875 6.6875 C6.88699219 6.07261719 6.08648437 5.45773438 5.26171875 4.82421875 C3.37298626 3.30083693 1.66922364 1.75565593 0 0 Z " fill="#F1D6D1" transform="translate(458,181)"/>
<path d="M0 0 C0.75 1.75 0.75 1.75 1 4 C-1.71699158 7.69510854 -4.65638712 8.81537831 -9 10 C-8.06409496 8.8944811 -7.12620142 7.79064547 -6.1875 6.6875 C-5.66542969 6.07261719 -5.14335937 5.45773437 -4.60546875 4.82421875 C-3.12827531 3.14575321 -1.59960869 1.56117966 0 0 Z " fill="#F3CDCD" transform="translate(417,305)"/>
<path d="M0 0 C0.66 0 1.32 0 2 0 C0.40956621 5.08938811 -2.7446951 8.87456643 -6 13 C-6.33 12.01 -6.66 11.02 -7 10 C-6.34 9.01 -5.68 8.02 -5 7 C-4.34 7 -3.68 7 -3 7 C-2.814375 5.824375 -2.814375 5.824375 -2.625 4.625 C-2 2 -2 2 0 0 Z " fill="#C36B6F" transform="translate(474,296)"/>
<path d="M0 0 C0.66 0 1.32 0 2 0 C2.14285714 8.57142857 2.14285714 8.57142857 1 12 C0.34 12 -0.32 12 -1 12 C-1.02698189 10.37509046 -1.04638757 8.75005367 -1.0625 7.125 C-1.07410156 6.22007812 -1.08570313 5.31515625 -1.09765625 4.3828125 C-1 2 -1 2 0 0 Z " fill="#E1ECEA" transform="translate(407,228)"/>
<path d="M0 0 C2.31 0.66 4.62 1.32 7 2 C7 2.66 7 3.32 7 4 C10.96 4.33 14.92 4.66 19 5 C19 5.33 19 5.66 19 6 C12.53291985 6.35133031 7.7113835 6.21265322 2 3 C1.34 2.01 0.68 1.02 0 0 Z " fill="#D0898D" transform="translate(349,390)"/>
<path d="M0 0 C1.99954746 -0.04254356 4.00041636 -0.04080783 6 0 C7 1 7 1 7.3125 3.375 C7 6 7 6 5 7.8125 C4.34 8.204375 3.68 8.59625 3 9 C3.33 6.69 3.66 4.38 4 2 C2.68 1.34 1.36 0.68 0 0 Z " fill="#F3CFCE" transform="translate(418,304)"/>
<path d="M0 0 C1.83600745 1.14154359 3.66874805 2.28834316 5.5 3.4375 C6.5209375 4.07558594 7.541875 4.71367187 8.59375 5.37109375 C9.3878125 5.90863281 10.181875 6.44617188 11 7 C11 7.33 11 7.66 11 8 C9.35 8 7.7 8 6 8 C6 7.34 6 6.68 6 6 C5.4225 5.71125 4.845 5.4225 4.25 5.125 C2.16666667 4.08333333 0.08333333 3.04166667 -2 2 C-1.34 1.34 -0.68 0.68 0 0 Z " fill="#F2D6D3" transform="translate(357,246)"/>
<path d="M0 0 C0.66 0.33 1.32 0.66 2 1 C1.67 2.65 1.34 4.3 1 6 C2.32 6.99 3.64 7.98 5 9 C4.67 9.99 4.34 10.98 4 12 C1.03 9.03 -1.94 6.06 -5 3 C-4.34 2.67 -3.68 2.34 -3 2 C-2.34 2.33 -1.68 2.66 -1 3 C-0.67 2.01 -0.34 1.02 0 0 Z " fill="#C46869" transform="translate(343,224)"/>
<path d="M0 0 C-3.85477249 2.56984833 -7.52040582 3.85814266 -12 5 C-12 4.01 -12 3.02 -12 2 C-10.75579353 1.4654744 -9.50429064 0.94791389 -8.25 0.4375 C-7.55390625 0.14746094 -6.8578125 -0.14257812 -6.140625 -0.44140625 C-3.69987216 -1.07831803 -2.3596345 -0.80248831 0 0 Z " fill="#C36B6B" transform="translate(396,176)"/>
<path d="M0 0 C0.66 0 1.32 0 2 0 C2 0.99 2 1.98 2 3 C2.99 3.33 3.98 3.66 5 4 C3.35 5.65 1.7 7.3 0 9 C0 7.35 0 5.7 0 4 C-0.66 3.67 -1.32 3.34 -2 3 C-1.34 2.01 -0.68 1.02 0 0 Z " fill="#C96768" transform="translate(260,265)"/>
<path d="M0 0 C1.65 0 3.3 0 5 0 C3.33784732 1.33895632 1.67036393 2.67130142 0 4 C-0.70125 4.598125 -1.4025 5.19625 -2.125 5.8125 C-2.74375 6.204375 -3.3625 6.59625 -4 7 C-4.99 6.67 -5.98 6.34 -7 6 C-6.67 5.34 -6.34 4.68 -6 4 C-5.34 4 -4.68 4 -4 4 C-3.67 3.01 -3.34 2.02 -3 1 C-2.01 1 -1.02 1 0 1 C0 0.67 0 0.34 0 0 Z " fill="#F2DBDA" transform="translate(377,179)"/>
<path d="M0 0 C-1.28813342 0.83878455 -2.58063256 1.67086783 -3.875 2.5 C-4.59429687 2.9640625 -5.31359375 3.428125 -6.0546875 3.90625 C-8 5 -8 5 -10 5 C-10 5.66 -10 6.32 -10 7 C-10.66 6.67 -11.32 6.34 -12 6 C-7.61058601 0.26937618 -7.61058601 0.26937618 -4.875 -0.9375 C-3 -1 -3 -1 0 0 Z " fill="#C47775" transform="translate(388,385)"/>
<path d="M0 0 C2 2 2 2 2.125 4.625 C2.08375 5.40875 2.0425 6.1925 2 7 C0.68 7.33 -0.64 7.66 -2 8 C-2.33 7.01 -2.66 6.02 -3 5 C-1.5625 2.3125 -1.5625 2.3125 0 0 Z " fill="#EAE5E8" transform="translate(399,327)"/>
<path d="M0 0 C1.65 0 3.3 0 5 0 C2.68462045 3.72114571 0.71420527 6.61229661 -3 9 C-3 7.68 -3 6.36 -3 5 C-2.01 5 -1.02 5 0 5 C0 3.35 0 1.7 0 0 Z " fill="#F4DBD9" transform="translate(277,260)"/>
<path d="M0 0 C0.33 0.66 0.66 1.32 1 2 C-2 3 -2 3 -4.4375 2.9375 C-7.19322942 3.00471291 -8.65584273 3.61086976 -11 5 C-5.87844408 -1.65802269 -5.87844408 -1.65802269 0 0 Z " fill="#C37773" transform="translate(325,223)"/>
<path d="M0 0 C0.99 0.33 1.98 0.66 3 1 C2.06409496 2.1055189 1.12620142 3.20935453 0.1875 4.3125 C-0.33457031 4.92738281 -0.85664063 5.54226562 -1.39453125 6.17578125 C-2.87172469 7.85424679 -4.40039131 9.43882034 -6 11 C-5.67 9.02 -5.34 7.04 -5 5 C-4.34 5 -3.68 5 -3 5 C-3 4.01 -3 3.02 -3 2 C-2.01 2 -1.02 2 0 2 C0 1.34 0 0.68 0 0 Z " fill="#F1D8D5" transform="translate(252,195)"/>
<path d="M0 0 C0.66 0.33 1.32 0.66 2 1 C1.375 2.875 1.375 2.875 0 5 C-3.81058817 6.73961634 -6.03483443 7.19298271 -10 6 C-9.36191406 5.65066406 -8.72382813 5.30132812 -8.06640625 4.94140625 C-7.24011719 4.48636719 -6.41382813 4.03132813 -5.5625 3.5625 C-4.73878906 3.11003906 -3.91507812 2.65757812 -3.06640625 2.19140625 C-1.07691202 1.16337603 -1.07691202 1.16337603 0 0 Z " fill="#F1D9D4" transform="translate(388,384)"/>
<path d="M0 0 C2 2 2 2 2.1953125 3.9453125 C2.13020833 5.96354167 2.06510417 7.98177083 2 10 C1.01 10.495 1.01 10.495 0 11 C-1.49297212 8.01405576 -1.11755228 5.29146376 -1 2 C-0.67 1.34 -0.34 0.68 0 0 Z " fill="#C16D6D" transform="translate(348,379)"/>
<path d="M0 0 C1.09658936 3.28976808 0.79953138 4.71303767 0 8 C-1.65 7.67 -3.3 7.34 -5 7 C-2.25 1.125 -2.25 1.125 0 0 Z " fill="#E4EAE8" transform="translate(332,327)"/>
<path d="M0 0 C1.65 0 3.3 0 5 0 C5 0.66 5 1.32 5 2 C4.34 2 3.68 2 3 2 C3 3.32 3 4.64 3 6 C1.68 6 0.36 6 -1 6 C-0.67 4.02 -0.34 2.04 0 0 Z " fill="#E8EAE6" transform="translate(266,269)"/>
<path d="M0 0 C1.65 0.33 3.3 0.66 5 1 C5.1875 3.875 5.1875 3.875 5 7 C4.01 7.66 3.02 8.32 2 9 C2 7.68 2 6.36 2 5 C2.66 5 3.32 5 4 5 C4 4.34 4 3.68 4 3 C1.69 3.33 -0.62 3.66 -3 4 C-2.01 2.68 -1.02 1.36 0 0 Z " fill="#E9D7D2" transform="translate(267,266)"/>
<path d="M0 0 C1 2 1 2 0.75 3.9375 C-0.14038756 6.3860658 -0.91574057 7.43680542 -3 9 C-5.6875 9.6875 -5.6875 9.6875 -8 10 C-5.61820737 6.25718301 -3.25524265 3.02272532 0 0 Z " fill="#EED6D4" transform="translate(334,256)"/>
<path d="M0 0 C1.32 0.33 2.64 0.66 4 1 C1.36 3.97 -1.28 6.94 -4 10 C-4.66 9.01 -5.32 8.02 -6 7 C-5.195625 6.401875 -4.39125 5.80375 -3.5625 5.1875 C-0.77672016 3.19052724 -0.77672016 3.19052724 0 0 Z " fill="#C76A70" transform="translate(272,256)"/>
<path d="M0 0 C0.99 0.495 0.99 0.495 2 1 C2 1.66 2 2.32 2 3 C2.99 3.33 3.98 3.66 5 4 C5.33 4.99 5.66 5.98 6 7 C5.01 8.485 5.01 8.485 4 10 C2 8.375 2 8.375 0 6 C-0.25 2.75 -0.25 2.75 0 0 Z " fill="#CD6C71" transform="translate(331,229)"/>
<path d="M0 0 C1.32 0.33 2.64 0.66 4 1 C2.71372289 2.17260611 1.42080217 3.3379283 0.125 4.5 C-0.59429687 5.1496875 -1.31359375 5.799375 -2.0546875 6.46875 C-4 8 -4 8 -6 8 C-5.75 6.125 -5.75 6.125 -5 4 C-3 2.875 -3 2.875 -1 2 C-0.67 1.34 -0.34 0.68 0 0 Z " fill="#C66D70" transform="translate(410,364)"/>
<path d="M0 0 C0 3.99904969 -1.72586967 5.80200422 -4 9 C-5.32 8.34 -6.64 7.68 -8 7 C-7.01 6.67 -6.02 6.34 -5 6 C-4.67 5.01 -4.34 4.02 -4 3 C-1.9375 1.3125 -1.9375 1.3125 0 0 Z " fill="#F0D1D0" transform="translate(389,333)"/>
<path d="M0 0 C0.33 0 0.66 0 1 0 C1.20086443 3.71599191 1.1519437 4.77208445 -1 8 C-1.99 8 -2.98 8 -4 8 C-3.67 6.02 -3.34 4.04 -3 2 C-2.01 2 -1.02 2 0 2 C0 1.34 0 0.68 0 0 Z " fill="#EADEDC" transform="translate(493,266)"/>
<path d="M0 0 C1.98 0 3.96 0 6 0 C5.02433888 1.16959987 4.044375 2.33561177 3.0625 3.5 C2.51722656 4.1496875 1.97195313 4.799375 1.41015625 5.46875 C0.94480469 5.9740625 0.47945313 6.479375 0 7 C-0.33 7 -0.66 7 -1 7 C-0.67 4.69 -0.34 2.38 0 0 Z " fill="#CC7172" transform="translate(319,266)"/>
<path d="M0 0 C1.32 0 2.64 0 4 0 C4.2475 0.5775 4.495 1.155 4.75 1.75 C6.16683317 4.3002997 7.87627537 6.01785701 10 8 C7 8 7 8 4.4375 5.6875 C2 3 2 3 0 0 Z " fill="#C46F71" transform="translate(348,236)"/>
<path d="M0 0 C0.66 0.33 1.32 0.66 2 1 C1.67 1.99 1.34 2.98 1 4 C0.01 4.33 -0.98 4.66 -2 5 C-2.33 5.66 -2.66 6.32 -3 7 C-4.97888961 7.72693904 -6.97954558 8.39816251 -9 9 C-6 6 -3 3 0 0 Z " fill="#EFCDCC" transform="translate(416,362)"/>
<path d="M0 0 C0.99 0.33 1.98 0.66 3 1 C3.33 2.65 3.66 4.3 4 6 C4.99 6 5.98 6 7 6 C7.33 7.32 7.66 8.64 8 10 C4.49285949 8.10424837 2.05538941 6.46170848 0 3 C0 2.01 0 1.02 0 0 Z " fill="#C57777" transform="translate(285,336)"/>
<path d="M0 0 C1.65 0 3.3 0 5 0 C3.60667426 3.36720387 2.0210714 4.9859524 -1 7 C-0.67 4.69 -0.34 2.38 0 0 Z " fill="#C8666C" transform="translate(452,321)"/>
<path d="M0 0 C0.66 1.32 1.32 2.64 2 4 C-0.64 4 -3.28 4 -6 4 C-6.33 3.01 -6.66 2.02 -7 1 C-4.53721199 -0.231394 -2.7204945 -0.07159196 0 0 Z " fill="#C86B67" transform="translate(423,301)"/>
<path d="M0 0 C0 0.66 0 1.32 0 2 C-0.99 2 -1.98 2 -3 2 C-2.67 2.99 -2.34 3.98 -2 5 C-3.98 5.99 -3.98 5.99 -6 7 C-6.33 5.68 -6.66 4.36 -7 3 C-3.375 0 -3.375 0 0 0 Z " fill="#E4EBEC" transform="translate(364,300)"/>
<path d="M0 0 C0.99 0 1.98 0 3 0 C2.42655063 2.86724686 2.1385485 3.8614515 0 6 C-0.66 5.67 -1.32 5.34 -2 5 C-2 5.66 -2 6.32 -2 7 C-2.66 7 -3.32 7 -4 7 C-2.79618552 4.50638429 -1.54571278 2.31856917 0 0 Z " fill="#E6EBEA" transform="translate(301,232)"/>
<path d="M0 0 C0.33 0 0.66 0 1 0 C1.55573751 2.12136362 2.09421768 4.24725521 2.625 6.375 C2.92664063 7.55835938 3.22828125 8.74171875 3.5390625 9.9609375 C3.69117188 10.96382813 3.84328125 11.96671875 4 13 C3.34 13.66 2.68 14.32 2 15 C0.2520497 9.75614911 -0.19392201 5.52677733 0 0 Z " fill="#F0DAD2" transform="translate(282,327)"/>
<path d="M0 0 C1 2 1 2 0.375 3.9375 C-1.3792518 6.5688777 -3.16320216 7.65252103 -6 9 C-6.66 8.67 -7.32 8.34 -8 8 C-5.36 5.36 -2.72 2.72 0 0 Z " fill="#C56D72" transform="translate(342,261)"/>
<path d="M0 0 C0.33 0.99 0.66 1.98 1 3 C-0.40445835 5.2636564 -2.1967913 7.0208685 -4 9 C-5.32 8.67 -6.64 8.34 -8 8 C-5.33333333 5.33333333 -2.66666667 2.66666667 0 0 Z " fill="#C97172" transform="translate(406,250)"/>
<path d="M0 0 C1.32 1.32 2.64 2.64 4 4 C3.01 4.495 3.01 4.495 2 5 C2.33 5.66 2.66 6.32 3 7 C2.34 7 1.68 7 1 7 C0.67 7.66 0.34 8.32 0 9 C-0.99 8.01 -1.98 7.02 -3 6 C-2.505 5.566875 -2.01 5.13375 -1.5 4.6875 C0.33218192 3.00259517 0.33218192 3.00259517 0 0 Z " fill="#ECD1D0" transform="translate(339,228)"/>
<path d="M0 0 C0 0.33 0 0.66 0 1 C-4.32059823 2.09845718 -8.61667943 3.17812739 -13 4 C-13 3.34 -13 2.68 -13 2 C-12.01 2 -11.02 2 -10 2 C-10 1.34 -10 0.68 -10 0 C-6.7169902 -1.6415049 -3.57454967 -0.51888624 0 0 Z " fill="#EECACA" transform="translate(298,171)"/>
<path d="M0 0 C0.66 0.99 1.32 1.98 2 3 C-0.97 5.475 -0.97 5.475 -4 8 C-4.25 5.6875 -4.25 5.6875 -4 3 C-2 1.1875 -2 1.1875 0 0 Z " fill="#EFE0DC" transform="translate(391,338)"/>
<path d="M0 0 C0.33 1.32 0.66 2.64 1 4 C-0.1875 5.8125 -0.1875 5.8125 -2 7 C-3.32 6.67 -4.64 6.34 -6 6 C-4.02 4.02 -2.04 2.04 0 0 Z " fill="#C57275" transform="translate(344,325)"/>
<path d="M0 0 C0.33 0.66 0.66 1.32 1 2 C1.99 2 2.98 2 4 2 C4 1.34 4 0.68 4 0 C4.99 0.33 5.98 0.66 7 1 C3.535 3.97 3.535 3.97 0 7 C0 4.69 0 2.38 0 0 Z " fill="#CB686F" transform="translate(369,281)"/>
<path d="M0 0 C0.33 0.66 0.66 1.32 1 2 C-0.80831392 5.61662784 -3.05278838 8.25604436 -6 11 C-6.66 10.67 -7.32 10.34 -8 10 C-5.36 6.7 -2.72 3.4 0 0 Z " fill="#C5797A" transform="translate(270,274)"/>
<path d="M0 0 C0.99 0.99 1.98 1.98 3 3 C1.25 4.5625 1.25 4.5625 -1 6 C-3.25 5.6875 -3.25 5.6875 -5 5 C-3.35 3.35 -1.7 1.7 0 0 Z " fill="#F4E0E0" transform="translate(325,266)"/>
<path d="M0 0 C0.66 0.33 1.32 0.66 2 1 C-1.12621626 4.39417765 -3.56541027 6.6062718 -8 8 C-8 7.01 -8 6.02 -8 5 C-6.68 5 -5.36 5 -4 5 C-4 4.01 -4 3.02 -4 2 C-2.68 2 -1.36 2 0 2 C0 1.34 0 0.68 0 0 Z " fill="#C47177" transform="translate(396,248)"/>
<path d="M0 0 C0.66 0 1.32 0 2 0 C3.5625 2.8125 3.5625 2.8125 5 6 C4.67 6.99 4.34 7.98 4 9 C3.67 9 3.34 9 3 9 C2.67 7.35 2.34 5.7 2 4 C0.68 4.33 -0.64 4.66 -2 5 C-1.34 3.35 -0.68 1.7 0 0 Z " fill="#E7CFCC" transform="translate(403,241)"/>
<path d="M0 0 C2.25998595 3.59462331 2.20868087 6.56595675 2.125 10.75 C2.10695313 11.92046875 2.08890625 13.0909375 2.0703125 14.296875 C2.03550781 15.63492188 2.03550781 15.63492188 2 17 C1.67 17 1.34 17 1 17 C0.93941406 16.26394531 0.87882812 15.52789062 0.81640625 14.76953125 C0.73261719 13.79371094 0.64882813 12.81789062 0.5625 11.8125 C0.48128906 10.84957031 0.40007812 9.88664063 0.31640625 8.89453125 C0.04941042 6.0001302 0.04941042 6.0001302 -0.59765625 3.19921875 C-0.73042969 2.47347656 -0.86320312 1.74773437 -1 1 C-0.67 0.67 -0.34 0.34 0 0 Z " fill="#C66669" transform="translate(411,225)"/>
<path d="M0 0 C0 0.66 0 1.32 0 2 C0.66 2.33 1.32 2.66 2 3 C2 3.66 2 4.32 2 5 C-3 3 -3 3 -8 1 C-8 0.67 -8 0.34 -8 0 C-2.25 -1.125 -2.25 -1.125 0 0 Z " fill="#EDCFCA" transform="translate(456,176)"/>
<path d="M0 0 C3.40755272 1.92880342 6.74147635 3.8276509 10 6 C7.03 5.67 4.06 5.34 1 5 C0.67 3.35 0.34 1.7 0 0 Z " fill="#F7D8D8" transform="translate(348,390)"/>
<path d="M0 0 C1.32 0.66 2.64 1.32 4 2 C1.69 3.65 -0.62 5.3 -3 7 C-3.33 6.34 -3.66 5.68 -4 5 C-3 2 -3 2 0 0 Z " fill="#C76C6B" transform="translate(352,362)"/>
<path d="M0 0 C0.66 0.33 1.32 0.66 2 1 C-1.465 3.97 -1.465 3.97 -5 7 C-5.33 5.68 -5.66 4.36 -6 3 C-4.03533587 1.93224776 -2.03144641 0.93446535 0 0 Z " fill="#C46C6F" transform="translate(367,351)"/>
<path d="M0 0 C1.32 0.33 2.64 0.66 4 1 C0.535 3.97 0.535 3.97 -3 7 C-3.66 6.34 -4.32 5.68 -5 5 C-2.75 2.4375 -2.75 2.4375 0 0 Z " fill="#C7656B" transform="translate(281,308)"/>
<path d="M0 0 C1.32 0.33 2.64 0.66 4 1 C1.69 3.31 -0.62 5.62 -3 8 C-3.33 7.34 -3.66 6.68 -4 6 C-3.67 5.01 -3.34 4.02 -3 3 C-2.01 3 -1.02 3 0 3 C0 2.01 0 1.02 0 0 Z " fill="#C97276" transform="translate(314,273)"/>
<path d="M0 0 C4.35535069 1.16142685 6.64619703 2.07699505 9 6 C5 6 5 6 3.515625 4.6875 C2.34375 3.125 1.171875 1.5625 0 0 Z " fill="#E9D0CC" transform="translate(324,222)"/>
<path d="M0 0 C0.99 0.99 1.98 1.98 3 3 C1.35 4.32 -0.3 5.64 -2 7 C-2.33 5.35 -2.66 3.7 -3 2 C-2.01 1.34 -1.02 0.68 0 0 Z " fill="#C96669" transform="translate(308,217)"/>
<path d="M0 0 C3.63 0 7.26 0 11 0 C11.33 0.99 11.66 1.98 12 3 C11.30132812 2.91621094 10.60265625 2.83242187 9.8828125 2.74609375 C8.97273438 2.64425781 8.06265625 2.54242188 7.125 2.4375 C6.22007812 2.33308594 5.31515625 2.22867188 4.3828125 2.12109375 C1.98346943 1.80325148 1.98346943 1.80325148 0 3 C0 2.01 0 1.02 0 0 Z " fill="#C37577" transform="translate(316,212)"/>
<path d="M0 0 C0.66 0.33 1.32 0.66 2 1 C2 3.97 2 6.94 2 10 C1.01 10 0.02 10 -1 10 C-1.125 3.375 -1.125 3.375 0 0 Z " fill="#F2CFCB" transform="translate(346,380)"/>
<path d="M0 0 C1.32 0.33 2.64 0.66 4 1 C1.69 3.31 -0.62 5.62 -3 8 C-3.33 7.01 -3.66 6.02 -4 5 C-3.34 5 -2.68 5 -2 5 C-2 4.34 -2 3.68 -2 3 C-1.34 3 -0.68 3 0 3 C0 2.01 0 1.02 0 0 Z " fill="#F3DAD7" transform="translate(341,324)"/>
<path d="M0 0 C0.6875 1.8125 0.6875 1.8125 1 4 C-0.25 5.75 -0.25 5.75 -2 7 C-2.99 7 -3.98 7 -5 7 C-5 6.34 -5 5.68 -5 5 C-4.34 5 -3.68 5 -3 5 C-2.5359375 4.0409375 -2.5359375 4.0409375 -2.0625 3.0625 C-1 1 -1 1 0 0 Z " fill="#C66F6E" transform="translate(290,315)"/>
<path d="M0 0 C0.33 0 0.66 0 1 0 C1 1.98 1 3.96 1 6 C0.01 6 -0.98 6 -2 6 C-4.15028304 6.94978897 -4.15028304 6.94978897 -6 8 C-5.02471263 6.66382648 -4.04466681 5.3311249 -3.0625 4 C-2.24458984 2.88625 -2.24458984 2.88625 -1.41015625 1.75 C-0.94480469 1.1725 -0.47945313 0.595 0 0 Z " fill="#F2D4D4" transform="translate(262,272)"/>
<path d="M0 0 C0.99 0.66 1.98 1.32 3 2 C0.03 4.475 0.03 4.475 -3 7 C-3 5.68 -3 4.36 -3 3 C-2.01 2.67 -1.02 2.34 0 2 C0 1.34 0 0.68 0 0 Z " fill="#E6E0D4" transform="translate(346,253)"/>
<path d="M0 0 C4.75 1.875 4.75 1.875 7 3 C7.625 5.0625 7.625 5.0625 8 7 C7.01 7.495 7.01 7.495 6 8 C4.02 5.36 2.04 2.72 0 0 Z " fill="#C47072" transform="translate(399,210)"/>
<path d="M0 0 C1.14926266 0.95421808 2.29430541 1.91352045 3.4375 2.875 C4.07558594 3.40867188 4.71367187 3.94234375 5.37109375 4.4921875 C7 6 7 6 8 8 C6.68 7.67 5.36 7.34 4 7 C4 6.34 4 5.68 4 5 C2.68 4.67 1.36 4.34 0 4 C0 2.68 0 1.36 0 0 Z " fill="#C66A6F" transform="translate(385,208)"/>
<path d="M0 0 C4.51478398 0.53115106 7.34666857 2.36620292 11 5 C10.01 5.495 10.01 5.495 9 6 C6.8359375 5.22265625 6.8359375 5.22265625 4.375 4.0625 C3.55773437 3.68222656 2.74046875 3.30195313 1.8984375 2.91015625 C1.27195312 2.60980469 0.64546875 2.30945313 0 2 C0 1.34 0 0.68 0 0 Z " fill="#BE6A6C" transform="translate(448,177)"/>
<path d="M0 0 C0.33 1.32 0.66 2.64 1 4 C-1.31 4.66 -3.62 5.32 -6 6 C-2.25 1.125 -2.25 1.125 0 0 Z " fill="#C77275" transform="translate(351,319)"/>
<path d="M0 0 C0.33 0 0.66 0 1 0 C1 2.97 1 5.94 1 9 C0.34 9 -0.32 9 -1 9 C-1.33 9.66 -1.66 10.32 -2 11 C-1.125 3.375 -1.125 3.375 0 0 Z " fill="#C5797A" transform="translate(239,221)"/>
<path d="M0 0 C1.32 0.33 2.64 0.66 4 1 C4 1.66 4 2.32 4 3 C6.97 3.495 6.97 3.495 10 4 C9.01 4.495 9.01 4.495 8 5 C7.67 5.66 7.34 6.32 7 7 C5 5.625 5 5.625 3 4 C3 3.34 3 2.68 3 2 C2.01 1.67 1.02 1.34 0 1 C0 0.67 0 0.34 0 0 Z " fill="#EED3D1" transform="translate(376,200)"/>
<path d="M0 0 C0 3 0 3 -2 6 C-4.625 6.6875 -4.625 6.6875 -7 7 C-4.66666667 4.66666667 -2.33333333 2.33333333 0 0 Z " fill="#C37173" transform="translate(365,365)"/>
<path d="M0 0 C0.625 1.875 0.625 1.875 1 4 C0.34 4.66 -0.32 5.32 -1 6 C-2.5 4.625 -2.5 4.625 -4 3 C-4 2.34 -4 1.68 -4 1 C-2 0 -2 0 0 0 Z " fill="#ECE6E5" transform="translate(374,351)"/>
<path d="M0 0 C0 3.69418201 -1.28179295 5.77836178 -3 9 C-3.66 8.67 -4.32 8.34 -5 8 C-5 5 -5 5 -2.5 2.3125 C-1.675 1.549375 -0.85 0.78625 0 0 Z " fill="#EACCC9" transform="translate(317,339)"/>
<path d="M0 0 C0.33 0.99 0.66 1.98 1 3 C-1.64 4.98 -4.28 6.96 -7 9 C-5.04783565 5.09567131 -3.12613393 2.96160056 0 0 Z " fill="#C36769" transform="translate(401,333)"/>
<path d="M0 0 C0.33 1.32 0.66 2.64 1 4 C0.01 4 -0.98 4 -2 4 C-2.33 4.99 -2.66 5.98 -3 7 C-3.99 6.67 -4.98 6.34 -6 6 C-4.02 4.02 -2.04 2.04 0 0 Z " fill="#EECBCA" transform="translate(407,315)"/>
<path d="M0 0 C0.99 0 1.98 0 3 0 C1.60667426 3.36720387 0.0210714 4.9859524 -3 7 C-3 6.01 -3 5.02 -3 4 C-2.34 4 -1.68 4 -1 4 C-0.67 2.68 -0.34 1.36 0 0 Z " fill="#CB6F72" transform="translate(340,313)"/>
<path d="M0 0 C0.33 0.99 0.66 1.98 1 3 C-1.40339772 5.76390737 -2.16263678 6.04065919 -6 7 C-4.02 4.69 -2.04 2.38 0 0 Z " fill="#ECD2CF" transform="translate(278,254)"/>
<path d="M0 0 C0.33 0.66 0.66 1.32 1 2 C-0.4375 4.625 -0.4375 4.625 -2 7 C-3.32 6.67 -4.64 6.34 -6 6 C-4.02 4.02 -2.04 2.04 0 0 Z " fill="#F2DAD4" transform="translate(292,239)"/>
<path d="M0 0 C0.66 0 1.32 0 2 0 C2.33 0.99 2.66 1.98 3 3 C2.01 4.485 2.01 4.485 1 6 C-0.32 5.34 -1.64 4.68 -3 4 C-2.34 3.34 -1.68 2.68 -1 2 C-0.67 1.34 -0.34 0.68 0 0 Z " fill="#F1E8E6" transform="translate(337,228)"/>
<path d="M0 0 C1.98 0.66 3.96 1.32 6 2 C6.33 3.98 6.66 5.96 7 8 C4.35247996 5.42215154 2.05567935 3.08351902 0 0 Z " fill="#F8D7D5" transform="translate(473,193)"/>
<path d="M0 0 C0.99 0.33 1.98 0.66 3 1 C0.03 3.475 0.03 3.475 -3 6 C-2.625 3.5625 -2.625 3.5625 -2 1 C-1.34 0.67 -0.68 0.34 0 0 Z " fill="#F4D7D7" transform="translate(365,362)"/>
<path d="M0 0 C0.33 1.32 0.66 2.64 1 4 C0.01 4.66 -0.98 5.32 -2 6 C-2.99 5.67 -3.98 5.34 -5 5 C-3.35 3.35 -1.7 1.7 0 0 Z " fill="#F1D5CE" transform="translate(443,337)"/>
<path d="M0 0 C2.475 0.495 2.475 0.495 5 1 C3.35 2.65 1.7 4.3 0 6 C0 4.02 0 2.04 0 0 Z " fill="#CB696A" transform="translate(433,341)"/>
<path d="M0 0 C2.475 0.495 2.475 0.495 5 1 C5 1.99 5 2.98 5 4 C3.35 4 1.7 4 0 4 C0 2.68 0 1.36 0 0 Z " fill="#E0E8EA" transform="translate(294,300)"/>
<path d="M0 0 C0.66 0.33 1.32 0.66 2 1 C2 1.66 2 2.32 2 3 C1.01 3 0.02 3 -1 3 C-1 3.66 -1 4.32 -1 5 C-2.32 4.34 -3.64 3.68 -5 3 C-2.625 1.4375 -2.625 1.4375 0 0 Z " fill="#EAE0DC" transform="translate(300,294)"/>
<path d="M0 0 C0 0.99 0 1.98 0 3 C-1.65 3.33 -3.3 3.66 -5 4 C-5.33 3.01 -5.66 2.02 -6 1 C-3.92446352 0.4465236 -2.15634036 0 0 0 Z " fill="#E4E8EA" transform="translate(378,285)"/>
<path d="M0 0 C0.33 1.32 0.66 2.64 1 4 C0.01 4.66 -0.98 5.32 -2 6 C-2.99 5.67 -3.98 5.34 -5 5 C-3.35 3.35 -1.7 1.7 0 0 Z " fill="#F1D5D4" transform="translate(381,276)"/>
<path d="M0 0 C2.475 0.495 2.475 0.495 5 1 C4.67 2.32 4.34 3.64 4 5 C2.68 4.67 1.36 4.34 0 4 C0 2.68 0 1.36 0 0 Z " fill="#EAEAE2" transform="translate(343,236)"/>
<path d="M0 0 C2.4375 0.6875 2.4375 0.6875 5 2 C5.8125 4.625 5.8125 4.625 6 7 C3.95880212 5.38405168 1.95927063 3.7143618 0 2 C0 1.34 0 0.68 0 0 Z " fill="#C56E72" transform="translate(330,217)"/>
<path d="M0 0 C2.97 0.495 2.97 0.495 6 1 C6.33 2.65 6.66 4.3 7 6 C5.83054208 5.19152271 4.66449539 4.37810888 3.5 3.5625 C2.8503125 3.11003906 2.200625 2.65757812 1.53125 2.19140625 C1.0259375 1.79824219 0.520625 1.40507812 0 1 C0 0.67 0 0.34 0 0 Z " fill="#EECED1" transform="translate(392,214)"/>
</svg>
