<?xml version="1.0" standalone="no"?>
<!DOCTYPE svg PUBLIC "-//W3C//DTD SVG 20010904//EN"
 "http://www.w3.org/TR/2001/REC-SVG-20010904/DTD/svg10.dtd">
<svg version="1.0" xmlns="http://www.w3.org/2000/svg"
 width="135.000000pt" height="181.000000pt" viewBox="0 0 135.000000 181.000000"
 preserveAspectRatio="xMidYMid meet">

<g transform="translate(0.000000,181.000000) scale(0.100000,-0.100000)"
fill="#000000" stroke="none">
<path d="M644 1723 c-12 -13 -14 -29 -10 -75 3 -32 9 -85 12 -118 6 -59 17
-81 34 -64 11 11 32 226 24 247 -8 22 -42 28 -60 10z"/>
<path d="M460 1615 c-17 -21 -7 -50 42 -124 45 -68 64 -83 74 -57 6 15 -47
157 -68 184 -14 16 -33 15 -48 -3z"/>
<path d="M832 1618 c-14 -18 -72 -165 -72 -184 0 -33 36 -6 82 61 48 72 60
118 32 129 -23 9 -30 8 -42 -6z"/>
<path d="M984 1444 c-45 -16 -112 -69 -144 -114 -11 -16 -29 -63 -39 -105 -21
-82 -43 -125 -65 -125 -7 0 -123 66 -257 146 -267 161 -293 174 -341 174 -44
0 -73 -22 -99 -72 -39 -77 -3 -131 178 -263 45 -33 82 -65 83 -71 0 -6 -36
-74 -79 -151 -80 -141 -101 -193 -101 -248 0 -39 39 -120 130 -270 129 -214
130 -215 405 -215 189 0 203 1 250 24 64 30 78 46 164 190 111 184 123 212
124 281 0 67 -12 96 -97 230 -48 77 -51 83 -54 162 -5 106 16 179 74 257 24
32 47 69 50 83 9 36 -11 72 -51 89 -42 17 -78 17 -131 -2z m106 -71 c0 -5 -21
-37 -45 -73 -51 -72 -71 -128 -80 -227 -9 -97 7 -152 83 -283 94 -161 94 -168
-18 -363 -93 -163 -126 -202 -179 -217 -47 -13 -336 -13 -383 0 -20 6 -50 23
-65 39 -39 39 -203 329 -203 358 0 38 18 63 45 63 29 0 394 -180 414 -204 11
-13 11 -19 1 -31 -7 -8 -18 -15 -25 -15 -7 0 -72 29 -143 65 -72 36 -136 65
-142 65 -18 0 -11 -39 20 -100 17 -33 33 -60 37 -60 3 0 11 7 17 15 9 13 22 9
90 -25 105 -53 154 -54 202 -6 19 19 34 43 34 55 0 14 11 25 35 36 27 11 41
26 56 60 11 25 18 54 14 63 -3 12 4 27 20 42 48 45 43 120 -13 173 -60 57
-368 226 -439 241 -29 7 -120 68 -260 177 -29 22 -56 51 -59 65 -12 47 33 69
86 40 14 -7 133 -77 265 -155 132 -79 254 -145 272 -148 66 -11 131 66 148
177 4 25 13 57 21 71 16 32 68 77 109 95 33 14 85 18 85 7z m-575 -458 c141
-73 275 -156 296 -183 14 -19 16 -28 8 -38 -17 -21 -31 -18 -101 22 -112 65
-318 163 -354 170 -40 7 -41 12 -13 48 29 37 64 33 164 -19z m-50 -160 c50
-25 137 -71 195 -103 88 -49 105 -63 105 -83 0 -17 -6 -25 -21 -27 -12 -2
-116 44 -233 102 -117 59 -221 106 -232 106 -24 0 -24 17 -2 43 25 27 78 16
188 -38z"/>
</g>
</svg>
