<?xml version="1.0" standalone="no"?>
<!DOCTYPE svg PUBLIC "-//W3C//DTD SVG 20010904//EN"
 "http://www.w3.org/TR/2001/REC-SVG-20010904/DTD/svg10.dtd">
<svg version="1.0" xmlns="http://www.w3.org/2000/svg"
 width="450.000000pt" height="348.000000pt" viewBox="0 0 450.000000 348.000000"
 preserveAspectRatio="xMidYMid meet">

<g transform="translate(0.000000,348.000000) scale(0.100000,-0.100000)"
fill="#000000" stroke="none">
<path d="M1653 2951 c-45 -21 -83 -54 -83 -73 0 -6 10 -2 23 10 33 31 71 42
140 41 113 -1 217 -62 262 -153 87 -177 -34 -436 -233 -501 -87 -29 -251 -17
-437 31 -140 36 -160 39 -295 39 -136 0 -148 -2 -201 -26 -66 -31 -129 -90
-161 -151 -32 -62 -32 -165 2 -231 27 -53 117 -145 170 -172 31 -16 27 -10
-31 53 -122 129 -140 239 -54 339 41 48 84 70 164 84 75 14 158 1 345 -51 191
-54 234 -61 356 -61 166 -1 269 40 367 143 88 94 137 216 136 343 0 148 -65
255 -191 317 -57 28 -79 33 -152 36 -67 2 -94 -1 -127 -17z"/>
<path d="M3254 2759 c-10 -17 13 -36 27 -22 12 12 4 33 -11 33 -5 0 -12 -5
-16 -11z"/>
<path d="M2565 2403 c-37 -49 -65 -125 -65 -179 0 -18 9 -61 20 -96 11 -34 20
-64 20 -64 0 -1 -21 -9 -47 -19 -56 -22 -118 -76 -144 -127 -11 -21 -17 -38
-15 -38 3 0 26 19 53 42 99 85 209 110 305 69 120 -51 151 -134 65 -174 -67
-32 -157 -39 -303 -22 -75 9 -139 14 -142 10 -32 -32 253 -63 426 -46 189 19
200 27 163 113 -33 76 -74 122 -142 157 -35 19 -65 35 -67 36 -1 1 2 15 8 31
24 62 31 134 20 189 -12 57 -80 165 -105 165 -8 0 -30 -21 -50 -47z m63 -38
c21 -45 15 -109 -11 -134 -28 -25 -50 -20 -66 15 -16 35 -14 52 10 101 24 49
50 56 67 18z"/>
<path d="M3588 2315 c-16 -21 -16 -23 0 -37 15 -13 19 -13 34 3 14 15 15 20 4
26 -7 4 -15 13 -17 20 -2 6 -11 2 -21 -12z"/>
<path d="M3187 2118 c-4 -15 -20 -34 -35 -42 -20 -11 -22 -15 -9 -16 10 0 25
-13 35 -29 16 -28 16 -29 27 -8 6 12 20 26 32 32 21 11 20 11 -7 27 -16 9 -30
27 -32 40 -3 22 -4 22 -11 -4z"/>
<path d="M2300 1728 c-11 -18 -20 -36 -20 -39 0 -3 -9 -10 -21 -15 -24 -11
-37 -10 289 -20 148 -4 222 -9 220 -16 -2 -6 -24 -21 -48 -34 -133 -68 -540
-71 -540 -3 0 5 12 21 27 35 26 24 24 23 -39 -6 -126 -59 -243 -53 -546 29
-99 27 -227 57 -285 66 l-106 18 -53 -36 c-40 -27 -83 -44 -176 -67 -67 -17
-146 -39 -176 -50 -53 -20 -95 -54 -83 -67 4 -3 50 2 102 12 73 13 125 16 223
13 214 -9 299 -47 567 -253 156 -120 259 -187 370 -240 198 -96 342 -125 621
-125 216 0 322 17 422 67 81 40 167 123 198 192 20 43 34 52 34 23 0 -29 35
-54 77 -57 21 -2 61 -13 88 -25 55 -25 158 -36 228 -26 100 15 183 108 194
220 6 61 -5 156 -16 137 -5 -8 -16 1 -35 27 -109 158 -313 196 -512 96 -53
-26 -63 -29 -48 -13 43 48 152 89 264 99 l85 8 -95 -2 c-83 -1 -103 -6 -160
-33 -36 -16 -85 -49 -109 -71 l-44 -41 -46 40 c-25 23 -80 57 -122 77 -59 29
-81 45 -95 72 -21 39 -23 39 -124 21 -114 -19 -360 -12 -466 15 -19 5 -27 -1
-44 -28z m-801 -69 c42 -12 148 -48 236 -81 243 -92 303 -102 585 -103 177 0
261 5 341 18 172 28 254 22 321 -25 66 -46 94 -198 50 -270 -40 -64 -132 -119
-252 -149 -78 -20 -321 -17 -432 5 -203 39 -387 123 -643 291 -173 114 -324
195 -410 221 -33 10 -64 21 -70 26 -6 5 8 26 35 52 45 44 45 44 105 40 32 -2
93 -14 134 -25z m2150 -118 c45 -24 108 -91 117 -126 3 -14 4 -51 2 -81 -7
-88 -58 -140 -145 -151 -80 -9 -136 11 -191 68 -38 40 -53 49 -81 49 -19 0
-43 -8 -54 -17 -20 -18 -20 -17 -15 49 9 113 74 196 176 225 58 16 141 9 191
-16z"/>
<path d="M3700 1637 c0 -2 18 -16 39 -30 21 -14 54 -49 72 -76 18 -28 33 -51
35 -51 11 0 -16 48 -46 82 -33 37 -100 87 -100 75z"/>
<path d="M2454 903 c16 -4 18 -12 13 -58 -11 -103 -73 -179 -207 -249 -78 -41
-93 -56 -56 -56 60 0 172 33 253 74 154 79 272 82 371 9 39 -29 43 -66 8 -88
-41 -27 -191 -35 -470 -24 -143 5 -265 8 -273 5 -16 -6 -17 -62 -2 -72 17 -10
1021 -13 1040 -3 42 22 27 79 -21 79 -15 0 -41 10 -57 23 -15 13 -63 43 -107
68 -43 24 -96 64 -117 88 -39 44 -69 119 -69 173 l0 28 -134 0 c-73 0 -146 2
-162 4 -16 2 -21 1 -10 -1z"/>
</g>
</svg>
