<?xml version="1.0" standalone="no"?>
<!DOCTYPE svg PUBLIC "-//W3C//DTD SVG 20010904//EN"
 "http://www.w3.org/TR/2001/REC-SVG-20010904/DTD/svg10.dtd">
<svg version="1.0" xmlns="http://www.w3.org/2000/svg"
 width="500.000000pt" height="500.000000pt" viewBox="0 0 500.000000 500.000000"
 preserveAspectRatio="xMidYMid meet">

<g transform="translate(0.000000,500.000000) scale(0.100000,-0.100000)"
fill="#000000" stroke="none">
<path d="M2746 4549 c-124 -29 -243 -126 -294 -239 -30 -67 -40 -186 -22 -269
26 -121 118 -246 233 -319 94 -59 152 -86 304 -143 206 -76 299 -124 365 -189
117 -115 102 -220 -47 -323 -92 -63 -140 -111 -165 -164 -21 -45 -27 -137 -10
-148 6 -3 10 -12 10 -18 0 -7 -4 -6 -11 3 -8 12 -10 12 -7 1 2 -8 12 -15 22
-17 12 -2 16 2 12 12 -3 9 1 14 12 14 12 0 13 3 4 8 -9 6 -7 13 8 30 11 11 20
31 20 43 0 18 4 20 25 15 14 -4 25 -2 25 4 0 5 14 17 31 25 18 10 29 22 26 30
-4 9 1 11 14 8 11 -3 28 2 40 13 12 11 22 17 23 15 4 -10 124 25 144 42 12 11
22 17 22 12 0 -4 9 0 20 10 28 25 25 14 -6 -21 -63 -72 -114 -148 -116 -172
-6 -115 48 -174 209 -228 174 -58 244 -99 300 -174 21 -28 41 -50 45 -50 12 0
10 109 -2 152 -13 45 -52 93 -91 113 -16 9 -81 29 -146 46 -134 34 -174 54
-187 92 -15 43 7 72 98 131 92 60 153 126 195 216 23 49 26 67 25 160 -1 85
-5 114 -23 155 -35 78 -83 154 -103 161 -10 3 -16 9 -13 14 3 5 0 12 -6 16 -8
5 -9 3 -4 -6 6 -10 4 -12 -8 -7 -23 9 -29 -7 -11 -29 15 -18 15 -18 10 0 -5
14 -2 17 10 12 8 -3 18 -6 21 -6 2 0 -3 -8 -13 -17 -16 -16 -18 -16 -35 6 -10
13 -17 27 -14 31 3 5 -2 10 -11 12 -15 3 -15 4 1 18 11 9 16 10 11 3 -4 -7 -2
-13 3 -13 22 0 10 30 -11 31 -13 0 -17 3 -10 6 10 4 7 10 -10 21 -13 9 -24 14
-25 12 -2 -3 -9 5 -17 16 -22 30 -72 50 -90 35 -10 -8 -16 -9 -21 -1 -4 6 -3
9 2 8 4 -2 10 2 12 7 6 14 -140 85 -279 135 -227 83 -335 158 -360 250 -31
116 75 206 183 154 43 -21 67 -61 67 -114 l0 -42 33 20 c17 11 43 35 55 54 35
49 28 140 -14 200 -41 57 -140 123 -204 137 -60 13 -199 13 -254 0z m869 -868
c3 -5 2 -12 -3 -15 -5 -3 -9 1 -9 9 0 17 3 19 12 6z m34 -24 c0 -12 -3 -16 -6
-9 -2 6 -10 9 -16 5 -8 -5 -8 -2 0 9 7 8 9 19 5 23 -4 5 -1 5 6 1 6 -4 12 -17
11 -29z m35 -113 c3 -8 2 -12 -4 -9 -6 3 -10 10 -10 16 0 14 7 11 14 -7z m91
-4 c4 -6 1 -17 -5 -25 -6 -8 -8 -20 -4 -27 5 -10 4 -11 -7 0 -10 9 -10 15 -1
24 17 17 15 29 -3 22 -8 -4 -15 -1 -15 5 0 14 27 14 35 1z m-45 -20 c0 -5 -4
-10 -10 -10 -5 0 -10 5 -10 10 0 6 5 10 10 10 6 0 10 -4 10 -10z m69 -23 c8
-10 7 -14 -2 -14 -8 0 -14 6 -14 14 0 7 1 13 2 13 2 0 8 -6 14 -13z"/>
<path d="M3627 4257 c-4 -10 -7 -27 -7 -38 0 -31 -36 -94 -64 -113 -14 -9 -50
-23 -78 -31 -33 -8 -43 -14 -28 -14 14 -1 48 -12 77 -25 56 -27 93 -79 93
-133 0 -15 5 -35 10 -43 7 -11 10 -6 10 21 0 95 80 175 180 180 8 0 -10 7 -40
15 -53 14 -101 49 -122 88 -5 10 -13 39 -17 65 -5 33 -9 41 -14 28z"/>
<path d="M4018 3694 c-9 -49 -45 -85 -95 -94 l-38 -7 41 -11 c51 -15 81 -46
93 -97 l9 -40 1 35 c1 47 36 87 91 104 l45 14 -37 1 c-49 1 -96 47 -100 99
l-3 37 -7 -41z"/>
<path d="M2948 3435 c-4 -11 -9 -36 -12 -56 -4 -21 -16 -49 -28 -64 -25 -32
-91 -64 -133 -65 -38 -1 -17 -14 37 -24 66 -12 128 -81 128 -143 0 -15 5 -35
10 -43 7 -11 10 -7 10 19 0 56 36 118 84 146 24 14 54 25 69 25 14 0 29 5 32
10 4 6 -6 10 -21 10 -44 0 -111 38 -134 76 -12 19 -25 55 -29 82 -5 33 -9 41
-13 27z"/>
<path d="M2070 3053 c-85 -59 -119 -152 -86 -238 10 -25 31 -56 48 -69 33 -25
31 -46 -5 -46 -32 -1 -108 -37 -140 -68 -15 -15 -41 -47 -57 -72 -19 -30 -43
-52 -68 -63 -61 -27 -76 -50 -75 -113 1 -29 -2 -54 -7 -54 -4 0 -70 -38 -146
-83 -220 -132 -229 -136 -203 -75 9 21 14 70 14 133 0 91 -3 106 -31 165 -77
160 -254 251 -431 222 -270 -45 -427 -296 -352 -562 44 -155 201 -319 394
-413 33 -16 109 -47 169 -69 60 -21 114 -41 119 -45 5 -3 -5 -12 -22 -21 -68
-32 -98 -118 -66 -186 30 -62 79 -84 178 -78 37 3 113 78 122 123 15 74 12 73
68 26 113 -96 226 -158 355 -197 81 -24 86 -33 53 -98 -36 -70 -98 -114 -232
-166 -152 -58 -183 -104 -114 -164 99 -88 488 -142 810 -113 232 21 353 56
413 117 57 60 38 98 -75 144 -159 64 -200 88 -236 138 -19 26 -38 61 -41 78
l-7 30 68 13 c282 55 528 194 868 490 290 253 492 354 738 370 113 8 135 18
116 52 -20 38 -125 95 -239 129 -58 18 -100 23 -185 23 -104 0 -116 -2 -230
-42 -311 -111 -391 -131 -525 -131 -111 0 -176 22 -340 117 -63 36 -117 67
-119 69 -2 2 1 21 8 42 17 52 -2 90 -62 122 -28 15 -51 36 -60 56 -39 81 -117
139 -202 151 -28 3 -45 11 -45 19 0 8 4 14 9 14 21 0 69 61 81 103 18 66 -6
131 -70 191 -43 40 -55 46 -92 46 -25 0 -54 -7 -68 -17z m100 -40 c51 -35 90
-88 90 -122 0 -44 -35 -89 -79 -102 -45 -13 -51 -10 -95 56 -28 41 -35 108
-13 135 13 17 58 50 67 50 3 0 17 -8 30 -17z m10 -309 c0 -14 -3 -14 -15 -4
-8 7 -15 14 -15 16 0 2 7 4 15 4 8 0 15 -7 15 -16z m103 -58 c21 -8 48 -22 59
-33 27 -23 63 -103 51 -113 -17 -16 -227 -29 -332 -20 -57 5 -106 12 -108 14
-10 10 51 117 77 136 25 18 64 24 175 28 22 0 57 -5 78 -12z m-1182 -35 c165
-78 240 -266 170 -426 -22 -49 -83 -105 -116 -105 -33 0 -32 4 9 29 38 24 66
81 66 135 0 110 -92 234 -203 275 -105 38 -234 25 -329 -35 -21 -13 -38 -22
-38 -19 0 3 -9 1 -21 -5 -20 -11 -20 -10 -5 17 29 57 115 123 191 147 72 23
214 16 276 -13z m884 13 c-11 -8 -25 -18 -31 -22 -6 -4 -23 -25 -38 -46 -15
-22 -26 -32 -26 -23 0 21 82 107 101 107 10 -1 8 -5 -6 -16z m-911 -197 c58
-45 93 -134 80 -204 -5 -26 -15 -38 -45 -53 -64 -33 -77 -83 -33 -127 22 -22
32 -25 72 -20 26 2 54 8 63 11 14 6 17 -3 23 -53 4 -32 15 -89 25 -125 10 -36
14 -66 9 -66 -16 0 -136 69 -240 138 -169 111 -243 212 -243 333 0 56 5 73 30
114 41 65 83 87 161 83 49 -3 69 -10 98 -31z m738 4 c-2 -16 1 -32 7 -35 31
-20 -12 -36 -53 -20 -34 13 -5 62 50 84 0 0 -1 -13 -4 -29z m677 14 c55 -28
50 -66 -9 -84 -129 -39 -636 -13 -570 29 13 8 13 10 1 10 -11 0 -9 4 5 15 15
11 56 15 189 16 94 0 208 7 255 14 47 7 89 13 93 14 4 0 21 -6 36 -14z m-695
-154 c28 -6 27 -6 -18 -20 -25 -7 -46 -17 -46 -22 0 -5 -5 -9 -10 -9 -27 0
-220 -164 -220 -187 0 -5 44 -15 97 -22 l97 -13 21 25 c11 13 46 56 78 95 102
123 89 118 332 125 121 3 247 12 298 22 l89 15 56 -31 c32 -18 69 -40 83 -50
92 -64 249 -122 368 -136 99 -11 319 42 541 131 36 14 91 32 124 41 51 13 63
13 90 1 17 -8 74 -19 126 -25 92 -10 185 -34 195 -51 2 -4 -44 -10 -103 -13
-239 -12 -468 -99 -682 -258 -405 -301 -606 -402 -842 -424 -18 -1 -51 -6 -73
-9 -26 -5 -35 -4 -27 2 10 6 -9 12 -60 17 -40 5 -76 8 -81 7 -4 -1 -42 7 -83
18 -42 11 -80 17 -85 14 -5 -3 -9 2 -9 10 0 9 -7 16 -16 16 -24 0 -104 39
-104 51 0 8 -4 8 -13 0 -10 -8 -19 -7 -33 5 -18 15 -18 15 3 9 12 -3 24 -2 27
3 2 4 -17 8 -44 7 -45 -1 -48 0 -38 18 6 12 6 17 0 13 -5 -3 -12 1 -16 9 -3 8
-12 12 -21 9 -11 -5 -14 -2 -9 10 3 9 1 16 -6 16 -6 0 -9 4 -6 9 3 5 -1 12
-10 15 -8 3 -20 20 -26 36 -6 20 -15 29 -24 26 -11 -4 -11 0 -2 20 9 20 9 27
0 33 -7 4 -10 15 -6 24 5 15 31 17 242 17 129 0 233 2 231 4 -2 3 -72 10 -154
16 -140 11 -364 45 -445 68 -131 37 -216 65 -228 74 -11 10 -6 16 25 31 43 22
269 158 323 194 36 24 45 25 94 14z m-384 -340 c10 -5 17 -31 21 -72 16 -152
107 -289 274 -413 80 -59 175 -111 222 -121 30 -6 31 -8 18 -22 -14 -14 -25
-12 -101 13 -47 15 -88 34 -91 41 -3 7 -9 11 -13 8 -13 -8 -95 42 -92 55 1 6
-2 9 -8 5 -6 -3 -17 0 -24 7 -8 7 -36 31 -63 52 -51 42 -133 138 -133 155 0 6
-4 11 -9 11 -8 0 -12 9 -20 45 -1 6 -8 17 -16 25 -23 27 -52 124 -62 212 l-5
47 43 -20 c24 -11 51 -23 59 -28z m2130 25 c0 -2 -24 -22 -52 -43 -29 -21
-105 -83 -168 -138 -125 -108 -226 -191 -306 -248 -98 -70 -273 -163 -354
-187 -14 -5 -34 -11 -44 -16 -14 -5 -17 -4 -12 4 4 7 3 12 -2 12 -6 0 -12 -7
-16 -15 -3 -8 -13 -15 -23 -15 -15 0 -16 2 -3 10 16 10 9 13 -30 11 -24 -1
-23 -1 5 12 17 7 66 27 110 42 86 32 223 104 320 168 65 44 327 237 335 247 6
8 230 160 236 160 2 0 4 -2 4 -4z m-1151 -854 c47 -74 110 -113 265 -166 49
-17 91 -36 94 -43 11 -34 -148 -88 -318 -108 -73 -9 -403 -7 -460 2 -41 6 -43
7 -16 12 43 9 43 27 -1 35 -44 7 -71 22 -60 33 5 4 85 11 179 15 94 4 173 10
176 13 12 11 -11 18 -110 30 -57 8 -104 14 -105 14 -28 8 114 113 245 180 12
6 22 9 22 6 0 -3 12 1 28 9 15 8 28 15 28 16 1 0 16 -22 33 -48z"/>
<path d="M1401 1874 c0 -11 3 -14 6 -6 3 7 2 16 -1 19 -3 4 -6 -2 -5 -13z"/>
<path d="M1372 1855 c0 -16 2 -22 5 -12 2 9 2 23 0 30 -3 6 -5 -1 -5 -18z"/>
<path d="M1350 1806 c0 -2 7 -7 16 -10 8 -3 12 -2 9 4 -6 10 -25 14 -25 6z"/>
<path d="M1410 1701 c0 -6 4 -13 10 -16 6 -3 7 1 4 9 -7 18 -14 21 -14 7z"/>
<path d="M1583 1545 c0 -8 4 -12 9 -9 5 3 6 10 3 15 -9 13 -12 11 -12 -6z"/>
</g>
</svg>
