<?xml version="1.0" encoding="UTF-8"?>
<svg version="1.1" xmlns="http://www.w3.org/2000/svg" width="322" height="353">
<path d="M0 0 C1.56642929 -0.00712011 3.13285603 -0.01482173 4.69927979 -0.02307129 C7.97049213 -0.03645277 11.24146342 -0.03811432 14.51269531 -0.03222656 C18.66593227 -0.02634551 22.81799417 -0.0568845 26.97100449 -0.09734344 C30.20393904 -0.12343649 33.43659902 -0.12607838 36.66962433 -0.12245178 C38.19876296 -0.12412386 39.727917 -0.13357783 41.25695038 -0.15159607 C53.15477303 -0.27636625 64.60124498 1.02703997 74.265625 8.71875 C81.64838677 16.03827612 86.55227106 24.51388569 86.87548828 35.05004883 C86.86243652 36.28779053 86.84938477 37.52553223 86.8359375 38.80078125 C86.82578613 40.05221924 86.81563477 41.30365723 86.80517578 42.59301758 C86.79212402 43.54200928 86.77907227 44.49100098 86.765625 45.46875 C88.52652466 45.4373291 88.52652466 45.4373291 90.32299805 45.40527344 C94.73807251 45.33208989 99.15309503 45.28666952 103.56860352 45.24902344 C105.46843525 45.22908445 107.36820704 45.20192309 109.26782227 45.16699219 C133.33831368 44.73591676 133.33831368 44.73591676 144.08203125 51.58203125 C154.55465518 61.83609607 157.50990925 71.73684841 157.82675171 86.27316284 C157.81884301 89.15082661 157.77575403 92.02531898 157.71484375 94.90234375 C157.6959761 95.94270279 157.67710846 96.98306183 157.65766907 98.0549469 C157.61612737 100.23224969 157.57143027 102.40949441 157.52368164 104.58666992 C157.45279872 107.92160111 157.39879127 111.25654041 157.34570312 114.59179688 C157.3031027 116.71616652 157.25951817 118.84051671 157.21484375 120.96484375 C157.20015549 121.95963242 157.18546722 122.95442108 157.17033386 123.97935486 C157.13568779 125.3671389 157.13568779 125.3671389 157.1003418 126.78295898 C157.08400192 127.59361313 157.06766205 128.40426727 157.05082703 129.23948669 C156.73191845 131.7322151 156.10833228 133.35010499 154.765625 135.46875 C151.85072857 136.96356868 150.05786284 137.46875 146.765625 137.46875 C146.74056885 138.72083252 146.7155127 139.97291504 146.68969727 141.26293945 C146.6538779 143.03597145 146.61798276 144.80900192 146.58203125 146.58203125 C146.56284134 147.53067551 146.54365143 148.47931976 146.52388 149.45671082 C146.41669929 154.68749663 146.303028 159.91804082 146.17822266 165.1484375 C146.12792529 167.26171865 146.0776323 169.37499989 146.02734375 171.48828125 C146.00234802 172.5318277 145.97735229 173.57537415 145.95159912 174.65054321 C145.81777222 180.44919295 145.7376326 186.24284152 145.72265625 192.04296875 C145.55038602 215.41640454 145.55038602 215.41640454 137.765625 224.46875 C130.47308018 231.09021579 123.67022439 234.61628293 113.76548767 234.62265015 C112.52878455 234.62922353 112.52878455 234.62922353 111.26709753 234.6359297 C108.4943876 234.64932279 105.72170946 234.65549777 102.94897461 234.66162109 C100.96478125 234.66952179 98.98058933 234.67779072 96.99639893 234.68640137 C90.47026951 234.7126299 83.94413366 234.72793199 77.41796875 234.7421875 C75.17112283 234.74754725 72.92427695 234.75292475 70.67743111 234.75831985 C61.32949727 234.77995171 51.98156517 234.79868743 42.63361263 234.80994225 C29.24006925 234.82617396 15.84681632 234.8593296 2.45338243 234.91634309 C-6.96501546 234.9550669 -16.38333575 234.97457797 -25.80181116 234.97986281 C-31.4260054 234.9835135 -37.0498899 234.99550484 -42.67399788 235.02796555 C-47.96903669 235.05808804 -53.26357904 235.0643429 -58.5586853 235.05258179 C-60.49763784 235.05236139 -62.43661368 235.06063829 -64.37548637 235.07823563 C-82.99568731 235.23797506 -82.99568731 235.23797506 -91.234375 229.46875 C-91.92212541 229.03895529 -92.60987581 228.60916058 -93.31846714 228.16634178 C-99.40202193 224.3105359 -102.08482436 219.71000129 -103.82543945 212.7590332 C-105.56424168 204.93927107 -105.61589739 197.28230988 -105.52734375 189.32421875 C-105.52173173 187.8182264 -105.51746925 186.31222848 -105.51448059 184.80622864 C-105.50315791 180.88862336 -105.47380325 176.97136465 -105.44036865 173.05389404 C-105.40939248 169.03793014 -105.39591709 165.02190892 -105.38085938 161.00585938 C-105.34891802 153.16000017 -105.29787921 145.31442408 -105.234375 137.46875 C-106.306875 137.406875 -107.379375 137.345 -108.484375 137.28125 C-112.234375 136.46875 -112.234375 136.46875 -114.63952637 134.27130127 C-116.44941091 131.09087767 -116.74049198 129.26495678 -116.75195312 125.62792969 C-116.76456177 124.4761322 -116.77717041 123.32433472 -116.79016113 122.13763428 C-116.78206421 120.90112122 -116.77396729 119.66460815 -116.765625 118.390625 C-116.7694519 117.10947815 -116.77327881 115.8283313 -116.77722168 114.50836182 C-116.78310887 111.79818386 -116.77458579 109.0885343 -116.75585938 106.37841797 C-116.73316029 102.92744812 -116.74613806 99.47772905 -116.77014923 96.02680588 C-116.78820824 92.71048294 -116.77550177 89.39448332 -116.765625 86.078125 C-116.77372192 84.84970886 -116.78181885 83.62129272 -116.79016113 82.35565186 C-116.68116452 72.28983226 -114.13575348 65.58314541 -108.234375 57.46875 C-107.615625 56.6025 -106.996875 55.73625 -106.359375 54.84375 C-100.9231141 48.76792899 -94.69233199 46.84956761 -86.77365112 46.29705811 C-84.16301601 46.23943997 -81.56029559 46.24329278 -78.94921875 46.2734375 C-78.00752335 46.2762674 -77.06582794 46.27909729 -76.09559631 46.28201294 C-73.12088709 46.29310793 -70.14649149 46.31819198 -67.171875 46.34375 C-65.14128042 46.35379363 -63.11068108 46.36291704 -61.08007812 46.37109375 C-56.13139164 46.39301216 -51.18293629 46.427467 -46.234375 46.46875 C-46.25322754 45.46642334 -46.27208008 44.46409668 -46.29150391 43.43139648 C-46.30675875 42.08838387 -46.32154487 40.74536588 -46.3359375 39.40234375 C-46.35479004 38.09064209 -46.37364258 36.77894043 -46.39306641 35.42749023 C-46.01892086 26.09399786 -42.99846184 17.07316955 -36.234375 10.46875 C-25.16314099 0.98732987 -14.11577448 -0.00787242 0 0 Z M-24.00390625 28.94921875 C-25.67401996 32.36897538 -25.51859344 35.52054422 -25.3984375 39.234375 C-25.38659424 39.93062988 -25.37475098 40.62688477 -25.36254883 41.34423828 C-25.33177955 43.05266602 -25.2847032 44.76078654 -25.234375 46.46875 C4.78279696 46.60390629 34.75951116 46.30114625 64.765625 45.46875 C64.792679 43.37507114 64.81204541 41.2812919 64.828125 39.1875 C64.83972656 38.02154297 64.85132813 36.85558594 64.86328125 35.65429688 C64.74242473 31.71195724 64.24511374 29.56811093 61.765625 26.46875 C55.05982083 20.20518087 47.14806127 20.76880012 38.5390625 20.875 C37.06271462 20.87671391 35.58636369 20.87664258 34.11001587 20.87487793 C31.02844803 20.87652453 27.94761354 20.89510273 24.86621094 20.92675781 C20.92756364 20.96650404 16.98987155 20.97079095 13.05106163 20.96329498 C10.00714452 20.96021821 6.96343995 20.97236961 3.91957474 20.98942566 C2.46760008 20.99642684 1.01560136 20.99958371 -0.43638992 20.99873352 C-2.4675895 21.0005418 -4.49873343 21.024254 -6.52978516 21.04882812 C-8.2589769 21.06145691 -8.2589769 21.06145691 -10.02310181 21.07434082 C-15.72637658 21.7748181 -20.4192606 24.50104501 -24.00390625 28.94921875 Z " fill="#1F0A5A" transform="translate(143.234375,81.53125)"/>
<path d="M0 0 C21.12 0 42.24 0 64 0 C64.495 8.91 64.495 8.91 65 18 C70.03159748 28.06319496 78.54536441 33.62979375 87.76171875 39.78125 C90.87856651 41.91679829 93.79301004 44.21345063 96.75 46.5625 C100.82839837 49.51786114 103.74949181 51.12240459 108.8359375 50.57421875 C121.65686028 47.17227715 133.58618111 34.85284644 143 26 C143.55816406 25.48308594 144.11632812 24.96617187 144.69140625 24.43359375 C151.94314478 17.5124188 149.36422358 11.44397564 150 0 C171.45 0 192.9 0 215 0 C215.08021762 16.97939595 215.08021762 16.97939595 215.09765625 24.234375 C215.10959739 29.17875477 215.12370221 34.12306025 215.15087891 39.06738281 C215.17265903 43.0549895 215.18457952 47.04251647 215.18975449 51.03017807 C215.19344097 52.54916513 215.20063975 54.06814799 215.21146011 55.58710098 C215.22604393 57.71978325 215.22797509 59.85213892 215.22705078 61.98486328 C215.231492 63.1973172 215.23593323 64.40977112 215.24050903 65.65896606 C214.77075857 72.18450987 212.89549982 75.70151235 208 80 C204.32121791 82.45252139 201.56186576 82.28234345 197.30789185 82.26069641 C196.51664724 82.26452196 195.72540264 82.26834751 194.91018093 82.27228898 C192.25011227 82.28263488 189.59025883 82.27862383 186.93017578 82.2746582 C185.02653808 82.27900383 183.12290213 82.28418648 181.2192688 82.29014587 C176.04157027 82.30356399 170.86394462 82.30411136 165.68623209 82.30158257 C161.36704635 82.30051465 157.04787546 82.30539172 152.72869289 82.310188 C142.53998323 82.32129317 132.35131044 82.32171508 122.16259766 82.31567383 C111.645373 82.30963373 101.12828212 82.32194369 90.61108029 82.3432439 C81.58765309 82.36084806 72.56426851 82.36686308 63.54082477 82.36360615 C58.14883406 82.36179107 52.75693873 82.36445178 47.36496353 82.37832069 C42.29408444 82.39087493 37.2234141 82.38897771 32.1525383 82.37590981 C30.290519 82.37353913 28.42848513 82.37629623 26.56648254 82.38453293 C24.0261031 82.39496076 21.48642924 82.38693183 18.94607544 82.3742218 C18.20784204 82.38159609 17.46960863 82.38897037 16.70900452 82.39656812 C12.28638039 82.34996396 9.53319141 81.68288272 6 79 C1.09123081 73.67047917 -0.25332159 69.28345585 -0.22705078 62.09838867 C-0.22734283 61.42466217 -0.22763489 60.75093567 -0.22793579 60.05679321 C-0.22654938 57.84371786 -0.21102111 55.63098484 -0.1953125 53.41796875 C-0.19157991 51.87811975 -0.1887341 50.33826837 -0.18673706 48.79841614 C-0.17911994 44.75584292 -0.15948808 40.71341461 -0.1373291 36.67089844 C-0.11322159 31.81502527 -0.10408053 26.95910351 -0.09242249 22.10318756 C-0.07306245 14.73535776 -0.03472669 7.36784557 0 0 Z " fill="#850EF7" transform="translate(56,215)"/>
<path d="M0 0 C1.319567 -0.00935994 1.319567 -0.00935994 2.66579193 -0.01890898 C5.60152147 -0.03481179 8.53641761 -0.02224535 11.47215271 -0.00964355 C13.58165469 -0.01506583 15.69115289 -0.02218908 17.80064392 -0.03088379 C23.52161879 -0.04910625 29.24230486 -0.0420542 34.96328473 -0.02936745 C40.95159508 -0.01923562 46.93988081 -0.02863352 52.92819214 -0.03491211 C62.98309262 -0.0421874 73.03787555 -0.03260325 83.09275818 -0.0135498 C94.71776258 0.00822453 106.34248643 0.00116287 117.96748406 -0.02085543 C127.94982637 -0.03900567 137.93208423 -0.04156974 147.91443771 -0.03110075 C153.87594352 -0.02486455 159.83731744 -0.0240339 165.79881477 -0.0372467 C171.40249649 -0.04879921 177.00581631 -0.04079009 182.60945892 -0.01766968 C184.66617418 -0.01237969 186.72291988 -0.0139013 188.77962303 -0.02272034 C191.58672918 -0.03364759 194.39267487 -0.01994619 197.19970703 0 C198.01400903 -0.00892289 198.82831102 -0.01784577 199.66728884 -0.02703905 C204.90568082 0.04518477 207.88314027 1.04116188 212.03636169 4.50793457 C216.12635249 10.00699261 216.5933409 14.21171487 216.42698669 20.94152832 C216.42295837 21.72080688 216.41893005 22.50008545 216.41477966 23.30297852 C216.39402132 26.18404043 216.33817685 29.06476384 216.28636169 31.94543457 C216.20386169 38.40105957 216.12136169 44.85668457 216.03636169 51.50793457 C191.61636169 51.50793457 167.19636169 51.50793457 142.03636169 51.50793457 C141.04636169 45.56793457 141.04636169 45.56793457 140.03636169 39.50793457 C139.70636169 38.18793457 139.37636169 36.86793457 139.03636169 35.50793457 C136.66010824 34.32402234 136.66010824 34.32402234 134.03636169 33.50793457 C133.04636169 32.84793457 132.05636169 32.18793457 131.03636169 31.50793457 C128.06569421 31.18891779 128.06569421 31.18891779 124.64060974 31.21740723 C123.67417542 31.20733139 123.67417542 31.20733139 122.68821716 31.197052 C120.5580931 31.1780541 118.42828396 31.17414666 116.29808044 31.17199707 C114.81458406 31.16556918 113.33108894 31.15884082 111.84759521 31.15182495 C108.73641523 31.13984688 105.62534631 31.13614454 102.5141449 31.1373291 C98.5360877 31.13753205 94.55874683 31.11025788 90.58085918 31.07578468 C87.51554118 31.05349396 84.45039478 31.04949225 81.38500404 31.05054855 C79.91903533 31.04819478 78.45306174 31.03938377 76.98717308 31.02388382 C74.93104558 31.00418287 72.87645192 31.01007621 70.82029724 31.02209473 C69.06848396 31.01781967 69.06848396 31.01781967 67.28128052 31.01345825 C62.51627733 31.73957233 59.37496505 33.98469627 56.22386169 37.57043457 C54.39422437 41.6887395 54.39422437 41.6887395 54.03636169 51.50793457 C29.61636169 51.50793457 5.19636169 51.50793457 -19.96363831 51.50793457 C-20.04613831 45.05230957 -20.12863831 38.59668457 -20.21363831 31.94543457 C-20.25005432 29.92088135 -20.28647034 27.89632812 -20.32398987 25.8104248 C-20.33568342 24.18747006 -20.34587367 22.5645035 -20.35426331 20.94152832 C-20.37472717 20.11366821 -20.39519104 19.28580811 -20.41627502 18.43286133 C-20.41974573 12.60814449 -19.53417181 9.18423529 -15.96363831 4.50793457 C-10.51098521 0.68690352 -6.56831318 -0.07217139 0 0 Z " fill="#8A0DF2" transform="translate(64.96363830566406,146.4920654296875)"/>
<path d="M0 0 C1.2065625 0.0309375 1.2065625 0.0309375 2.4375 0.0625 C4.10621155 3.79723538 5.59618697 7.46889757 6.8125 11.375 C10.12718753 21.3530594 14.19017812 29.333636 23.859375 34.30859375 C28.64491127 36.33724499 33.39996052 37.64445823 38.52734375 38.47265625 C40.87281595 39.19692272 41.92722235 40.14725831 43.4375 42.0625 C43.3125 44.125 43.3125 44.125 42.4375 46.0625 C39.04650063 48.32316625 36.33059821 48.92935851 32.375 49.875 C20.89382779 52.51020731 20.89382779 52.51020731 12.37890625 60.07421875 C8.7642312 66.5716567 6.54846681 73.29197154 5.3359375 80.63671875 C4.4375 83.0625 4.4375 83.0625 2.0390625 84.95703125 C-0.5625 86.0625 -0.5625 86.0625 -3.5625 85.0625 C-4.35864258 83.34765625 -4.35864258 83.34765625 -4.95703125 81.125 C-5.18664551 80.31635498 -5.41625977 79.50770996 -5.65283203 78.67456055 C-5.89114746 77.81258057 -6.12946289 76.95060059 -6.375 76.0625 C-9.33353155 66.23080566 -11.59754057 58.87162261 -21.0625 53.75 C-26.83155748 51.1441522 -32.70333366 49.40962833 -38.82421875 47.82421875 C-41.5625 47.0625 -41.5625 47.0625 -42.5625 46.0625 C-42.75 43.625 -42.75 43.625 -42.5625 41.0625 C-39.51049611 38.01049611 -35.4320016 37.66636578 -31.32421875 36.73828125 C-26.69350279 35.6059193 -23.43115966 33.79803153 -19.5625 31.0625 C-18.9025 31.0625 -18.2425 31.0625 -17.5625 31.0625 C-17.294375 30.423125 -17.02625 29.78375 -16.75 29.125 C-15.5625 27.0625 -15.5625 27.0625 -12.5625 26.0625 C-11.42677436 23.75313711 -11.42677436 23.75313711 -10.5625 21.0625 C-10.24410156 20.29550781 -9.92570312 19.52851562 -9.59765625 18.73828125 C-7.46638717 13.55989653 -5.68210647 8.39025276 -4.17578125 2.99609375 C-3.25933963 0.1066759 -3.12908492 0.07631914 0 0 Z " fill="#A313E4" transform="translate(254.5625,15.9375)"/>
<path d="M0 0 C16.83 0 33.66 0 51 0 C51.061875 4.516875 51.12375 9.03375 51.1875 13.6875 C51.22846802 15.81191528 51.22846802 15.81191528 51.27026367 17.97924805 C51.27775635 19.10371338 51.28524902 20.22817871 51.29296875 21.38671875 C51.3086792 22.53358154 51.32438965 23.68044434 51.34057617 24.86206055 C50.56750933 31.98480473 45.20661239 36.03323678 40.125 40.5625 C36.84915751 43.11765714 33.6384582 45.00914551 30 47 C29.01 47.66 28.02 48.32 27 49 C18.62994656 48.6290281 12.14123512 42.15097538 6.48046875 36.47265625 C1.77264842 31.23891725 -0.12983863 28.82417491 -0.09765625 21.6796875 C-0.09515869 20.54772949 -0.09266113 19.41577148 -0.09008789 18.24951172 C-0.08098389 16.80592285 -0.07187988 15.36233398 -0.0625 13.875 C-0.041875 9.29625 -0.02125 4.7175 0 0 Z " fill="#B537F6" transform="translate(138,197)"/>
<path d="M0 0 C0.87885691 -0.00538554 1.75771382 -0.01077108 2.66320276 -0.01631981 C5.60190576 -0.03060332 8.54015857 -0.02349469 11.47888184 -0.01637268 C13.58823509 -0.02207599 15.69758525 -0.02904009 17.80693054 -0.03717041 C23.5320466 -0.05511993 29.25700955 -0.05393018 34.98214531 -0.04822803 C39.7611783 -0.04513919 44.54018174 -0.05122514 49.31921053 -0.05726677 C60.59202306 -0.0713159 71.86475982 -0.06974708 83.13757324 -0.05836487 C94.76993242 -0.04687924 106.40206116 -0.06096605 118.03438997 -0.08776134 C128.02095048 -0.10990487 138.00743858 -0.11655887 147.99402189 -0.11068493 C153.95890541 -0.10731143 159.92364114 -0.10975682 165.88850403 -0.12693596 C171.49626125 -0.14238175 177.10367647 -0.13847563 182.71142006 -0.11963081 C184.76975246 -0.1159386 186.82811008 -0.11907175 188.8864193 -0.1295166 C191.69575316 -0.14268454 194.50394778 -0.13121621 197.31323242 -0.11352539 C198.12821654 -0.1231304 198.94320065 -0.1327354 199.78288126 -0.14263147 C205.00568367 -0.07493507 208.02510999 0.90459923 212.15661621 4.38768005 C213.03161621 6.63768005 213.03161621 6.63768005 213.15661621 8.38768005 C212.19280501 8.2251603 211.22899382 8.06264055 210.23597622 7.89519596 C205.77943803 7.26303669 201.38119832 7.25190349 196.88685608 7.26742554 C195.97432648 7.26657111 195.06179688 7.26571669 194.12161487 7.26483637 C191.07540045 7.26319419 188.02924155 7.26868224 184.98303223 7.27415466 C182.79483542 7.27443683 180.60663852 7.27427822 178.41844177 7.27371216 C172.48515291 7.27342535 166.55188429 7.27930334 160.61860013 7.28628612 C154.41528504 7.29253897 148.21196949 7.29312498 142.00865173 7.29431152 C130.93244196 7.2972425 119.85624055 7.30446332 108.78003459 7.31395424 C98.7269327 7.32252276 88.6738323 7.32876546 78.62072754 7.33274841 C77.62881661 7.3331425 77.62881661 7.3331425 76.61686707 7.33354454 C73.29929771 7.33484963 69.98172833 7.33611107 66.66415894 7.33735645 C39.16163953 7.34780793 11.65912839 7.36539636 -15.84338379 7.38768005 C-15.50024557 5.49554068 -15.50024557 5.49554068 -14.84338379 3.38768005 C-9.99202157 0.05180721 -5.66091124 -0.04174601 0 0 Z " fill="#C24DFA" transform="translate(64.8433837890625,146.61231994628906)"/>
<path d="M0 0 C0.33 0 0.66 0 1 0 C1.04640402 8.89284087 1.08191014 17.78563985 1.10362434 26.67857552 C1.1140477 30.80822155 1.12818038 34.93778456 1.15087891 39.06738281 C1.17265903 43.0549895 1.18457952 47.04251647 1.18975449 51.03017807 C1.19344097 52.54916513 1.20063975 54.06814799 1.21146011 55.58710098 C1.22604393 57.71978325 1.22797509 59.85213892 1.22705078 61.98486328 C1.231492 63.1973172 1.23593323 64.40977112 1.24050903 65.65896606 C0.77075857 72.18450987 -1.10450018 75.70151235 -6 80 C-9.68953391 82.45968928 -12.46004241 82.27381623 -16.72575378 82.24050903 C-17.91791243 82.24307231 -17.91791243 82.24307231 -19.13415509 82.24568737 C-21.80591749 82.24899011 -24.47743054 82.23796571 -27.14916992 82.22705078 C-29.06091811 82.22648684 -30.97266674 82.2268029 -32.88441467 82.22793579 C-38.08245609 82.22851096 -43.28040571 82.21673013 -48.47842574 82.20278788 C-53.90767565 82.19030782 -59.33692753 82.18911217 -64.76618958 82.18673706 C-75.05090693 82.18051427 -85.3355819 82.16409265 -95.62028056 82.14403808 C-107.32749753 82.12170393 -119.03471649 82.11069191 -130.74194944 82.10064721 C-154.82798982 82.07972711 -178.91399254 82.04453562 -203 82 C-203 81.67 -203 81.34 -203 81 C-197.92677195 80.02613181 -192.93566377 79.6805043 -187.7878418 79.44580078 C-186.87422976 79.40369036 -185.96061773 79.36157993 -185.01932049 79.31819344 C-173.14786986 78.82131261 -161.27419893 78.85579127 -149.39453125 78.8671875 C-146.85715221 78.86651068 -144.31977323 78.86553754 -141.78239441 78.86428833 C-136.48179626 78.86282348 -131.18121085 78.86482265 -125.88061523 78.86962891 C-119.22181675 78.87559968 -112.56305267 78.87201298 -105.90425301 78.86614609 C-99.40100848 78.86141442 -92.89777557 78.8627768 -86.39453125 78.8671875 C-85.12846165 78.86799065 -83.86239204 78.86879379 -82.5579567 78.86962128 C-69.67062687 78.88432917 -56.79089765 78.95715739 -43.90771484 79.30175781 C-42.90503287 79.32851908 -41.9023509 79.35528034 -40.86928463 79.38285255 C-36.24976672 79.51089231 -31.63153777 79.65622181 -27.01338196 79.8263855 C-26.20216951 79.85265896 -25.39095707 79.87893242 -24.55516243 79.90600204 C-23.06246325 79.95443115 -21.56999528 80.01097409 -20.07798576 80.07733536 C-18.38591721 80.12903553 -16.69122026 80.07445088 -15 80 C-14.34 79.34 -13.68 78.68 -13 78 C-11.515 77.814375 -11.515 77.814375 -10 77.625 C-9.01 77.41875 -8.02 77.2125 -7 77 C-5.74172877 75.15017528 -5.74172877 75.15017528 -5 73 C-4.49355957 72.54729736 -3.98711914 72.09459473 -3.46533203 71.62817383 C-1.59737215 69.55262827 -1.65927279 68.57765298 -1.7421875 65.82421875 C-1.75636719 64.99470703 -1.77054688 64.16519531 -1.78515625 63.31054688 C-1.81480469 62.44494141 -1.84445312 61.57933594 -1.875 60.6875 C-2.0284765 54.92310334 -1.99298624 49.26458862 -1.54296875 43.51171875 C-0.85565381 34.72330765 -0.65364301 25.93481254 -0.4375 17.125 C-0.39416942 15.45441956 -0.35055132 13.78384655 -0.30664062 12.11328125 C-0.20112324 8.07559855 -0.09945882 4.03783629 0 0 Z " fill="#5704DA" transform="translate(270,215)"/>
<path d="M0 0 C0.6836261 0.00931549 1.3672522 0.01863098 2.07159424 0.02822876 C4.31208968 0.06237105 6.55146419 0.11829962 8.79150391 0.17456055 C10.35232211 0.20261822 11.91316548 0.22930599 13.47402954 0.25468445 C17.56783835 0.3249086 21.66104089 0.41366192 25.75439453 0.50634766 C29.93712958 0.59775358 34.12017197 0.67153645 38.30322266 0.74682617 C46.50023905 0.89694875 54.69669881 1.06665797 62.89306641 1.2487793 C62.89306641 1.5787793 62.89306641 1.9087793 62.89306641 2.2487793 C61.74966797 2.30936523 60.60626953 2.36995117 59.42822266 2.43237305 C57.93732336 2.51676357 56.44643866 2.60141231 54.95556641 2.6862793 C53.82344727 2.74525391 53.82344727 2.74525391 52.66845703 2.80541992 C48.97362453 2.68915954 48.97362453 2.68915954 45.89306641 4.2487793 C98.69306641 4.5787793 151.49306641 4.9087793 205.89306641 5.2487793 C205.89306641 5.5787793 205.89306641 5.9087793 205.89306641 6.2487793 C133.29306641 6.5787793 60.69306641 6.9087793 -14.10693359 7.2487793 C-13.10693359 3.2487793 -13.10693359 3.2487793 -10.48861694 1.514328 C-6.71756635 0.10306393 -4.01662527 -0.07975249 0 0 Z " fill="#BA40F9" transform="translate(63.10693359375,146.751220703125)"/>
<path d="M0 0 C0.33 0 0.66 0 1 0 C1.22042969 0.85271484 1.22042969 0.85271484 1.4453125 1.72265625 C3.1235372 7.49999301 5.18486409 12.20345053 10 16 C12.93451272 17.34738247 15.85893182 18.26708409 19 19 C16.6476009 20.56826607 14.60558817 21.66542568 12.0625 22.8125 C5.29829979 26.19460011 3.32841371 31.13117957 1 38 C0.67 38 0.34 38 0 38 C-0.15855469 37.41992188 -0.31710938 36.83984375 -0.48046875 36.2421875 C-2.13187007 30.71318639 -3.75056739 26.9661371 -8 23 C-10.64627918 21.70145408 -13.16339784 20.86540405 -16 20 C-15.46375 19.7525 -14.9275 19.505 -14.375 19.25 C-8.1912984 15.99542021 -3.51661117 12.77387833 -1.3125 5.8359375 C-0.82087877 3.90359293 -0.40397581 1.95254975 0 0 Z " fill="#E8CFFB" transform="translate(237,241)"/>
<path d="M0 0 C21.12 0 42.24 0 64 0 C63.67 0.99 63.34 1.98 63 3 C58.91668161 3.02903892 54.8333898 3.04681189 50.75 3.0625 C49.01169922 3.07506836 49.01169922 3.07506836 47.23828125 3.08789062 C46.12324219 3.09111328 45.00820312 3.09433594 43.859375 3.09765625 C42.31975098 3.10551147 42.31975098 3.10551147 40.74902344 3.11352539 C38 3 38 3 35.96166992 2.48413086 C33.47037304 1.86929057 31.3134879 2.00591278 28.75390625 2.15625 C27.75166016 2.20910156 26.74941406 2.26195312 25.71679688 2.31640625 C23.61782534 2.43857549 21.51886693 2.56097048 19.41992188 2.68359375 C18.41638672 2.73644531 17.41285156 2.78929687 16.37890625 2.84375 C15.4669751 2.89724609 14.55504395 2.95074219 13.61547852 3.00585938 C11 3 11 3 8.35131836 2.44726562 C5.86068002 1.77536427 5.86068002 1.77536427 3 3 C3.11512153 4.72985242 3.24255677 6.45888751 3.375 8.1875 C3.47941406 9.63189453 3.47941406 9.63189453 3.5859375 11.10546875 C4.00215853 14.01508938 4.79874096 16.32890774 6 19 C4.68 19.33 3.36 19.66 2 20 C1.814375 21.2065625 1.814375 21.2065625 1.625 22.4375 C1.41875 23.283125 1.2125 24.12875 1 25 C0.01 25.495 0.01 25.495 -1 26 C-1.495 27.485 -1.495 27.485 -2 29 C-3.33333333 29.66666667 -4.66666667 30.33333333 -6 31 C-7.11375 32.1446875 -7.11375 32.1446875 -8.25 33.3125 C-12.17255699 37.14590796 -16.53230724 40.08178874 -21.6875 42 C-24.82826859 43.3581702 -26.624454 45.56506535 -29 48 C-30.63377642 49.05287814 -32.29181597 50.0727001 -34 51 C-34.66 50.34 -35.32 49.68 -36 49 C-35.35675781 48.53851563 -34.71351563 48.07703125 -34.05078125 47.6015625 C-31.02283128 45.4159096 -28.00805316 43.2129025 -25 41 C-24.46020508 40.60425781 -23.92041016 40.20851562 -23.36425781 39.80078125 C-9.91918624 30.6708442 -9.91918624 30.6708442 -1 18 C-0.67 12.06 -0.34 6.12 0 0 Z " fill="#8D17E6" transform="translate(206,215)"/>
<path d="M0 0 C0.97517578 -0.01224609 1.95035156 -0.02449219 2.95507812 -0.03710938 C4.36370117 -0.04000977 4.36370117 -0.04000977 5.80078125 -0.04296875 C6.64423096 -0.04707764 7.48768066 -0.05118652 8.35668945 -0.05541992 C10.91856284 0.21158165 12.51737088 0.81582883 14.6875 2.1875 C15.0175 2.8475 15.3475 3.5075 15.6875 4.1875 C17.71213255 4.83963292 17.71213255 4.83963292 19.6875 5.1875 C19.3575 6.1775 19.0275 7.1675 18.6875 8.1875 C17.98921994 7.70072375 17.29093988 7.21394751 16.57149982 6.71242046 C13.26357527 4.96334898 11.26385691 4.80476723 7.54350281 4.78877258 C6.30816299 4.77623444 5.07282318 4.76369629 3.80004883 4.7507782 C2.43920872 4.75195214 1.07836883 4.75341125 -0.2824707 4.75512695 C-1.72162212 4.7461067 -3.16076584 4.73577883 -4.59989929 4.72424316 C-8.50032559 4.69667769 -12.4006061 4.6873893 -16.30111718 4.68138909 C-20.37977384 4.67200422 -24.45832164 4.64580074 -28.53691101 4.62138367 C-36.25740377 4.57771806 -43.97787541 4.54917149 -51.69845408 4.52606028 C-60.48927555 4.49900893 -69.27998752 4.45509739 -78.07073081 4.40977156 C-96.15126273 4.31692442 -114.23182361 4.24524401 -132.3125 4.1875 C-132.3125 3.8575 -132.3125 3.5275 -132.3125 3.1875 C-115.17026411 2.52841385 -98.03656832 2.0914892 -80.8828125 1.90625 C-80.01015495 1.89670288 -79.13749741 1.88715576 -78.23839569 1.87731934 C-71.04967168 1.79968889 -63.86088148 1.72918673 -56.67205811 1.66143799 C-51.24333677 1.61024277 -45.81467623 1.55551037 -40.38604355 1.49562073 C-37.8862979 1.46944106 -35.38654432 1.44843657 -32.88674927 1.4276123 C-21.87287482 1.31685711 -11.00230885 0.00741895 0 0 Z " fill="#521D8C" transform="translate(257.3125,142.8125)"/>
<path d="M0 0 C0.33 0 0.66 0 1 0 C1 12.54 1 25.08 1 38 C24.76 38 48.52 38 73 38 C73 34.04 73 30.08 73 26 C73.66 26 74.32 26 75 26 C75.103125 25.360625 75.20625 24.72125 75.3125 24.0625 C75.539375 23.381875 75.76625 22.70125 76 22 C76.99 21.67 77.98 21.34 79 21 C79 20.34 79 19.68 79 19 C81.92810969 17.53594515 84.51923162 17.86458397 87.78881836 17.85473633 C88.48654861 17.85137772 89.18427887 17.8480191 89.90315247 17.84455872 C92.21540088 17.83504029 94.52757695 17.83310519 96.83984375 17.83203125 C98.4440565 17.82881938 100.04826895 17.82545536 101.65248108 17.82194519 C105.01759521 17.81595175 108.38268364 17.81410552 111.74780273 17.81469727 C116.06337874 17.81479892 120.37879034 17.80114425 124.69432735 17.78392506 C128.0082729 17.77281599 131.32217856 17.77077772 134.63614082 17.77130699 C136.22737762 17.77012532 137.81861539 17.76569307 139.40983391 17.75797462 C141.63393605 17.74819633 143.85767941 17.75104401 146.08178711 17.75708008 C147.98135414 17.75494255 147.98135414 17.75494255 149.91929626 17.75276184 C153 18 153 18 156 20 C156 20.66 156 21.32 156 22 C155.31159531 21.67599213 154.62319061 21.35198425 153.91392517 21.01815796 C150.56936083 19.84952987 147.91768975 19.73272001 144.37719727 19.70947266 C143.73261566 19.70275543 143.08803406 19.69603821 142.42391968 19.68911743 C140.30466897 19.67020413 138.18573597 19.66621695 136.06640625 19.6640625 C134.58576835 19.65763081 133.10513172 19.65090217 131.62449646 19.64389038 C128.5252691 19.63193497 125.42615308 19.62820785 122.3269043 19.62939453 C118.36459854 19.62959783 114.40300913 19.60227748 110.44087315 19.56785011 C107.38413746 19.54556514 104.3275739 19.54155744 101.2707653 19.54261398 C99.81037867 19.54026113 98.34998707 19.5314553 96.88968086 19.51594925 C94.84334828 19.49625135 92.79855708 19.50213944 90.75219727 19.51416016 C89.0094326 19.5098851 89.0094326 19.5098851 87.23146057 19.50552368 C82.47538821 20.23329526 79.33286085 22.48329628 76.1875 26.0625 C74.35786268 30.18080493 74.35786268 30.18080493 74 40 C49.58 40 25.16 40 0 40 C0 26.8 0 13.6 0 0 Z " fill="#6511D0" transform="translate(45,158)"/>
<path d="M0 0 C21.78 0 43.56 0 66 0 C66.84896486 3.39585942 67.0824286 5.64686475 67 9.0625 C66.9254869 12.15945057 67.00691998 14.02075995 68 17 C68.09921062 19.73996392 68.14074753 22.44800286 68.125 25.1875 C68.12318726 26.38439453 68.12318726 26.38439453 68.12133789 27.60546875 C68.08714895 32.92421642 67.83555612 38.19727811 67.4375 43.5 C67.04890708 48.83916029 67.04210213 53.78933337 67.84375 59.08203125 C68 61 68 61 67 64 C66.65772583 65.33106622 66.32248257 66.66400079 66 68 C65.67 68 65.34 68 65 68 C65 46.22 65 24.44 65 2 C44.35663745 2.07919735 44.35663745 2.07919735 23.71337891 2.18017578 C21.13444178 2.18601441 18.55550282 2.19111145 15.9765625 2.1953125 C15.30418549 2.20053925 14.63180847 2.20576599 13.9390564 2.21115112 C11.96283569 2.22574716 9.98652847 2.22667726 8.01025391 2.22705078 C6.33813339 2.23371262 6.33813339 2.23371262 4.63223267 2.24050903 C2 2 2 2 0 0 Z " fill="#1C0056" transform="translate(206,213)"/>
<path d="M0 0 C20.79 0 41.58 0 63 0 C63.495 8.91 63.495 8.91 64 18 C66.20403032 22.40806064 67.90678336 25.37347015 71 29 C68.5625 28.1875 68.5625 28.1875 66 27 C65.505 25.515 65.505 25.515 65 24 C64.34 24 63.68 24 63 24 C60.38462703 20.04504575 60.55735726 15.83172627 60.375 11.25 C60.31699219 10.06083984 60.31699219 10.06083984 60.2578125 8.84765625 C60.163892 6.89880584 60.08087178 4.94943549 60 3 C53.00741352 2.97458038 46.01483903 2.95710385 39.0222168 2.94506836 C36.64493362 2.94004924 34.26765352 2.93323254 31.89038086 2.92456055 C28.46727743 2.91238888 25.04421493 2.90674738 21.62109375 2.90234375 C20.56353378 2.89718246 19.50597382 2.89202118 18.41636658 2.88670349 C13.16506204 2.88630706 8.17313329 3.07884441 3 4 C2.41408285 7.58874257 2 10.98381307 2 14.625 C2 17.60677183 1.69921327 20.11574526 1 23 C0.67 23 0.34 23 0 23 C0 15.41 0 7.82 0 0 Z " fill="#AA4CD9" transform="translate(57,215)"/>
<path d="M0 0 C0.66 0 1.32 0 2 0 C1.42415568 2.38564077 0.77772405 4.66682784 0 7 C-0.11235161 8.33451263 -0.17575649 9.67354389 -0.20532227 11.01245117 C-0.22550415 11.824198 -0.24568604 12.63594482 -0.26647949 13.47229004 C-0.28295532 14.32061401 -0.29943115 15.16893799 -0.31640625 16.04296875 C-0.33505737 16.82627563 -0.3537085 17.60958252 -0.3729248 18.41662598 C-0.44117633 21.34013691 -0.50135452 24.26383181 -0.5625 27.1875 C-0.706875 33.725625 -0.85125 40.26375 -1 47 C23.42 47 47.84 47 73 47 C73.33 46.01 73.66 45.02 74 44 C74 45.65 74 47.3 74 49 C71.00535267 50.49732367 68.31850765 50.0726552 64.97998047 50.02172852 C63.89689606 50.0073172 63.89689606 50.0073172 62.79193115 49.99261475 C60.40025218 49.95957805 58.00875323 49.91926365 55.6171875 49.87890625 C53.96095417 49.85460969 52.30471414 49.8307659 50.64846802 49.80735779 C46.28526184 49.74447066 41.92217399 49.67541716 37.55908203 49.60510254 C33.10845334 49.53446085 28.65774063 49.46961898 24.20703125 49.40429688 C15.47126115 49.27522488 6.7356075 49.13964195 -2 49 C-2.05064837 42.50385868 -2.0857117 36.00776815 -2.10986328 29.51147461 C-2.11993006 27.30084327 -2.13358448 25.09022528 -2.15087891 22.87963867 C-2.17509738 19.70488189 -2.18647627 16.53030094 -2.1953125 13.35546875 C-2.20563507 12.36475876 -2.21595764 11.37404877 -2.22659302 10.35331726 C-2.22674408 9.43258926 -2.22689514 8.51186127 -2.22705078 7.56323242 C-2.231492 6.7527092 -2.23593323 5.94218597 -2.24050903 5.10710144 C-2 3 -2 3 0 0 Z " fill="#280271" transform="translate(46,151)"/>
<path d="M0 0 C16.5 0 33 0 50 0 C50 1.32 50 2.64 50 4 C33.5 4 17 4 0 4 C0 2.68 0 1.36 0 0 Z " fill="#E58BFC" transform="translate(139,198)"/>
<path d="M0 0 C1.98 0 3.96 0 6 0 C6.33 1.65 6.66 3.3 7 5 C8.65 4.34 10.3 3.68 12 3 C11.649375 3.78375 11.29875 4.5675 10.9375 5.375 C9.33956585 11.5536787 10.5624601 17.83911471 12 24 C12.66 24 13.32 24 14 24 C14.22162329 22.37675914 14.42689803 20.751279 14.625 19.125 C14.74101562 18.22007813 14.85703125 17.31515625 14.9765625 16.3828125 C14.98429688 15.59648438 14.99203125 14.81015625 15 14 C14.34 13.34 13.68 12.68 13 12 C16 10 16 10 18.0625 9.5625 C20.39057818 9.11223305 20.39057818 9.11223305 22 6 C22.33 6.66 22.66 7.32 23 8 C22.70738281 8.72960937 22.41476562 9.45921875 22.11328125 10.2109375 C20.45552123 14.36406259 20.28602224 18.61195958 19.85546875 23.0390625 C19 26 19 26 16.61328125 27.9609375 C14 29 14 29 11 28 C10.18798828 26.28515625 10.18798828 26.28515625 9.5703125 24.0625 C9.3345752 23.25337158 9.09883789 22.44424316 8.85595703 21.6105957 C8.61474121 20.74909912 8.37352539 19.88760254 8.125 19 C6.09043758 12.11136959 3.90528868 6.08765589 0 0 Z " fill="#9113DC" transform="translate(240,73)"/>
<path d="M0 0 C0.33 0 0.66 0 1 0 C1.04640402 8.89284087 1.08191014 17.78563985 1.10362434 26.67857552 C1.1140477 30.80822155 1.12818038 34.93778456 1.15087891 39.06738281 C1.17265903 43.0549895 1.18457952 47.04251647 1.18975449 51.03017807 C1.19344097 52.54916513 1.20063975 54.06814799 1.21146011 55.58710098 C1.22604393 57.71978325 1.22797509 59.85213892 1.22705078 61.98486328 C1.231492 63.1973172 1.23593323 64.40977112 1.24050903 65.65896606 C0.91367516 70.19918242 -0.04187034 73.69968118 -2.75 77.375 C-5.64414084 79.46521283 -7.5094048 79.31732684 -11 79 C-11 79.66 -11 80.32 -11 81 C-12.32 80.67 -13.64 80.34 -15 80 C-13 78 -13 78 -10 77.625 C-8.515 77.315625 -8.515 77.315625 -7 77 C-5.74172877 75.15017528 -5.74172877 75.15017528 -5 73 C-4.49355957 72.54729736 -3.98711914 72.09459473 -3.46533203 71.62817383 C-1.59737215 69.55262827 -1.65927279 68.57765298 -1.7421875 65.82421875 C-1.75636719 64.99470703 -1.77054687 64.16519531 -1.78515625 63.31054688 C-1.81480469 62.44494141 -1.84445312 61.57933594 -1.875 60.6875 C-2.0284765 54.92310334 -1.99298624 49.26458862 -1.54296875 43.51171875 C-0.85565381 34.72330765 -0.65364301 25.93481254 -0.4375 17.125 C-0.39416942 15.45441956 -0.35055132 13.78384655 -0.30664062 12.11328125 C-0.20112324 8.07559855 -0.09945882 4.03783629 0 0 Z " fill="#650EC7" transform="translate(270,215)"/>
<path d="M0 0 C0.99 0.495 0.99 0.495 2 1 C2 3.97 2 6.94 2 10 C3.14549316 9.96447021 4.29098633 9.92894043 5.47119141 9.89233398 C28.70107403 9.18780047 51.78002024 8.7931631 75 10 C75 10.66 75 11.32 75 12 C50.58 12 26.16 12 1 12 C0.67 8.04 0.34 4.08 0 0 Z " fill="#6010CD" transform="translate(206,186)"/>
<path d="M0 0 C24.42 0 48.84 0 74 0 C73.67 0.99 73.34 1.98 73 3 C48.91 2.67 24.82 2.34 0 2 C0 1.34 0 0.68 0 0 Z " fill="#290270" transform="translate(207,198)"/>
<path d="M0 0 C20.79 0 41.58 0 63 0 C62.67 0.99 62.34 1.98 62 3 C57.91668161 3.02903892 53.8333898 3.04681189 49.75 3.0625 C48.01169922 3.07506836 48.01169922 3.07506836 46.23828125 3.08789062 C45.12324219 3.09111328 44.00820312 3.09433594 42.859375 3.09765625 C41.31975098 3.10551147 41.31975098 3.10551147 39.74902344 3.11352539 C37 3 37 3 34.96166992 2.48413086 C32.47037304 1.86929057 30.3134879 2.00591278 27.75390625 2.15625 C26.75166016 2.20910156 25.74941406 2.26195312 24.71679688 2.31640625 C22.61782534 2.43857549 20.51886693 2.56097048 18.41992188 2.68359375 C17.41638672 2.73644531 16.41285156 2.78929687 15.37890625 2.84375 C14.01100952 2.92399414 14.01100952 2.92399414 12.61547852 3.00585938 C10 3 10 3 7.35131836 2.44726562 C4.86068002 1.77536427 4.86068002 1.77536427 2 3 C1.67 5.97 1.34 8.94 1 12 C0.67 12 0.34 12 0 12 C0 8.04 0 4.08 0 0 Z " fill="#B248E2" transform="translate(207,215)"/>
<path d="M0 0 C4.81075606 -0.19243024 8.54023951 0.13312351 13 2 C13.66 2.66 14.32 3.32 15 4 C14.8125 6 14.8125 6 14 8 C10.63810342 10.24126438 7.41864582 11.09014492 3.5625 12.0625 C2.89412109 12.23587891 2.22574219 12.40925781 1.53710938 12.58789062 C-1.63757401 13.40909218 -4.8173069 14.21043163 -8 15 C-8 12 -8 12 -6 10 C-6 9.67 -6 9.34 -6 9 C-3.36 9 -0.72 9 2 9 C2.23428313 4.2102679 2.23428313 4.2102679 0 0 Z M3 2 C3.33 3.32 3.66 4.64 4 6 C5.32 5.67 6.64 5.34 8 5 C8 4.01 8 3.02 8 2 C6.35 2 4.7 2 3 2 Z " fill="#A110DF" transform="translate(283,54)"/>
<path d="M0 0 C0.99 0.495 0.99 0.495 2 1 C1.98839844 1.68707031 1.97679687 2.37414062 1.96484375 3.08203125 C1.95582031 3.98308594 1.94679688 4.88414062 1.9375 5.8125 C1.92589844 6.70582031 1.91429687 7.59914062 1.90234375 8.51953125 C1.88990033 11.13413791 1.88990033 11.13413791 3 14 C3.09921062 16.73996392 3.14074753 19.44800286 3.125 22.1875 C3.1237915 22.98542969 3.12258301 23.78335938 3.12133789 24.60546875 C3.08714895 29.92421642 2.83555612 35.19727811 2.4375 40.5 C2.04890708 45.83916029 2.04210213 50.78933337 2.84375 56.08203125 C3 58 3 58 2 61 C1.65772583 62.33106622 1.32248257 63.66400079 1 65 C0.67 65 0.34 65 0 65 C0 43.55 0 22.1 0 0 Z " fill="#18054B" transform="translate(271,216)"/>
<path d="M0 0 C1.20101852 0.02009628 2.40203705 0.04019257 3.63945007 0.06089783 C5.58486443 0.10145042 5.58486443 0.10145042 7.56958008 0.14282227 C8.91049898 0.16712965 10.25142637 0.1909729 11.59236145 0.21437073 C15.11878134 0.2771502 18.64505063 0.34623408 22.17132568 0.41662598 C25.77080436 0.48736495 29.37038967 0.5521486 32.9699707 0.61743164 C40.03063339 0.7463648 47.0911542 0.88195764 54.15161133 1.02172852 C54.15161133 1.68172852 54.15161133 2.34172852 54.15161133 3.02172852 C33.03161133 3.02172852 11.91161133 3.02172852 -9.84838867 3.02172852 C-7.88616689 -0.90271504 -3.86832263 -0.07298722 0 0 Z " fill="#1B0056" transform="translate(65.848388671875,211.978271484375)"/>
<path d="M0 0 C0.33 0 0.66 0 1 0 C1.02529589 6.65689282 1.04284396 13.3137733 1.05493164 19.97070312 C1.05996926 22.23665836 1.06679952 24.50261033 1.07543945 26.76855469 C1.08752996 30.02019047 1.09323392 33.27178339 1.09765625 36.5234375 C1.10281754 37.54118256 1.10797882 38.55892761 1.11329651 39.60751343 C1.11337204 40.54833771 1.11344757 41.48916199 1.11352539 42.45849609 C1.115746 43.28900482 1.11796661 44.11951355 1.12025452 44.97518921 C1 47 1 47 0 49 C-0.15306901 50.81171098 -0.24946661 52.6283794 -0.31640625 54.4453125 C-0.35830078 55.52167969 -0.40019531 56.59804688 -0.44335938 57.70703125 C-0.50233398 59.39892578 -0.50233398 59.39892578 -0.5625 61.125 C-0.60568359 62.26066406 -0.64886719 63.39632812 -0.69335938 64.56640625 C-0.7996604 67.37747768 -0.90169405 70.18863945 -1 73 C-1.33 73 -1.66 73 -2 73 C-3.15080972 49.33188404 -3.10731909 25.68945101 -3 2 C-2.34 2 -1.68 2 -1 2 C-0.67 1.34 -0.34 0.68 0 0 Z " fill="#322A53" transform="translate(288,218)"/>
<path d="M0 0 C0.69773026 -0.00335861 1.39546051 -0.00671722 2.11433411 -0.01017761 C4.42658252 -0.01969604 6.73875859 -0.02163114 9.05102539 -0.02270508 C10.65523814 -0.02591695 12.25945059 -0.02928097 13.86366272 -0.03279114 C17.22877685 -0.03878458 20.59386528 -0.04063081 23.95898438 -0.04003906 C28.27456038 -0.03993741 32.58997198 -0.05359208 36.905509 -0.07081127 C40.21945454 -0.08192033 43.5333602 -0.08395861 46.84732246 -0.08342934 C48.43855926 -0.08461101 50.02979703 -0.08904326 51.62101555 -0.0967617 C53.84511769 -0.10654 56.06886105 -0.10369232 58.29296875 -0.09765625 C60.19253578 -0.09979378 60.19253578 -0.09979378 62.13047791 -0.10197449 C65.21118164 0.14526367 65.21118164 0.14526367 68.21118164 2.14526367 C68.21118164 2.80526367 68.21118164 3.46526367 68.21118164 4.14526367 C67.52277695 3.8212558 66.83437225 3.49724792 66.12510681 3.16342163 C62.78054247 1.99479354 60.12887139 1.87798368 56.58837891 1.85473633 C55.9437973 1.8480191 55.2992157 1.84130188 54.63510132 1.8343811 C52.51585061 1.81546781 50.39691761 1.81148062 48.27758789 1.80932617 C46.79695 1.80289448 45.31631336 1.79616585 43.8356781 1.78915405 C40.73645074 1.77719864 37.63733472 1.77347152 34.53808594 1.7746582 C30.57578018 1.7748615 26.61419077 1.74754115 22.65205479 1.71311378 C19.5953191 1.69082881 16.53875554 1.68682111 13.48194695 1.68787766 C12.02156031 1.6855248 10.56116871 1.67671898 9.1008625 1.66121292 C7.05452993 1.64151503 5.00973872 1.64740311 2.96337891 1.65942383 C1.22061424 1.65514877 1.22061424 1.65514877 -0.55735779 1.65078735 C-5.33482125 2.38183218 -8.49332982 4.62641504 -11.60131836 8.27026367 C-13.33147784 12.45907084 -13.53571178 16.65044 -13.78881836 21.14526367 C-14.11881836 21.14526367 -14.44881836 21.14526367 -14.78881836 21.14526367 C-14.78881836 16.85526367 -14.78881836 12.56526367 -14.78881836 8.14526367 C-14.12881836 8.14526367 -13.46881836 8.14526367 -12.78881836 8.14526367 C-12.68569336 7.50588867 -12.58256836 6.86651367 -12.47631836 6.20776367 C-12.24944336 5.52713867 -12.02256836 4.84651367 -11.78881836 4.14526367 C-10.79881836 3.81526367 -9.80881836 3.48526367 -8.78881836 3.14526367 C-8.78881836 2.48526367 -8.78881836 1.82526367 -8.78881836 1.14526367 C-5.86070867 -0.31879117 -3.26958674 0.00984764 0 0 Z " fill="#851ADE" transform="translate(132.788818359375,175.854736328125)"/>
<path d="M0 0 C20.13 0 40.26 0 61 0 C60.67 0.66 60.34 1.32 60 2 C59.38914047 1.99777939 58.77828094 1.99555878 58.14891052 1.99327087 C51.77335191 1.97109431 45.39780432 1.95604183 39.0222168 1.94506836 C36.64493362 1.94004924 34.26765352 1.93323254 31.89038086 1.92456055 C28.46727743 1.91238888 25.04421493 1.90674738 21.62109375 1.90234375 C20.56353378 1.89718246 19.50597382 1.89202118 18.41636658 1.88670349 C13.16506204 1.88630706 8.17313329 2.07884441 3 3 C2.41408285 6.58874257 2 9.98381307 2 13.625 C2 16.60677183 1.69921327 19.11574526 1 22 C0.67 22 0.34 22 0 22 C0 14.74 0 7.48 0 0 Z " fill="#BD42EC" transform="translate(57,216)"/>
<path d="M0 0 C0.33 0.66 0.66 1.32 1 2 C2.423125 2.433125 2.423125 2.433125 3.875 2.875 C7.41628607 4.14986298 8.18681151 4.78112566 10 8 C10.36076355 11.1005249 10.36076355 11.1005249 10.34057617 14.78808594 C10.34101425 15.46166641 10.34145233 16.13524689 10.34190369 16.82923889 C10.33981946 19.04791604 10.31650699 21.26583043 10.29296875 23.484375 C10.28737146 25.02565091 10.28310199 26.56693217 10.28010559 28.10821533 C10.26866718 32.15910656 10.23920889 36.20967361 10.20599365 40.26043701 C10.17527098 44.39623632 10.16159557 48.53208815 10.14648438 52.66796875 C10.114338 60.77879438 10.06315407 68.88935683 10 77 C9.67 77 9.34 77 9 77 C9 54.56 9 32.12 9 9 C6.69 8.67 4.38 8.34 2 8 C0 6.75 0 6.75 -1 5 C-0.6875 2.3125 -0.6875 2.3125 0 0 Z " fill="#423B57" transform="translate(29,210)"/>
<path d="M0 0 C16.83 0 33.66 0 51 0 C51 0.33 51 0.66 51 1 C34.5 1 18 1 1 1 C1.061875 5.00125 1.12375 9.0025 1.1875 13.125 C1.19418701 14.37555176 1.20087402 15.62610352 1.20776367 16.91455078 C1.40229257 23.83398274 2.02344695 27.15837742 7 32 C7 32.99 7 33.98 7 35 C7.66 35 8.32 35 9 35 C9.33 36.32 9.66 37.64 10 39 C8.88822533 38.11362622 7.78593386 37.2153535 6.6875 36.3125 C6.07261719 35.81363281 5.45773438 35.31476563 4.82421875 34.80078125 C1.75990808 31.77584074 0.12951595 29.19331074 -0.34057617 24.86206055 C-0.32486572 23.71519775 -0.30915527 22.56833496 -0.29296875 21.38671875 C-0.28547607 20.26225342 -0.2779834 19.13778809 -0.27026367 17.97924805 C-0.24295166 16.56297119 -0.21563965 15.14669434 -0.1875 13.6875 C-0.125625 9.170625 -0.06375 4.65375 0 0 Z " fill="#9860C0" transform="translate(138,197)"/>
<path d="M0 0 C16.5 0 33 0 50 0 C50 7.59 50 15.18 50 23 C49.67 23 49.34 23 49 23 C49 16.73 49 10.46 49 4 C48.34 4 47.68 4 47 4 C47 3.01 47 2.02 47 1 C32.48 1.33 17.96 1.66 3 2 C2.34 8.27 1.68 14.54 1 21 C0.67 21 0.34 21 0 21 C0 14.07 0 7.14 0 0 Z " fill="#BB4CEE" transform="translate(139,202)"/>
<path d="M0 0 C-1.75 3.875 -1.75 3.875 -4 5 C-4.99 6.2684375 -4.99 6.2684375 -6 7.5625 C-6.66 8.366875 -7.32 9.17125 -8 10 C-8.66 10 -9.32 10 -10 10 C-10.66 11.32 -11.32 12.64 -12 14 C-12.66 14 -13.32 14 -14 14 C-13.67 14.99 -13.34 15.98 -13 17 C-14.32 17.99 -15.64 18.98 -17 20 C-17.66255127 13.63950781 -15.97236197 9.96545246 -12 5 C-7.86458969 1.24927902 -5.55059997 -0.14606842 0 0 Z " fill="#7512EA" transform="translate(255,262)"/>
<path d="M0 0 C0.97517578 -0.01224609 1.95035156 -0.02449219 2.95507812 -0.03710938 C4.36370117 -0.04000977 4.36370117 -0.04000977 5.80078125 -0.04296875 C6.64423096 -0.04707764 7.48768066 -0.05118652 8.35668945 -0.05541992 C10.91856284 0.21158165 12.51737088 0.81582883 14.6875 2.1875 C15.1825 3.1775 15.1825 3.1775 15.6875 4.1875 C17.71213255 4.83963292 17.71213255 4.83963292 19.6875 5.1875 C19.3575 6.1775 19.0275 7.1675 18.6875 8.1875 C17.69097412 7.54458008 16.69444824 6.90166016 15.66772461 6.23925781 C11.78241864 4.02702299 8.4961605 3.57586918 4.00390625 3.359375 C3.30353745 3.3206427 2.60316864 3.2819104 1.88157654 3.24200439 C-0.32847283 3.1236213 -2.53873789 3.03014863 -4.75 2.9375 C-6.25985022 2.86102728 -7.76961845 2.78291738 -9.27929688 2.703125 C-12.95627538 2.51232999 -16.63387648 2.34383435 -20.3125 2.1875 C-20.3125 1.8575 -20.3125 1.5275 -20.3125 1.1875 C-13.51202823 0.31205307 -6.85370979 0.00462152 0 0 Z " fill="#2A046A" transform="translate(257.3125,142.8125)"/>
<path d="M0 0 C0.99 0 1.98 0 3 0 C3.66 3.63 4.32 7.26 5 11 C4.01 11.33 3.02 11.66 2 12 C2 11.34 2 10.68 2 10 C1.01 10.99 0.02 11.98 -1 13 C-0.34 13.33 0.32 13.66 1 14 C0.34 15.32 -0.32 16.64 -1 18 C-1.99 17.67 -2.98 17.34 -4 17 C-3.7186941 14.54006972 -3.42547269 12.08259752 -3.125 9.625 C-3.04636719 8.92632812 -2.96773437 8.22765625 -2.88671875 7.5078125 C-2.2265625 2.2265625 -2.2265625 2.2265625 0 0 Z " fill="#AB07E5" transform="translate(253,18)"/>
<path d="M0 0 C0.66 0 1.32 0 2 0 C3.4547486 7.15251397 3.4547486 7.15251397 1.625 10.5625 C-8.53846154 20 -8.53846154 20 -13 20 C-13 19.34 -13 18.68 -13 18 C-12.34 18 -11.68 18 -11 18 C-11.33 17.01 -11.66 16.02 -12 15 C-9.69 14.01 -7.38 13.02 -5 12 C-5 11.34 -5 10.68 -5 10 C-4.01 9.67 -3.02 9.34 -2 9 C-2.04125 7.88625 -2.0825 6.7725 -2.125 5.625 C-2 2 -2 2 0 0 Z " fill="#A62DEA" transform="translate(185,220)"/>
<path d="M0 0 C0.556875 0.350625 1.11375 0.70125 1.6875 1.0625 C4.53886783 2.21845993 6.08517222 1.80967438 9 1 C9.33 2.32 9.66 3.64 10 5 C9.01 4.34 8.02 3.68 7 3 C6.01 7.62 5.02 12.24 4 17 C3.34 17 2.68 17 2 17 C-0.1663492 10.91708727 -1.5197276 6.3552245 0 0 Z " fill="#9613E7" transform="translate(250,80)"/>
<path d="M0 0 C0.33 0 0.66 0 1 0 C1.33 2.64 1.66 5.28 2 8 C2.33 8 2.66 8 3 8 C5.14285714 15.42857143 5.14285714 15.42857143 6 19 C4.68 19.33 3.36 19.66 2 20 C1.67 21.65 1.34 23.3 1 25 C-1.64 25.66 -4.28 26.32 -7 27 C-5.73046875 25.53515625 -4.4609375 24.0703125 -3.19140625 22.60546875 C-1.12481348 19.82065029 -0.84998414 17.12110918 -0.68359375 13.76953125 C-0.64169922 12.96708984 -0.59980469 12.16464844 -0.55664062 11.33789062 C-0.51732422 10.50451172 -0.47800781 9.67113281 -0.4375 8.8125 C-0.37272461 7.5450293 -0.37272461 7.5450293 -0.30664062 6.25195312 C-0.20068482 4.16815567 -0.0998498 2.08409897 0 0 Z " fill="#9625D7" transform="translate(206,215)"/>
<path d="M0 0 C3.12290635 0.48578543 5.99580359 0.9986012 9 2 C9.99 3.485 9.99 3.485 11 5 C12.97747122 5.36297936 12.97747122 5.36297936 15.125 5.1875 C16.40375 5.125625 17.6825 5.06375 19 5 C19 4.34 19 3.68 19 3 C19.66 3 20.32 3 21 3 C21.33 2.34 21.66 1.68 22 1 C22 1.99 22 2.98 22 4 C22.66 4.33 23.32 4.66 24 5 C22.9761394 5.8754311 21.9297954 6.72459976 20.875 7.5625 C20.29492188 8.03816406 19.71484375 8.51382813 19.1171875 9.00390625 C16.01747357 10.46225874 14.25906578 9.94105524 11 9 C8.0078125 7.1875 8.0078125 7.1875 5.125 5 C4.15820312 4.278125 3.19140625 3.55625 2.1953125 2.8125 C1.47085938 2.214375 0.74640625 1.61625 0 1 C0 0.67 0 0.34 0 0 Z " fill="#9521E5" transform="translate(148,236)"/>
<path d="M0 0 C0.33 0 0.66 0 1 0 C1.08132187 2.56314499 1.14064175 5.12368418 1.1875 7.6875 C1.22520508 8.7693457 1.22520508 8.7693457 1.26367188 9.87304688 C1.34612821 15.89235925 -0.17660491 18.82368973 -3.9375 23.3125 C-6 25 -6 25 -10 25 C-11.7511573 26.4166747 -11.7511573 26.4166747 -13 28 C-13 24.70947183 -12.85758514 23.66523085 -11 21 C-7.80816571 18.69653338 -5.03094174 17 -1 17 C-0.67 11.39 -0.34 5.78 0 0 Z " fill="#1D0451" transform="translate(205,217)"/>
<path d="M0 0 C0.33 0 0.66 0 1 0 C1.03758423 0.98395752 1.03758423 0.98395752 1.07592773 1.98779297 C1.1917326 4.95040183 1.31452886 7.91268031 1.4375 10.875 C1.47681641 11.90753906 1.51613281 12.94007813 1.55664062 14.00390625 C1.59853516 14.99003906 1.64042969 15.97617187 1.68359375 16.9921875 C1.72025146 17.90339355 1.75690918 18.81459961 1.79467773 19.75341797 C1.86577065 22.03483481 1.86577065 22.03483481 3 24 C2.34 24 1.68 24 1 24 C1.47859241 25.60433809 1.95789558 27.20846416 2.4375 28.8125 C2.70433594 29.70582031 2.97117188 30.59914063 3.24609375 31.51953125 C3.80387873 33.35473055 4.39344575 35.18033726 5 37 C3.68 36.67 2.36 36.34 1 36 C1 35.34 1 34.68 1 34 C0.34 34 -0.32 34 -1 34 C-0.67 22.78 -0.34 11.56 0 0 Z " fill="#1B0F41" transform="translate(40,259)"/>
<path d="M0 0 C0.33 0 0.66 0 1 0 C1.06058594 1.27617187 1.12117188 2.55234375 1.18359375 3.8671875 C1.26799568 5.53647016 1.35264386 7.20574037 1.4375 8.875 C1.47681641 9.71675781 1.51613281 10.55851562 1.55664062 11.42578125 C1.59853516 12.23144531 1.64042969 13.03710938 1.68359375 13.8671875 C1.73858032 14.98262939 1.73858032 14.98262939 1.79467773 16.12060547 C1.89955865 18.08864312 1.89955865 18.08864312 3 20 C3.99 19.67 4.98 19.34 6 19 C5.67 20.32 5.34 21.64 5 23 C5.66 23 6.32 23 7 23 C7 23.66 7 24.32 7 25 C8.98 25 10.96 25 13 25 C12.67 25.99 12.34 26.98 12 28 C9.875 28.4375 9.875 28.4375 7 28 C3.85169724 25.13037475 0.14148434 21.45665504 -0.11352539 17.02880859 C-0.10828857 16.24328613 -0.10305176 15.45776367 -0.09765625 14.6484375 C-0.09443359 13.79765625 -0.09121094 12.946875 -0.08789062 12.0703125 C-0.07951172 11.18085938 -0.07113281 10.29140625 -0.0625 9.375 C-0.05798828 8.4778125 -0.05347656 7.580625 -0.04882812 6.65625 C-0.03702591 4.43743352 -0.02056155 2.21874982 0 0 Z " fill="#680BE6" transform="translate(57,268)"/>
<path d="M0 0 C1.98 0 3.96 0 6 0 C8.66380466 3.92657711 8.25324779 8.15387609 8.1953125 12.703125 C8.1924826 13.54091492 8.18965271 14.37870483 8.18673706 15.24188232 C8.17556349 17.91140163 8.15046421 20.5805825 8.125 23.25 C8.11496654 25.06249515 8.10584133 26.87499556 8.09765625 28.6875 C8.0756334 33.12512993 8.04112304 37.56250763 8 42 C7.67 42 7.34 42 7 42 C7 30.12 7 18.24 7 6 C6.34 6 5.68 6 5 6 C4.34 5.01 3.68 4.02 3 3 C2.01 2.67 1.02 2.34 0 2 C0 1.34 0 0.68 0 0 Z " fill="#8F21E5" transform="translate(273,154)"/>
<path d="M0 0 C1.98 0 3.96 0 6 0 C6.33 1.65 6.66 3.3 7 5 C8.65 4.34 10.3 3.68 12 3 C11.34 4.98 10.68 6.96 10 9 C9.01 9 8.02 9 7 9 C7.33 10.65 7.66 12.3 8 14 C6.03900793 12.03900793 5.19010991 10.58889942 4 8.125 C3.67 7.44695312 3.34 6.76890625 3 6.0703125 C2.67 5.38710937 2.34 4.70390625 2 4 C1.33518069 2.66574459 0.66905508 1.33213645 0 0 Z " fill="#9E35DE" transform="translate(240,73)"/>
<path d="M0 0 C-4.62440425 2.07626313 -9.1008651 3.70022952 -14 5 C-13.34 6.32 -12.68 7.64 -12 9 C-9.69 9 -7.38 9 -5 9 C-9.19882375 11.79921583 -11.12127113 10.86558093 -16 10 C-17 9 -17 9 -17.1875 6.5625 C-17 4 -17 4 -15 2 C-13.04413376 1.3611775 -11.05932536 0.80868085 -9.0625 0.3125 C-8.00160156 0.04050781 -6.94070312 -0.23148438 -5.84765625 -0.51171875 C-3 -1 -3 -1 0 0 Z " fill="#9B49CA" transform="translate(229,53)"/>
<path d="M0 0 C0 0.66 0 1.32 0 2 C0.66 2 1.32 2 2 2 C2 2.66 2 3.32 2 4 C1.34 4 0.68 4 0 4 C-0.33 4.99 -0.66 5.98 -1 7 C-3.61754475 9.61754475 -4.38239594 9.98764792 -8.125 10.0625 C-9.548125 10.0315625 -9.548125 10.0315625 -11 10 C-4.31506849 0 -4.31506849 0 0 0 Z " fill="#2F216D" transform="translate(45,131)"/>
<path d="M0 0 C0.33 0.99 0.66 1.98 1 3 C1.66 3 2.32 3 3 3 C3.185625 3.9590625 3.185625 3.9590625 3.375 4.9375 C3.684375 5.9584375 3.684375 5.9584375 4 7 C4.66 7.33 5.32 7.66 6 8 C6.66 6.68 7.32 5.36 8 4 C8.99 4 9.98 4 11 4 C10.67 5.32 10.34 6.64 10 8 C10.66 8 11.32 8 12 8 C11.67 8.99 11.34 9.98 11 11 C3.61947973 11.48396854 3.61947973 11.48396854 1 9.4375 C-0.32761013 6.2014503 -0.19966912 3.46093134 0 0 Z " fill="#9310F2" transform="translate(240,241)"/>
<path d="M0 0 C0.66 0 1.32 0 2 0 C1.42415568 2.38564077 0.77772405 4.66682784 0 7 C-0.11235161 8.33451263 -0.17575649 9.67354389 -0.20532227 11.01245117 C-0.22526749 11.81305466 -0.24521271 12.61365814 -0.26576233 13.43852234 C-0.28247482 14.29798965 -0.29918732 15.15745697 -0.31640625 16.04296875 C-0.33718735 16.9265657 -0.35796844 17.81016266 -0.37937927 18.72053528 C-0.44475754 21.54277785 -0.50370528 24.36511335 -0.5625 27.1875 C-0.60569637 29.10092106 -0.64931102 31.01433273 -0.69335938 32.92773438 C-0.80042695 37.61839437 -0.90172752 42.30914783 -1 47 C-1.33 47 -1.66 47 -2 47 C-2.04938976 40.78866744 -2.08571476 34.57744888 -2.10986328 28.3659668 C-2.11992894 26.25233978 -2.13358257 24.1387267 -2.15087891 22.02514648 C-2.1751023 18.98938558 -2.18647738 15.95380857 -2.1953125 12.91796875 C-2.20563507 11.97100632 -2.21595764 11.02404388 -2.22659302 10.04838562 C-2.22674408 9.16769913 -2.22689514 8.28701263 -2.22705078 7.37963867 C-2.231492 6.60464523 -2.23593323 5.82965179 -2.24050903 5.03117371 C-2 3 -2 3 0 0 Z " fill="#2E0077" transform="translate(46,151)"/>
<path d="M0 0 C1.18797432 0.03541649 1.18797432 0.03541649 2.39994812 0.07154846 C4.91657156 0.14780319 7.43285716 0.23199041 9.94921875 0.31640625 C11.66079105 0.36966524 13.37237958 0.42240535 15.08398438 0.47460938 C19.26844099 0.60336626 23.45261278 0.73923547 27.63671875 0.87890625 C27.63671875 1.20890625 27.63671875 1.53890625 27.63671875 1.87890625 C26.81469971 1.9039624 25.99268066 1.92901855 25.14575195 1.95483398 C21.41342501 2.0710328 17.68133558 2.1936513 13.94921875 2.31640625 C12.65564453 2.35572266 11.36207031 2.39503906 10.02929688 2.43554688 C8.78212891 2.47744141 7.53496094 2.51933594 6.25 2.5625 C4.52970581 2.61748657 4.52970581 2.61748657 2.7746582 2.67358398 C-0.03321403 2.85730923 -2.62553939 3.24884445 -5.36328125 3.87890625 C-5.36328125 3.21890625 -5.36328125 2.55890625 -5.36328125 1.87890625 C-6.12640625 2.08515625 -6.88953125 2.29140625 -7.67578125 2.50390625 C-10.36328125 2.87890625 -10.36328125 2.87890625 -13.36328125 0.87890625 C-8.88939761 -0.26953233 -4.57561753 -0.16241341 0 0 Z " fill="#24116B" transform="translate(58.36328125,129.12109375)"/>
<path d="M0 0 C0.33 0 0.66 0 1 0 C1.00410889 0.60473145 1.00821777 1.20946289 1.01245117 1.83251953 C1.04553948 4.59764349 1.11619624 7.36060815 1.1875 10.125 C1.19330078 11.07632813 1.19910156 12.02765625 1.20507812 13.0078125 C1.40967207 19.55481874 2.43983134 22.3307364 7 27 C7 27.99 7 28.98 7 30 C7.66 30 8.32 30 9 30 C9.33 31.32 9.66 32.64 10 34 C8.88822533 33.11362622 7.78593386 32.2153535 6.6875 31.3125 C6.07261719 30.81363281 5.45773438 30.31476563 4.82421875 29.80078125 C1.96926512 26.98250796 0.17169774 24.35056579 -0.34057617 20.32104492 C-0.32486572 19.38365479 -0.30915527 18.44626465 -0.29296875 17.48046875 C-0.28330078 16.45888672 -0.27363281 15.43730469 -0.26367188 14.38476562 C-0.23853516 13.32966797 -0.21339844 12.27457031 -0.1875 11.1875 C-0.17396484 10.11306641 -0.16042969 9.03863281 -0.14648438 7.93164062 C-0.11122577 5.28724545 -0.06194366 2.64388252 0 0 Z " fill="#9639CD" transform="translate(138,202)"/>
<path d="M0 0 C0.33 0.66 0.66 1.32 1 2 C2.423125 2.433125 2.423125 2.433125 3.875 2.875 C7.39031526 4.14051349 8.17491545 4.82641084 10 8 C10.29296875 10.796875 10.29296875 10.796875 10.1875 13.75 C10.16042969 14.73484375 10.13335937 15.7196875 10.10546875 16.734375 C10.07066406 17.48203125 10.03585938 18.2296875 10 19 C9.67 19 9.34 19 9 19 C9 15.7 9 12.4 9 9 C7.906875 8.896875 6.81375 8.79375 5.6875 8.6875 C2 8 2 8 0 6.75 C-1 5 -1 5 -0.6875 2.3125 C-0.460625 1.549375 -0.23375 0.78625 0 0 Z " fill="#4C456D" transform="translate(29,210)"/>
<path d="M0 0 C0.763125 0.309375 1.52625 0.61875 2.3125 0.9375 C4.18789677 1.67893593 6.08684652 2.36228217 8 3 C8.66 3.33 9.32 3.66 10 4 C10 4.66 10 5.32 10 6 C10.66 6.33 11.32 6.66 12 7 C11.67 7.99 11.34 8.98 11 10 C6.32894208 8.44298069 2.91294315 5.91552627 -1 3 C-0.67 2.01 -0.34 1.02 0 0 Z " fill="#2C254A" transform="translate(46,303)"/>
<path d="M0 0 C0.33 0 0.66 0 1 0 C1.01417969 1.0621875 1.02835937 2.124375 1.04296875 3.21875 C1.27147641 11.34133317 1.48463308 17.5907051 7 24 C7.598125 24.825 8.19625 25.65 8.8125 26.5 C9.204375 26.995 9.59625 27.49 10 28 C7.5625 27.1875 7.5625 27.1875 5 26 C4.67 25.01 4.34 24.02 4 23 C3.34 23 2.68 23 2 23 C-1.91395285 16.30634187 -1.51475183 7.40545339 0 0 Z " fill="#A831E6" transform="translate(118,216)"/>
<path d="M0 0 C3.3 0.33 6.6 0.66 10 1 C10 1.33 10 1.66 10 2 C7.69 2.33 5.38 2.66 3 3 C2.41408285 6.58874257 2 9.98381307 2 13.625 C2 16.60677183 1.69921327 19.11574526 1 22 C0.67 22 0.34 22 0 22 C0 14.74 0 7.48 0 0 Z " fill="#B439ED" transform="translate(57,216)"/>
<path d="M0 0 C0.66 0 1.32 0 2 0 C0.78273716 3.4645173 -0.43854318 5.43854318 -3 8 C-3.71447643 10.10332891 -3.71447643 10.10332891 -4 12 C-6.64 12.33 -9.28 12.66 -12 13 C-11.67 11.68 -11.34 10.36 -11 9 C-9.02 8.67 -7.04 8.34 -5 8 C-5 7.34 -5 6.68 -5 6 C-4.34 6 -3.68 6 -3 6 C-2.67 4.68 -2.34 3.36 -2 2 C-1.34 2 -0.68 2 0 2 C0 1.34 0 0.68 0 0 Z " fill="#180F3F" transform="translate(281,297)"/>
<path d="M0 0 C0.66 0.33 1.32 0.66 2 1 C1.01 2.485 1.01 2.485 0 4 C0.33 4.99 0.66 5.98 1 7 C0.01 7.495 0.01 7.495 -1 8 C-1.66 7.67 -2.32 7.34 -3 7 C-3.66 8.65 -4.32 10.3 -5 12 C-6.98 11.34 -8.96 10.68 -11 10 C-8.31158141 7.74754119 -6.35358125 6.11786042 -3 5 C-1.8499169 3.03327085 -1.8499169 3.03327085 -1 1 C-0.67 0.67 -0.34 0.34 0 0 Z " fill="#A12FDB" transform="translate(240,42)"/>
<path d="M0 0 C1.65 0.33 3.3 0.66 5 1 C4.67 2.32 4.34 3.64 4 5 C4.99 5.33 5.98 5.66 7 6 C6.34 7.65 5.68 9.3 5 11 C3.68 10.34 2.36 9.68 1 9 C1.33 8.01 1.66 7.02 2 6 C1.34 6 0.68 6 0 6 C-1.125 2.25 -1.125 2.25 0 0 Z " fill="#A507E1" transform="translate(262,40)"/>
<path d="M0 0 C0.6875 2.0625 0.6875 2.0625 1 4 C0.195625 4.391875 -0.60875 4.78375 -1.4375 5.1875 C-4.23064738 6.76948191 -4.23064738 6.76948191 -4.8125 9.6875 C-4.874375 10.450625 -4.93625 11.21375 -5 12 C-5.33 12 -5.66 12 -6 12 C-6 8.04 -6 4.08 -6 0 C-3 -1 -3 -1 0 0 Z " fill="#9910F4" transform="translate(52,157)"/>
<path d="M0 0 C1.2684375 0.12375 1.2684375 0.12375 2.5625 0.25 C5.12937367 4.1003105 4.39538724 5.83569763 3.5625 10.25 C1.79787317 7.16190305 1.5625 6.01687864 1.5625 2.25 C-1.11326692 3.25617682 -2.2160108 3.79214546 -3.484375 6.4140625 C-3.71640625 7.22617187 -3.9484375 8.03828125 -4.1875 8.875 C-4.42984375 9.69226562 -4.6721875 10.50953125 -4.921875 11.3515625 C-5.09203125 11.97804688 -5.2621875 12.60453125 -5.4375 13.25 C-6.83693663 10.45112673 -5.98503576 9.12861172 -5.0625 6.1875 C-4.78664062 5.28902344 -4.51078125 4.39054687 -4.2265625 3.46484375 C-3.10565302 0.31852851 -3.10565302 0.31852851 0 0 Z " fill="#A445CF" transform="translate(254.4375,15.75)"/>
<path d="M0 0 C6.93 0.495 6.93 0.495 14 1 C11.61542052 2.58971965 9.3695876 3.86741593 6.8125 5.125 C6.09707031 5.47820312 5.38164063 5.83140625 4.64453125 6.1953125 C4.10183594 6.46085938 3.55914062 6.72640625 3 7 C2.01 4.69 1.02 2.38 0 0 Z " fill="#270568" transform="translate(45,145)"/>
<path d="M0 0 C0.66 0.33 1.32 0.66 2 1 C1 3 1 3 -1.25 4.3125 C-4.13454788 5.93565101 -4.13454788 5.93565101 -6.5625 8.5625 C-8.70847194 10.70847194 -10.23289641 11.8726615 -13 13 C-13.66 12.34 -14.32 11.68 -15 11 C-13.87851563 10.18595703 -13.87851563 10.18595703 -12.734375 9.35546875 C-11.74953125 8.64003906 -10.7646875 7.92460937 -9.75 7.1875 C-8.77546875 6.47980469 -7.8009375 5.77210938 -6.796875 5.04296875 C-4.51810991 3.37845179 -2.25234178 1.69998177 0 0 Z " fill="#7C15D8" transform="translate(185,253)"/>
<path d="M0 0 C1.0625 1.8125 1.0625 1.8125 2 4 C1 7 1 7 -1.3125 8.25 C-4.13936831 9.03889348 -5.32472609 9.10700989 -8 8 C-8.66 7.34 -9.32 6.68 -10 6 C-7.69 6 -5.38 6 -3 6 C-3.33 4.68 -3.66 3.36 -4 2 C-3.01 2 -2.02 2 -1 2 C-0.67 1.34 -0.34 0.68 0 0 Z " fill="#35295D" transform="translate(297,210)"/>
<path d="M0 0 C1.2375 -0.04125 2.475 -0.0825 3.75 -0.125 C4.79414063 -0.15980469 4.79414063 -0.15980469 5.859375 -0.1953125 C8.30155975 0.02751458 9.88636771 0.79085 12 2 C10.0429132 2.67031719 8.08428887 3.33614683 6.125 4 C5.03445313 4.37125 3.94390625 4.7425 2.8203125 5.125 C0 6 0 6 -2 6 C-2 3 -2 3 0 1 C0 0.67 0 0.34 0 0 Z " fill="#AA4ADC" transform="translate(277,63)"/>
<path d="M0 0 C0.66 0 1.32 0 2 0 C3.32 5.94 4.64 11.88 6 18 C6.66 18 7.32 18 8 18 C7.67 18.66 7.34 19.32 7 20 C6.01 19.67 5.02 19.34 4 19 C1.24347024 13.06285897 0.52044518 6.45352025 0 0 Z " fill="#8533C8" transform="translate(247,82)"/>
<path d="M0 0 C3.12741354 0.07446223 5.28435344 0.36162983 7.6640625 2.484375 C12.06676073 7.55940646 14.31278091 11.11882005 14 18 C12.80707743 15.61415486 11.63605632 13.22661969 10.5 10.8125 C9.29978656 7.9087487 9.29978656 7.9087487 7 7 C6.67 6.01 6.34 5.02 6 4 C2.99992729 2.29144978 2.99992729 2.29144978 0 1 C0 0.67 0 0.34 0 0 Z " fill="#7019DB" transform="translate(223,262)"/>
<path d="M0 0 C0.91058531 3.07322544 1.08886184 5.80097361 1 9 C-0.65 9 -2.3 9 -4 9 C-4 6.69 -4 4.38 -4 2 C-2.68 2 -1.36 2 0 2 C0 1.34 0 0.68 0 0 Z " fill="#760AF4" transform="translate(212,187)"/>
<path d="M0 0 C-0.33 0.66 -0.66 1.32 -1 2 C-2.0725 2.103125 -3.145 2.20625 -4.25 2.3125 C-8.70842306 3.12987756 -10.12536513 4.60270425 -13 8 C-13.33 7.34 -13.66 6.68 -14 6 C-9.8423913 0.25271739 -9.8423913 0.25271739 -5.875 -0.9375 C-3 -1 -3 -1 0 0 Z " fill="#2A026E" transform="translate(134,179)"/>
<path d="M0 0 C3.2826932 1.49076434 5.93077441 3.38620321 8.75 5.625 C9.94882813 6.57246094 9.94882813 6.57246094 11.171875 7.5390625 C11.77515625 8.02117187 12.3784375 8.50328125 13 9 C12.01 9.495 12.01 9.495 11 10 C8.65234375 9.1796875 8.65234375 9.1796875 5.9375 7.875 C5.03902344 7.45992187 4.14054688 7.04484375 3.21484375 6.6171875 C1 5 1 5 0.19140625 2.3203125 C0.12824219 1.55460938 0.06507813 0.78890625 0 0 Z " fill="#8C1DDF" transform="translate(128,244)"/>
<path d="M0 0 C1.37095624 3.69037278 0.60010967 5.70883835 -0.9375 9.25 C-1.31777344 10.14203125 -1.69804687 11.0340625 -2.08984375 11.953125 C-2.39019531 12.62859375 -2.69054687 13.3040625 -3 14 C-3.66 14 -4.32 14 -5 14 C-4.53411505 8.29290936 -3.06242216 4.84060277 0 0 Z " fill="#4E467A" transform="translate(33,141)"/>
<path d="M0 0 C1.2065625 0.0309375 1.2065625 0.0309375 2.4375 0.0625 C3.24717438 2.97732778 3.65595993 4.52363217 2.5 7.375 C1.9740625 8.2103125 1.9740625 8.2103125 1.4375 9.0625 C1.169375 8.485 0.90125 7.9075 0.625 7.3125 C-0.57969859 5.0299132 -1.97048115 3.0887058 -3.5625 1.0625 C-2.5625 0.0625 -2.5625 0.0625 0 0 Z " fill="#200B6A" transform="translate(209.5625,104.9375)"/>
<path d="M0 0 C-0.33 0.99 -0.66 1.98 -1 3 C-3.12472576 3.05386629 -5.24983652 3.09273071 -7.375 3.125 C-9.15003906 3.15980469 -9.15003906 3.15980469 -10.9609375 3.1953125 C-14 3 -14 3 -16 1 C-10.44860651 -1.48351814 -5.83475015 -0.85330338 0 0 Z " fill="#2B1D6F" transform="translate(133,84)"/>
<path d="M0 0 C1.32 1.32 2.64 2.64 4 4 C2.35 4.33 0.7 4.66 -1 5 C-1.33 3.68 -1.66 2.36 -2 1 C-1.34 0.67 -0.68 0.34 0 0 Z M4 2 C5.65 2 7.3 2 9 2 C9 2.99 9 3.98 9 5 C7.68 5.33 6.36 5.66 5 6 C4.67 4.68 4.34 3.36 4 2 Z " fill="#A509E7" transform="translate(282,54)"/>
<path d="M0 0 C0.66 0.33 1.32 0.66 2 1 C-0.475 5.455 -0.475 5.455 -3 10 C-4.32 9.67 -5.64 9.34 -7 9 C-6.67 7.35 -6.34 5.7 -6 4 C-4.35 3.67 -2.7 3.34 -1 3 C-0.67 2.01 -0.34 1.02 0 0 Z " fill="#150742" transform="translate(52,295)"/>
<path d="M0 0 C-1 3 -1 3 -2.7421875 3.94921875 C-3.79792969 4.31466797 -3.79792969 4.31466797 -4.875 4.6875 C-5.92300781 5.06455078 -5.92300781 5.06455078 -6.9921875 5.44921875 C-9 6 -9 6 -12 6 C-7.91466721 1.69383841 -6.09114656 0 0 0 Z " fill="#981CE9" transform="translate(205,241)"/>
<path d="M0 0 C1.02154924 0.97797605 2.02566518 1.97497724 3 3 C1.20793453 2.85915204 -0.58364917 2.71216299 -2.375 2.5625 C-3.37273437 2.48128906 -4.37046875 2.40007812 -5.3984375 2.31640625 C-8 2 -8 2 -10 1 C-10 0.34 -10 -0.32 -10 -1 C-5.9472301 -2.15793426 -3.73695111 -1.96681638 0 0 Z " fill="#B74FEB" transform="translate(274,149)"/>
<path d="M0 0 C0.66 0 1.32 0 2 0 C1.625 1.9375 1.625 1.9375 1 4 C0.01 4.495 0.01 4.495 -1 5 C-0.34 5.66 0.32 6.32 1 7 C-2.465 8.485 -2.465 8.485 -6 10 C-4.63312778 6.01328937 -2.84804907 3.11505367 0 0 Z " fill="#5D548B" transform="translate(107,92)"/>
<path d="M0 0 C2.86724686 0.57344937 3.8614515 0.8614515 6 3 C5.8125 5 5.8125 5 5 7 C1.77208445 9.1519437 0.71599191 9.20086443 -3 9 C-2.34 8.01 -1.68 7.02 -1 6 C0.32 6 1.64 6 3 6 C2.42655063 3.13275314 2.1385485 2.1385485 0 0 Z " fill="#A85CD0" transform="translate(292,55)"/>
<path d="M0 0 C0.66 0 1.32 0 2 0 C3.65 3.63 5.3 7.26 7 11 C6.01 11.495 6.01 11.495 5 12 C5 11.34 5 10.68 5 10 C4.34 10 3.68 10 3 10 C2.67 8.68 2.34 7.36 2 6 C1.34 6 0.68 6 0 6 C0 4.02 0 2.04 0 0 Z " fill="#B451DB" transform="translate(260,30)"/>
<path d="M0 0 C0.99 0.66 1.98 1.32 3 2 C2.67 2.66 2.34 3.32 2 4 C0.02 4 -1.96 4 -4 4 C-4 4.99 -4 5.98 -4 7 C-5.32 7 -6.64 7 -8 7 C-6.5361389 2.60841671 -4.02168662 2.12052567 0 0 Z " fill="#170745" transform="translate(172,257)"/>
<path d="M0 0 C3 1 3 1 4.9375 4.0625 C5.618125 5.031875 6.29875 6.00125 7 7 C8.32 7 9.64 7 11 7 C10.67 7.66 10.34 8.32 10 9 C9.34 8.67 8.68 8.34 8 8 C8 8.66 8 9.32 8 10 C7.01 10 6.02 10 5 10 C4.67 8.68 4.34 7.36 4 6 C3.34 6 2.68 6 2 6 C1.34 4.02 0.68 2.04 0 0 Z " fill="#A828F0" transform="translate(143,226)"/>
<path d="M0 0 C0.66 0 1.32 0 2 0 C2.33 2.31 2.66 4.62 3 7 C0.36 7 -2.28 7 -5 7 C-4.21654285 5.82780457 -3.42297164 4.66236332 -2.625 3.5 C-2.18414062 2.8503125 -1.74328125 2.200625 -1.2890625 1.53125 C-0.65097656 0.77328125 -0.65097656 0.77328125 0 0 Z " fill="#423675" transform="translate(39,134)"/>
<path d="M0 0 C-0.8125 1.9375 -0.8125 1.9375 -2 4 C-2.99 4.33 -3.98 4.66 -5 5 C-5 5.99 -5 6.98 -5 8 C-6.32 7.67 -7.64 7.34 -9 7 C-4.53191489 0 -4.53191489 0 0 0 Z " fill="#18064A" transform="translate(189,231)"/>
<path d="M0 0 C0.99 0.33 1.98 0.66 3 1 C2.360625 1.78375 1.72125 2.5675 1.0625 3.375 C-1.78008655 7.55350178 -1.80539194 12.07641598 -2 17 C-2.33 17 -2.66 17 -3 17 C-3 12.71 -3 8.42 -3 4 C-2.34 4 -1.68 4 -1 4 C-0.67 2.68 -0.34 1.36 0 0 Z " fill="#7216D4" transform="translate(121,180)"/>
<path d="M0 0 C0.33 0.99 0.66 1.98 1 3 C4.00847418 4.22520264 4.00847418 4.22520264 7 5 C3.91190305 6.76462683 2.76687864 7 -1 7 C-1.04254356 5.00045254 -1.04080783 2.99958364 -1 1 C-0.67 0.67 -0.34 0.34 0 0 Z " fill="#930FD9" transform="translate(286,57)"/>
<path d="M0 0 C0 3 0 3 -1 6 C-2.65 6 -4.3 6 -6 6 C-6 6.66 -6 7.32 -6 8 C-7.32 7.67 -8.64 7.34 -10 7 C-8 5 -8 5 -5 4.625 C-1.87885291 4.34069672 -1.87885291 4.34069672 -0.625 1.9375 C-0.41875 1.298125 -0.2125 0.65875 0 0 Z " fill="#6003F6" transform="translate(265,288)"/>
<path d="M0 0 C0 0.33 0 0.66 0 1 C-2.31 1.33 -4.62 1.66 -7 2 C-7 2.66 -7 3.32 -7 4 C-7.99 4.33 -8.98 4.66 -10 5 C-10 3.35 -10 1.7 -10 0 C-6.7169902 -1.6415049 -3.57454967 -0.51888624 0 0 Z " fill="#2B1D65" transform="translate(279,129)"/>
<path d="M0 0 C0.33 0.66 0.66 1.32 1 2 C-0.65 2.33 -2.3 2.66 -4 3 C-4 2.34 -4 1.68 -4 1 C-4.763125 1.20625 -5.52625 1.4125 -6.3125 1.625 C-9 2 -9 2 -12 0 C-7.74936599 -1.15926382 -4.29942266 -0.90949326 0 0 Z " fill="#32266B" transform="translate(57,130)"/>
<path d="M0 0 C-0.66 0.66 -1.32 1.32 -2 2 C-1.34 2.66 -0.68 3.32 0 4 C-0.66 4.66 -1.32 5.32 -2 6 C-3.32 5.34 -4.64 4.68 -6 4 C-6 3.34 -6 2.68 -6 2 C-6.99 1.67 -7.98 1.34 -9 1 C-5.92677456 0.08941469 -3.19902639 -0.08886184 0 0 Z " fill="#2A1971" transform="translate(203,83)"/>
<path d="M0 0 C2.27057377 -0.05398987 4.54151288 -0.09278742 6.8125 -0.125 C8.07707031 -0.14820313 9.34164062 -0.17140625 10.64453125 -0.1953125 C14 0 14 0 17 2 C17 2.66 17 3.32 17 4 C15.95779297 3.52433594 15.95779297 3.52433594 14.89453125 3.0390625 C11.73811356 1.90598948 9.02719833 1.59519989 5.6875 1.375 C4.08455078 1.26285156 4.08455078 1.26285156 2.44921875 1.1484375 C1.23685547 1.07496094 1.23685547 1.07496094 0 1 C0 0.67 0 0.34 0 0 Z " fill="#7B1AD4" transform="translate(184,176)"/>
<path d="M0 0 C0.66 0.33 1.32 0.66 2 1 C2.40729228 3.32156597 2.74438677 5.6568787 3 8 C1.35 7.67 -0.3 7.34 -2 7 C-1.125 1.125 -1.125 1.125 0 0 Z " fill="#100639" transform="translate(59,306)"/>
<path d="M0 0 C1.98 0.495 1.98 0.495 4 1 C1.25 7.875 1.25 7.875 -1 9 C-0.67 6.03 -0.34 3.06 0 0 Z " fill="#8722DF" transform="translate(233,244)"/>
<path d="M0 0 C1.65 0 3.3 0 5 0 C4.67 0.66 4.34 1.32 4 2 C3.34 2 2.68 2 2 2 C1.67 4.97 1.34 7.94 1 11 C0.67 11 0.34 11 0 11 C0 7.37 0 3.74 0 0 Z " fill="#B940EE" transform="translate(207,216)"/>
<path d="M0 0 C0.99 1.485 0.99 1.485 2 3 C3.03425441 4.40133435 4.07635312 5.79690305 5.125 7.1875 C5.66382812 7.90292969 6.20265625 8.61835938 6.7578125 9.35546875 C7.16773437 9.89816406 7.57765625 10.44085938 8 11 C5.5625 10.1875 5.5625 10.1875 3 9 C2.67 8.01 2.34 7.02 2 6 C1.34 6 0.68 6 0 6 C0 4.02 0 2.04 0 0 Z " fill="#8F28D6" transform="translate(120,233)"/>
<path d="M0 0 C0.66 0 1.32 0 2 0 C2.33 2.64 2.66 5.28 3 8 C2.01 8.495 2.01 8.495 1 9 C1 7.68 1 6.36 1 5 C0.01 4.67 -0.98 4.34 -2 4 C-1.34 2.68 -0.68 1.36 0 0 Z " fill="#AB37E7" transform="translate(185,220)"/>
<path d="M0 0 C2.94149514 0.0644123 5.17067353 1.05689118 8 2 C8 2.33 8 2.66 8 3 C2.06 3.495 2.06 3.495 -4 4 C-2.68 2.68 -1.36 1.36 0 0 Z " fill="#AF45E5" transform="translate(53,148)"/>
<path d="M0 0 C1.98 1.65 3.96 3.3 6 5 C2.86650268 6.04449911 2.01031744 5.93423645 -1 5 C-0.67 3.35 -0.34 1.7 0 0 Z " fill="#4F467D" transform="translate(287,134)"/>
<path d="M0 0 C1.46534385 3.80989402 0.55203911 6.3241179 -1 10 C-1.99 10.495 -1.99 10.495 -3 11 C-3 3 -3 3 0 0 Z " fill="#A659E6" transform="translate(259,90)"/>
<path d="M0 0 C0.33 0.66 0.66 1.32 1 2 C1.66 2 2.32 2 3 2 C2 5 2 5 0 8 C-0.99 7.01 -1.98 6.02 -3 5 C-2.34 4.67 -1.68 4.34 -1 4 C-0.34786708 1.97536745 -0.34786708 1.97536745 0 0 Z " fill="#8518DD" transform="translate(255,93)"/>
<path d="M0 0 C1.258125 -0.04125 2.51625 -0.0825 3.8125 -0.125 C4.52019531 -0.14820313 5.22789062 -0.17140625 5.95703125 -0.1953125 C8 0 8 0 11 2 C11.33 2.99 11.66 3.98 12 5 C10.56068883 4.54738642 9.12361001 4.08767021 7.6875 3.625 C6.88699219 3.36976562 6.08648437 3.11453125 5.26171875 2.8515625 C3 2 3 2 0 0 Z " fill="#BB6FE4" transform="translate(221,64)"/>
<path d="M0 0 C0.66 0.33 1.32 0.66 2 1 C2 1.66 2 2.32 2 3 C4.31 3 6.62 3 9 3 C4.8204355 5.78637633 2.85331323 4.79562512 -2 4 C-1.34 2.68 -0.68 1.36 0 0 Z " fill="#9B37D6" transform="translate(215,59)"/>
<path d="M0 0 C0.66 0.33 1.32 0.66 2 1 C1.01 2.485 1.01 2.485 0 4 C0.33 4.99 0.66 5.98 1 7 C0.01 7.495 0.01 7.495 -1 8 C-2.32 7.01 -3.64 6.02 -5 5 C-4.34 5 -3.68 5 -3 5 C-2.5359375 4.0409375 -2.5359375 4.0409375 -2.0625 3.0625 C-1 1 -1 1 0 0 Z " fill="#C56BEB" transform="translate(240,42)"/>
<path d="M0 0 C0.99 0 1.98 0 3 0 C3.66 2.31 4.32 4.62 5 7 C3.68 6.67 2.36 6.34 1 6 C0.67 4.02 0.34 2.04 0 0 Z " fill="#110737" transform="translate(40,289)"/>
<path d="M0 0 C0.99 0.33 1.98 0.66 3 1 C-1.75 6.75 -1.75 6.75 -4 9 C-4 7.35 -4 5.7 -4 4 C-3.34 4 -2.68 4 -2 4 C-1.34 2.68 -0.68 1.36 0 0 Z " fill="#E5C2FF" transform="translate(243,264)"/>
<path d="M0 0 C1.98 0 3.96 0 6 0 C6.33 0.66 6.66 1.32 7 2 C6.01 2.99 5.02 3.98 4 5 C2.64567325 3.68799596 1.31266518 2.35368596 0 1 C0 0.67 0 0.34 0 0 Z " fill="#A142DC" transform="translate(240,73)"/>
<path d="M0 0 C2.97 0.33 5.94 0.66 9 1 C8.67 1.99 8.34 2.98 8 4 C5.6875 4.25 5.6875 4.25 3 4 C1.1875 2 1.1875 2 0 0 Z " fill="#540AD6" transform="translate(61,292)"/>
<path d="M0 0 C0.33 0 0.66 0 1 0 C1.66 2.97 2.32 5.94 3 9 C1.35 9 -0.3 9 -2 9 C-1.34 6.03 -0.68 3.06 0 0 Z " fill="#F2C0FE" transform="translate(237,241)"/>
<path d="M0 0 C2.875 0.1875 2.875 0.1875 6 1 C7.375 3.5625 7.375 3.5625 8 6 C6.66402348 5.19185349 5.331275 4.37836819 4 3.5625 C3.2575 3.11003906 2.515 2.65757812 1.75 2.19140625 C1.1725 1.79824219 0.595 1.40507812 0 1 C0 0.67 0 0.34 0 0 Z " fill="#8D26D0" transform="translate(148,236)"/>
<path d="M0 0 C4.42857143 5.14285714 4.42857143 5.14285714 5 9 C4.01 9.495 4.01 9.495 3 10 C3 8.68 3 7.36 3 6 C2.01 5.67 1.02 5.34 0 5 C0 3.35 0 1.7 0 0 Z " fill="#6D678C" transform="translate(293,140)"/>
<path d="M0 0 C3.96 0.33 7.92 0.66 12 1 C12 1.33 12 1.66 12 2 C7.38 2.33 2.76 2.66 -2 3 C-1.34 2.01 -0.68 1.02 0 0 Z " fill="#210E72" transform="translate(128,99)"/>
<path d="M0 0 C-1.98 1.32 -3.96 2.64 -6 4 C-6.66 3.01 -7.32 2.02 -8 1 C-4.93251126 -0.86240388 -3.40254489 -1.2151946 0 0 Z " fill="#1F0A6E" transform="translate(117,93)"/>
<path d="M0 0 C6.4 -0.36923077 6.4 -0.36923077 9.4375 1.5 C9.953125 1.995 10.46875 2.49 11 3 C9.54257537 3.08096803 8.08387193 3.13917774 6.625 3.1875 C5.81289063 3.22230469 5.00078125 3.25710937 4.1640625 3.29296875 C3.44992187 3.19628906 2.73578125 3.09960938 2 3 C1.34 2.01 0.68 1.02 0 0 Z " fill="#911DCA" transform="translate(283,54)"/>
<path d="M0 0 C0.99 0.66 1.98 1.32 3 2 C1.02 3.32 -0.96 4.64 -3 6 C-3.66 5.67 -4.32 5.34 -5 5 C-5 4.34 -5 3.68 -5 3 C-2.5 1.375 -2.5 1.375 0 0 Z " fill="#3F3B55" transform="translate(273,308)"/>
<path d="M0 0 C2.64 0 5.28 0 8 0 C7.34 1.32 6.68 2.64 6 4 C4.35 3.67 2.7 3.34 1 3 C0.67 2.01 0.34 1.02 0 0 Z " fill="#180545" transform="translate(151,257)"/>
<path d="M0 0 C1.65 0 3.3 0 5 0 C5.66 1.32 6.32 2.64 7 4 C6.01 4.33 5.02 4.66 4 5 C2.68 3.35 1.36 1.7 0 0 Z " fill="#9116DD" transform="translate(236,68)"/>
<path d="M0 0 C0.97140086 3.02213602 1.19248372 5.0187907 0 8 C-0.99 8.66 -1.98 9.32 -3 10 C-2.39009109 6.44219804 -1.4216319 3.3171411 0 0 Z " fill="#6E06F4" transform="translate(241,272)"/>
<path d="M0 0 C0.99 0.66 1.98 1.32 3 2 C0.03 4.475 0.03 4.475 -3 7 C-2.38722388 4.03824877 -1.74627478 2.61941217 0 0 Z " fill="#2F0466" transform="translate(195,241)"/>
<path d="M0 0 C0.33 0.66 0.66 1.32 1 2 C1.99 2.33 2.98 2.66 4 3 C2.6875 4.5 2.6875 4.5 1 6 C0.01 6 -0.98 6 -2 6 C-2 5.34 -2 4.68 -2 4 C-1.34 4 -0.68 4 0 4 C-0.33 3.01 -0.66 2.02 -1 1 C-0.67 0.67 -0.34 0.34 0 0 Z " fill="#9827E1" transform="translate(174,234)"/>
<path d="M0 0 C3.375 -0.125 3.375 -0.125 7 0 C7.66 0.66 8.32 1.32 9 2 C6.1875 2.6875 6.1875 2.6875 3 3 C1.125 1.5625 1.125 1.5625 0 0 Z " fill="#585270" transform="translate(287,216)"/>
<path d="M0 0 C0.66 0 1.32 0 2 0 C2 2.64 2 5.28 2 8 C1.34 8 0.68 8 0 8 C-1.09658936 4.71023192 -0.79953138 3.28696233 0 0 Z " fill="#20164F" transform="translate(298,154)"/>
</svg>
